SplineFontDB: 3.0
FontName: Samim
FullName: Samim
FamilyName: Samim
Weight: Regular
Copyright: Copyright (c) 2003 by Bitstream, Inc. All Rights Reserved.\nDejaVu changes are in public domain\nCopyright (c) 2015 by Saber Rastikerdar. All Rights Reserved.\nNon-Arabic(Latin) glyphs and data are imported from Open Sans font under the Apache License, Version 2.0.
Version: 1.0.2
ItalicAngle: 0
UnderlinePosition: -200
UnderlineWidth: 100
Ascent: 1638
Descent: 410
InvalidEm: 0
LayerCount: 2
Layer: 0 1 "Back" 1
Layer: 1 1 "Fore" 0
XUID: [1021 502 1027637223 15701598]
UniqueID: 4254684
UseUniqueID: 1
FSType: 0
OS2Version: 1
OS2_WeightWidthSlopeOnly: 0
OS2_UseTypoMetrics: 1
CreationTime: 1431850356
ModificationTime: 1472248931
PfmFamily: 33
TTFWeight: 400
TTFWidth: 5
LineGap: 0
VLineGap: 0
Panose: 2 11 6 3 3 8 4 2 2 4
OS2TypoAscent: 2250
OS2TypoAOffset: 0
OS2TypoDescent: -1200
OS2TypoDOffset: 0
OS2TypoLinegap: 0
OS2WinAscent: 2250
OS2WinAOffset: 0
OS2WinDescent: 1200
OS2WinDOffset: 0
HheadAscent: 2250
HheadAOffset: 0
HheadDescent: -1200
HheadDOffset: 0
OS2SubXSize: 1331
OS2SubYSize: 1433
OS2SubXOff: 0
OS2SubYOff: 286
OS2SupXSize: 1331
OS2SupYSize: 1433
OS2SupXOff: 0
OS2SupYOff: 983
OS2StrikeYSize: 102
OS2StrikeYPos: 530
OS2Vendor: 'PfEd'
OS2CodePages: 600001ff.dfff0000
Lookup: 1 9 0 "'fina' Terminal Forms in Arabic lookup 9" { "'fina' Terminal Forms in Arabic lookup 9 subtable"  } ['fina' ('arab' <'KUR ' 'SND ' 'URD ' 'dflt' > ) ]
Lookup: 1 9 0 "'medi' Medial Forms in Arabic lookup 11" { "'medi' Medial Forms in Arabic lookup 11 subtable"  } ['medi' ('arab' <'KUR ' 'SND ' 'URD ' 'dflt' > ) ]
Lookup: 1 9 0 "'init' Initial Forms in Arabic lookup 13" { "'init' Initial Forms in Arabic lookup 13 subtable"  } ['init' ('arab' <'KUR ' 'SND ' 'URD ' 'dflt' > ) ]
Lookup: 4 1 1 "'rlig' Required Ligatures in Arabic lookup 14" { "'rlig' Required Ligatures in Arabic lookup 14 subtable"  } ['rlig' ('arab' <'KUR ' 'dflt' > ) ]

StartChar: exclam
Encoding: 33 33 1
Width: 559
VWidth: 2170
GlyphClass: 2
Flags: W
LayerCount: 2
Fore
SplineSet
152.986328125 130.211914062 m 128,-1,1
 152.986328125 182.616210938 152.986328125 182.616210938 191.09765625 220.728515625 c 128,-1,2
 229.208984375 258.83984375 229.208984375 258.83984375 280.421875 257.649414062 c 0,3,4
 331.634765625 258.83984375 331.634765625 258.83984375 369.74609375 220.728515625 c 128,-1,5
 407.857421875 182.616210938 407.857421875 182.616210938 407.857421875 130.211914062 c 128,-1,6
 407.857421875 77.80859375 407.857421875 77.80859375 369.74609375 39.697265625 c 128,-1,7
 331.634765625 1.5859375 331.634765625 1.5859375 280.421875 2.77734375 c 0,8,9
 229.208984375 1.5859375 229.208984375 1.5859375 191.09765625 39.697265625 c 128,-1,0
 152.986328125 77.80859375 152.986328125 77.80859375 152.986328125 130.211914062 c 128,-1,1
179.26953125 1490.36035156 m 1,10,-1
 379.73046875 1490.36035156 l 1,11,-1
 358.990234375 414.459960938 l 1,12,-1
 201.046875 414.459960938 l 1,13,-1
 179.26953125 1490.36035156 l 1,10,-1
EndSplineSet
EndChar

StartChar: period
Encoding: 46 46 2
Width: 561
VWidth: 2170
GlyphClass: 2
Flags: W
LayerCount: 2
Fore
SplineSet
152.986328125 130.211914062 m 132,-1,1
 152.986328125 182.616210938 152.986328125 182.616210938 191.09765625 220.728515625 c 132,-1,2
 229.208984375 258.83984375 229.208984375 258.83984375 280.421875 257.649414062 c 4,3,4
 331.634765625 258.83984375 331.634765625 258.83984375 369.74609375 220.728515625 c 132,-1,5
 407.857421875 182.616210938 407.857421875 182.616210938 407.857421875 130.211914062 c 132,-1,6
 407.857421875 77.80859375 407.857421875 77.80859375 369.74609375 39.697265625 c 132,-1,7
 331.634765625 1.5859375 331.634765625 1.5859375 280.421875 2.77734375 c 4,8,9
 229.208984375 1.5859375 229.208984375 1.5859375 191.09765625 39.697265625 c 132,-1,0
 152.986328125 77.80859375 152.986328125 77.80859375 152.986328125 130.211914062 c 132,-1,1
EndSplineSet
EndChar

StartChar: colon
Encoding: 58 58 3
Width: 559
VWidth: 2170
GlyphClass: 2
Flags: W
LayerCount: 2
Fore
SplineSet
152.986328125 810.211914062 m 132,-1,1
 152.986328125 862.616210938 152.986328125 862.616210938 191.09765625 900.728515625 c 132,-1,2
 229.208984375 938.83984375 229.208984375 938.83984375 280.421875 937.649414062 c 4,3,4
 331.634765625 938.83984375 331.634765625 938.83984375 369.74609375 900.728515625 c 132,-1,5
 407.857421875 862.616210938 407.857421875 862.616210938 407.857421875 810.211914062 c 132,-1,6
 407.857421875 757.80859375 407.857421875 757.80859375 369.74609375 719.697265625 c 132,-1,7
 331.634765625 681.5859375 331.634765625 681.5859375 280.421875 682.77734375 c 4,8,9
 229.208984375 681.5859375 229.208984375 681.5859375 191.09765625 719.697265625 c 132,-1,0
 152.986328125 757.80859375 152.986328125 757.80859375 152.986328125 810.211914062 c 132,-1,1
152.986328125 130.211914062 m 128,-1,11
 152.986328125 182.616210938 152.986328125 182.616210938 191.09765625 220.728515625 c 128,-1,12
 229.208984375 258.83984375 229.208984375 258.83984375 280.421875 257.649414062 c 0,13,14
 331.634765625 258.83984375 331.634765625 258.83984375 369.74609375 220.728515625 c 128,-1,15
 407.857421875 182.616210938 407.857421875 182.616210938 407.857421875 130.211914062 c 128,-1,16
 407.857421875 77.80859375 407.857421875 77.80859375 369.74609375 39.697265625 c 128,-1,17
 331.634765625 1.5859375 331.634765625 1.5859375 280.421875 2.77734375 c 0,18,19
 229.208984375 1.5859375 229.208984375 1.5859375 191.09765625 39.697265625 c 128,-1,10
 152.986328125 77.80859375 152.986328125 77.80859375 152.986328125 130.211914062 c 128,-1,11
EndSplineSet
EndChar

StartChar: afii57388
Encoding: 1548 1548 5
Width: 543
VWidth: 2177
GlyphClass: 2
Flags: W
LayerCount: 2
Fore
SplineSet
280.298828125 0 m 6,0,1
 150.249023438 0 150.249023438 0 150.249023438 117.384765625 c 6,2,-1
 150.249023438 187.95703125 l 6,3,4
 150 438 150 438 374.977539062 610.844726562 c 5,5,-1
 442.516601562 577.107421875 l 5,6,7
 295 415 295 415 291.595703125 264.512695312 c 5,8,-1
 308.390625 264.512695312 l 6,9,10
 405.634765625 264.998046875 405.634765625 264.998046875 405.634765625 152.830078125 c 6,11,-1
 405.634765625 115.780273438 l 6,12,13
 406 0 406 0 293.98046875 0 c 6,14,-1
 280.298828125 0 l 6,0,1
EndSplineSet
EndChar

StartChar: uni0615
Encoding: 1557 1557 6
Width: 6
VWidth: 2317
GlyphClass: 4
Flags: W
AnchorPoint: "Anchor-10" 583.891 1359.45 mark 0
AnchorPoint: "Anchor-9" 583.891 1359.45 mark 0
AnchorPoint: "Anchor-1" 583.891 2096.68 basemark 0
AnchorPoint: "Anchor-1" 583.891 1359.45 mark 0
LayerCount: 2
Fore
SplineSet
503.888671875 1550.73730469 m 1,0,-1
 588.427734375 1550.73730469 l 2,1,2
 664.267578125 1550.73730469 664.267578125 1550.73730469 701.798828125 1563.99902344 c 0,3,4
 770.1015625 1588.13476562 770.1015625 1588.13476562 772.559570312 1642.765625 c 0,5,6
 775.919921875 1694.94042969 775.919921875 1694.94042969 732.268554688 1701.49609375 c 0,7,8
 696.21484375 1707.72949219 696.21484375 1707.72949219 634.7890625 1667.86816406 c 0,9,10
 553.31640625 1612.07324219 553.31640625 1612.07324219 503.888671875 1550.73730469 c 1,0,-1
869.317382812 1654.34179688 m 0,11,12
 869.200195312 1457.5 869.200195312 1457.5 614.514648438 1457.3828125 c 2,13,-1
 299.59765625 1457.3828125 l 1,14,-1
 299.59765625 1550.73730469 l 1,15,-1
 391.467773438 1550.73730469 l 1,16,-1
 391.467773438 2003.28320312 l 1,17,-1
 485.95703125 2003.28320312 l 1,18,-1
 485.95703125 1620.24707031 l 1,19,20
 552.259765625 1715.08007812 552.259765625 1715.08007812 659.118164062 1768.0625 c 0,21,22
 751.540039062 1813.66015625 751.540039062 1813.66015625 823.620117188 1760.66015625 c 4,23,24
 869.200195312 1726.74023438 869.200195312 1726.74023438 869.317382812 1654.34179688 c 0,11,12
EndSplineSet
EndChar

StartChar: uni061B
Encoding: 1563 1563 7
Width: 543
VWidth: 2177
GlyphClass: 2
Flags: W
LayerCount: 2
Fore
SplineSet
152.986328125 130.211914062 m 128,-1,1
 152.986328125 182.616210938 152.986328125 182.616210938 191.09765625 220.728515625 c 128,-1,2
 229.208984375 258.83984375 229.208984375 258.83984375 280.421875 257.649414062 c 0,3,4
 331.634765625 258.83984375 331.634765625 258.83984375 369.74609375 220.728515625 c 128,-1,5
 407.857421875 182.616210938 407.857421875 182.616210938 407.857421875 130.211914062 c 128,-1,6
 407.857421875 77.80859375 407.857421875 77.80859375 369.74609375 39.697265625 c 128,-1,7
 331.634765625 1.5859375 331.634765625 1.5859375 280.421875 2.77734375 c 0,8,9
 229.208984375 1.5859375 229.208984375 1.5859375 191.09765625 39.697265625 c 128,-1,0
 152.986328125 77.80859375 152.986328125 77.80859375 152.986328125 130.211914062 c 128,-1,1
280.361328125 417.545898438 m 2,10,11
 150.311523438 417.545898438 150.311523438 417.545898438 150.311523438 534.930664062 c 2,12,-1
 150.311523438 605.502929688 l 2,13,14
 150 856 150 856 375.040039062 1028.390625 c 1,15,-1
 442.580078125 994.653320312 l 1,16,17
 295 832 295 832 291.658203125 682.05859375 c 1,18,-1
 308.454101562 682.05859375 l 2,19,20
 405.697265625 682 405.697265625 682 405.697265625 570.375976562 c 2,21,-1
 405.697265625 528.326171875 l 2,22,23
 406.000976562 417.545898438 406.000976562 417.545898438 294.04296875 417.545898438 c 2,24,-1
 280.361328125 417.545898438 l 2,10,11
EndSplineSet
EndChar

StartChar: uni061F
Encoding: 1567 1567 8
Width: 1025
VWidth: 2170
GlyphClass: 2
Flags: W
LayerCount: 2
Fore
SplineSet
457.986328125 130.211914062 m 128,-1,1
 457.986328125 182.616210938 457.986328125 182.616210938 496.09765625 220.728515625 c 128,-1,2
 534.208984375 258.83984375 534.208984375 258.83984375 585.421875 257.649414062 c 0,3,4
 636.634765625 258.83984375 636.634765625 258.83984375 674.74609375 220.728515625 c 128,-1,5
 712.857421875 182.616210938 712.857421875 182.616210938 712.857421875 130.211914062 c 128,-1,6
 712.857421875 77.80859375 712.857421875 77.80859375 674.74609375 39.697265625 c 128,-1,7
 636.634765625 1.5859375 636.634765625 1.5859375 585.421875 2.77734375 c 0,8,9
 534.208984375 1.5859375 534.208984375 1.5859375 496.09765625 39.697265625 c 128,-1,0
 457.986328125 77.80859375 457.986328125 77.80859375 457.986328125 130.211914062 c 128,-1,1
493.780273438 425.059570312 m 1,10,-1
 493.780273438 496.219726562 l 2,11,12
 493.990234375 571.384765625 493.990234375 571.384765625 480.5390625 609.553710938 c 0,13,14
 460.970703125 665.08203125 460.970703125 665.08203125 379.1640625 745.029296875 c 2,15,-1
 285.864257812 836.208007812 l 2,16,17
 116 1002 116 1002 116.419921875 1132.48828125 c 0,18,19
 116 1256 116 1256 168.03515625 1339.10351562 c 0,20,21
 290 1536 290 1536 549.477539062 1535.75976562 c 0,22,23
 750 1536 750 1536 944.11328125 1420.58203125 c 1,24,-1
 875.321289062 1261.89453125 l 1,25,26
 551 1431 551 1431 388.840820312 1295.52441406 c 0,27,28
 317 1235 317 1235 316.759765625 1137.20019531 c 0,29,30
 316.999023438 1039.3125 316.999023438 1039.3125 433.55859375 924.048828125 c 2,31,-1
 528.905273438 829.76171875 l 2,32,33
 628.1796875 731.849609375 628.1796875 731.849609375 653.581054688 669.405273438 c 0,34,35
 681.400390625 600.000976562 681.400390625 600.000976562 681.400390625 499.080078125 c 2,36,-1
 681.400390625 425.059570312 l 1,37,-1
 493.780273438 425.059570312 l 1,10,-1
EndSplineSet
EndChar

StartChar: uni0621
Encoding: 1569 1569 9
Width: 778
VWidth: 2311
GlyphClass: 2
Flags: W
AnchorPoint: "Anchor-7" 380.54 -207.76 basechar 0
AnchorPoint: "Anchor-10" 330.19 1055.23 basechar 0
LayerCount: 2
Fore
SplineSet
91.3408203125 -9.1484375 m 1,0,-1
 91.3408203125 139.052734375 l 1,1,-1
 301.677734375 222.56640625 l 1,2,3
 92.3173828125 284.876953125 92.3173828125 284.876953125 95.154296875 491.338867188 c 0,4,5
 97.5869140625 663.08203125 97.5869140625 663.08203125 237.250976562 747.856445312 c 128,-1,6
 376.983398438 832.673828125 376.983398438 832.673828125 593.599609375 785.115234375 c 1,7,-1
 593.599609375 630.198242188 l 1,8,9
 429.635742188 674.907226562 429.635742188 674.907226562 340.4453125 629.555664062 c 128,-1,10
 251.254882812 584.204101562 251.254882812 584.204101562 251.944335938 482.336914062 c 0,11,12
 252.262695312 351.643554688 252.262695312 351.643554688 414.59375 323.615234375 c 0,13,14
 453.221679688 316.961914062 453.221679688 316.961914062 502.901367188 319.056640625 c 128,-1,15
 552.577148438 321.15234375 552.577148438 321.15234375 686.879882812 380.873046875 c 1,16,-1
 686.879882812 226.375 l 1,17,-1
 91.3408203125 -9.1484375 l 1,0,-1
EndSplineSet
EndChar

StartChar: uni0627
Encoding: 1575 1575 15
Width: 448
VWidth: 2311
GlyphClass: 2
Flags: W
AnchorPoint: "Anchor-10" 224.19 1637.38 basechar 0
AnchorPoint: "Anchor-7" 231.61 -234.79 basechar 0
LayerCount: 2
Fore
SplineSet
137.786132812 1462.37109375 m 1,0,-1
 310.516601562 1537.2421875 l 5,1,-1
 310.516601562 1.58984375 l 1,2,-1
 181.4375 1.58984375 l 1,3,-1
 137.786132812 1462.37109375 l 1,0,-1
EndSplineSet
Substitution2: "'fina' Terminal Forms in Arabic lookup 9 subtable" uniFE8E
EndChar

StartChar: uni062D
Encoding: 1581 1581 21
Width: 1300
VWidth: 2311
GlyphClass: 2
Flags: W
AnchorPoint: "Anchor-10" 531.59 1235.96 basechar 0
AnchorPoint: "Anchor-7" 410.525 -783.648 basechar 0
LayerCount: 2
Fore
SplineSet
119.701171875 624.7109375 m 5,0,1
 290.440429688 874.5 290.440429688 874.5 489.719726562 874.5 c 4,2,3
 521.51953125 874.5 521.51953125 874.5 560.990234375 863.8046875 c 4,4,5
 599.959960938 853.299804688 599.959960938 853.299804688 757.486328125 776.234375 c 4,6,7
 914.780273438 699.599609375 914.780273438 699.599609375 995.791015625 671.354492188 c 4,8,9
 1076.95996094 643.419921875 1076.95996094 643.419921875 1169.60253906 630.88671875 c 5,10,-1
 1145.46582031 454.939453125 l 5,11,12
 1016.54003906 445.200195312 1016.54003906 445.200195312 994.629882812 443.098632812 c 4,13,14
 750.48046875 413.400390625 750.48046875 413.400390625 590.947265625 321.604492188 c 4,15,16
 265 133.559570312 265 133.559570312 265.084960938 -140.095703125 c 4,17,18
 265 -295.740234375 265 -295.740234375 378.986328125 -387.197265625 c 4,19,20
 492.900390625 -479.120117188 492.900390625 -479.120117188 776.735351562 -479.671875 c 4,21,22
 974.139648438 -480.1796875 974.139648438 -480.1796875 1151.05761719 -429.659179688 c 5,23,-1
 1205.06640625 -585.071289062 l 5,24,25
 997.459960938 -648.719726562 997.459960938 -648.719726562 778.907226562 -648.865234375 c 4,26,27
 366.759765625 -648.719726562 366.759765625 -648.719726562 206.868164062 -461.09765625 c 4,28,29
 96.4599609375 -331.780273438 96.4599609375 -331.780273438 96.4599609375 -143.330078125 c 4,30,31
 96.4599609375 45.580078125 96.4599609375 45.580078125 198.533203125 199.254882812 c 4,32,33
 350.860351562 429.299804688 350.860351562 429.299804688 685.275390625 528.139648438 c 4,34,35
 781.219726562 556.5 781.219726562 556.5 869.93359375 563.4765625 c 5,36,37
 801.360351562 580.879882812 801.360351562 580.879882812 671.255859375 642.354492188 c 4,38,39
 540.599609375 703.83984375 540.599609375 703.83984375 506.147460938 703.815429688 c 4,40,41
 371 703.83984375 371 703.83984375 234.82421875 528.734375 c 5,42,-1
 119.701171875 624.7109375 l 5,0,1
EndSplineSet
Substitution2: "'fina' Terminal Forms in Arabic lookup 9 subtable" uniFEA2
Substitution2: "'medi' Medial Forms in Arabic lookup 11 subtable" uniFEA4
Substitution2: "'init' Initial Forms in Arabic lookup 13 subtable" uniFEA3
EndChar

StartChar: uni062F
Encoding: 1583 1583 23
Width: 992
VWidth: 2311
GlyphClass: 2
Flags: W
AnchorPoint: "Anchor-10" 409.091 1221.98 basechar 0
AnchorPoint: "Anchor-7" 395.442 -216.688 basechar 0
LayerCount: 2
Fore
SplineSet
97.75390625 199.533203125 m 1,0,1
 210.613480602 162.287586368 210.613480602 162.287586368 361.6953125 162.565429688 c 4,2,3
 598 163 598 163 693.80859375 233.584960938 c 0,4,5
 743.059570312 270.299804688 743.059570312 270.299804688 742.81640625 315.80859375 c 0,6,7
 743.059570312 361.459960938 743.059570312 361.459960938 724.806640625 403.302734375 c 0,8,9
 638.120117188 609.5 638.120117188 609.5 374.004882812 810.703125 c 1,10,-1
 468.706054688 956.33203125 l 1,11,12
 848 673.099609375 848 673.099609375 895.025390625 378.53515625 c 0,13,14
 899.940429688 346.620117188 899.940429688 346.620117188 900.018554688 317.266601562 c 0,15,16
 899.940429688 155.8203125 899.940429688 155.8203125 750.693359375 65.9248046875 c 0,17,18
 612.6796875 -16.9599609375 612.6796875 -16.9599609375 349.1640625 -17.4072265625 c 4,19,20
 186.559570312 -16.9599609375 186.559570312 -16.9599609375 97.3447265625 14.60546875 c 1,21,-1
 97.75390625 199.533203125 l 1,0,1
EndSplineSet
Substitution2: "'fina' Terminal Forms in Arabic lookup 9 subtable" uniFEAA
EndChar

StartChar: uni0631
Encoding: 1585 1585 25
Width: 887
VWidth: 2317
GlyphClass: 2
Flags: W
AnchorPoint: "Anchor-7" 448.38 -712.85 basechar 0
AnchorPoint: "Anchor-10" 473.618 1001.71 basechar 0
LayerCount: 2
Fore
SplineSet
714.440429688 561.986328125 m 5,0,1
 817.259765625 274.540039062 817.259765625 274.540039062 786.065429688 54.1435546875 c 4,2,3
 702.780273438 -531.059570312 702.780273438 -531.059570312 103.760742188 -535.54296875 c 6,4,-1
 101.86328125 -535.556640625 l 5,5,-1
 26.484375 -398.100585938 l 5,6,7
 593.599609375 -358.280273438 593.599609375 -358.280273438 625.069335938 74.23828125 c 4,8,9
 632.8203125 182.3203125 632.8203125 182.3203125 559.689453125 455.208984375 c 5,10,-1
 714.440429688 561.986328125 l 5,0,1
EndSplineSet
PairPos2: "'kern' Horizontal Kerning lookup 15-1" uni06CA dx=-85 dy=0 dh=-85 dv=0 dx=0 dy=0 dh=0 dv=0
PairPos2: "'kern' Horizontal Kerning lookup 15-1" uniFB90 dx=-307 dy=0 dh=-307 dv=0 dx=0 dy=0 dh=0 dv=0
PairPos2: "'kern' Horizontal Kerning lookup 15-1" uniFB8E dx=-307 dy=0 dh=-307 dv=0 dx=0 dy=0 dh=0 dv=0
PairPos2: "'kern' Horizontal Kerning lookup 15-1" uni06A9 dx=-307 dy=0 dh=-307 dv=0 dx=0 dy=0 dh=0 dv=0
PairPos2: "'kern' Horizontal Kerning lookup 15-1" uni064A dx=-106 dy=0 dh=-106 dv=0 dx=0 dy=0 dh=0 dv=0
PairPos2: "'kern' Horizontal Kerning lookup 15-1" afii57414 dx=-106 dy=0 dh=-106 dv=0 dx=0 dy=0 dh=0 dv=0
PairPos2: "'kern' Horizontal Kerning lookup 15-1" uniFBE8 dx=-212 dy=0 dh=-212 dv=0 dx=0 dy=0 dh=0 dv=0
PairPos2: "'kern' Horizontal Kerning lookup 15-1" uni0649 dx=-106 dy=0 dh=-106 dv=0 dx=0 dy=0 dh=0 dv=0
PairPos2: "'kern' Horizontal Kerning lookup 15-1" uni0648 dx=-85 dy=0 dh=-85 dv=0 dx=0 dy=0 dh=0 dv=0
PairPos2: "'kern' Horizontal Kerning lookup 15-1" afii57412 dx=-85 dy=0 dh=-85 dv=0 dx=0 dy=0 dh=0 dv=0
PairPos2: "'kern' Horizontal Kerning lookup 15-1" uniFEEB dx=-212 dy=0 dh=-212 dv=0 dx=0 dy=0 dh=0 dv=0
PairPos2: "'kern' Horizontal Kerning lookup 15-1" uni0647 dx=-212 dy=0 dh=-212 dv=0 dx=0 dy=0 dh=0 dv=0
PairPos2: "'kern' Horizontal Kerning lookup 15-1" uniFEE7 dx=-212 dy=0 dh=-212 dv=0 dx=0 dy=0 dh=0 dv=0
PairPos2: "'kern' Horizontal Kerning lookup 15-1" uni0646 dx=-159 dy=0 dh=-159 dv=0 dx=0 dy=0 dh=0 dv=0
PairPos2: "'kern' Horizontal Kerning lookup 15-1" uniFEE3 dx=-212 dy=0 dh=-212 dv=0 dx=0 dy=0 dh=0 dv=0
PairPos2: "'kern' Horizontal Kerning lookup 15-1" uni0645 dx=-212 dy=0 dh=-212 dv=0 dx=0 dy=0 dh=0 dv=0
PairPos2: "'kern' Horizontal Kerning lookup 15-1" uniFEFB dx=-212 dy=0 dh=-212 dv=0 dx=0 dy=0 dh=0 dv=0
PairPos2: "'kern' Horizontal Kerning lookup 15-1" uniFEDF dx=-212 dy=0 dh=-212 dv=0 dx=0 dy=0 dh=0 dv=0
PairPos2: "'kern' Horizontal Kerning lookup 15-1" uni0644 dx=-159 dy=0 dh=-159 dv=0 dx=0 dy=0 dh=0 dv=0
PairPos2: "'kern' Horizontal Kerning lookup 15-1" uniFEDB dx=-307 dy=0 dh=-307 dv=0 dx=0 dy=0 dh=0 dv=0
PairPos2: "'kern' Horizontal Kerning lookup 15-1" uni0643 dx=-212 dy=0 dh=-212 dv=0 dx=0 dy=0 dh=0 dv=0
PairPos2: "'kern' Horizontal Kerning lookup 15-1" uniFED7 dx=-212 dy=0 dh=-212 dv=0 dx=0 dy=0 dh=0 dv=0
PairPos2: "'kern' Horizontal Kerning lookup 15-1" uni0642 dx=-159 dy=0 dh=-159 dv=0 dx=0 dy=0 dh=0 dv=0
PairPos2: "'kern' Horizontal Kerning lookup 15-1" uniFED3 dx=-212 dy=0 dh=-212 dv=0 dx=0 dy=0 dh=0 dv=0
PairPos2: "'kern' Horizontal Kerning lookup 15-1" uni0641 dx=-212 dy=0 dh=-212 dv=0 dx=0 dy=0 dh=0 dv=0
PairPos2: "'kern' Horizontal Kerning lookup 15-1" uniFECF dx=-212 dy=0 dh=-212 dv=0 dx=0 dy=0 dh=0 dv=0
PairPos2: "'kern' Horizontal Kerning lookup 15-1" uniFECB dx=-212 dy=0 dh=-212 dv=0 dx=0 dy=0 dh=0 dv=0
PairPos2: "'kern' Horizontal Kerning lookup 15-1" uniFEC7 dx=-212 dy=0 dh=-212 dv=0 dx=0 dy=0 dh=0 dv=0
PairPos2: "'kern' Horizontal Kerning lookup 15-1" uni0638 dx=-212 dy=0 dh=-212 dv=0 dx=0 dy=0 dh=0 dv=0
PairPos2: "'kern' Horizontal Kerning lookup 15-1" uniFEC3 dx=-212 dy=0 dh=-212 dv=0 dx=0 dy=0 dh=0 dv=0
PairPos2: "'kern' Horizontal Kerning lookup 15-1" uni0637 dx=-212 dy=0 dh=-212 dv=0 dx=0 dy=0 dh=0 dv=0
PairPos2: "'kern' Horizontal Kerning lookup 15-1" uniFEBF dx=-212 dy=0 dh=-212 dv=0 dx=0 dy=0 dh=0 dv=0
PairPos2: "'kern' Horizontal Kerning lookup 15-1" uni0636 dx=-212 dy=0 dh=-212 dv=0 dx=0 dy=0 dh=0 dv=0
PairPos2: "'kern' Horizontal Kerning lookup 15-1" uniFEBB dx=-212 dy=0 dh=-212 dv=0 dx=0 dy=0 dh=0 dv=0
PairPos2: "'kern' Horizontal Kerning lookup 15-1" uni0635 dx=-212 dy=0 dh=-212 dv=0 dx=0 dy=0 dh=0 dv=0
PairPos2: "'kern' Horizontal Kerning lookup 15-1" uniFEB7 dx=-212 dy=0 dh=-212 dv=0 dx=0 dy=0 dh=0 dv=0
PairPos2: "'kern' Horizontal Kerning lookup 15-1" uni0634 dx=-212 dy=0 dh=-212 dv=0 dx=0 dy=0 dh=0 dv=0
PairPos2: "'kern' Horizontal Kerning lookup 15-1" uniFEB3 dx=-212 dy=0 dh=-212 dv=0 dx=0 dy=0 dh=0 dv=0
PairPos2: "'kern' Horizontal Kerning lookup 15-1" uni0633 dx=-212 dy=0 dh=-212 dv=0 dx=0 dy=0 dh=0 dv=0
PairPos2: "'kern' Horizontal Kerning lookup 15-1" uni0632 dx=-85 dy=0 dh=-85 dv=0 dx=0 dy=0 dh=0 dv=0
PairPos2: "'kern' Horizontal Kerning lookup 15-1" uni0631 dx=-85 dy=0 dh=-85 dv=0 dx=0 dy=0 dh=0 dv=0
PairPos2: "'kern' Horizontal Kerning lookup 15-1" uni0630 dx=-212 dy=0 dh=-212 dv=0 dx=0 dy=0 dh=0 dv=0
PairPos2: "'kern' Horizontal Kerning lookup 15-1" uni062F dx=-212 dy=0 dh=-212 dv=0 dx=0 dy=0 dh=0 dv=0
PairPos2: "'kern' Horizontal Kerning lookup 15-1" uniFEA7 dx=-212 dy=0 dh=-212 dv=0 dx=0 dy=0 dh=0 dv=0
PairPos2: "'kern' Horizontal Kerning lookup 15-1" uniFEA3 dx=-212 dy=0 dh=-212 dv=0 dx=0 dy=0 dh=0 dv=0
PairPos2: "'kern' Horizontal Kerning lookup 15-1" uniFE9F dx=-212 dy=0 dh=-212 dv=0 dx=0 dy=0 dh=0 dv=0
PairPos2: "'kern' Horizontal Kerning lookup 15-1" uniFE9B dx=-212 dy=0 dh=-212 dv=0 dx=0 dy=0 dh=0 dv=0
PairPos2: "'kern' Horizontal Kerning lookup 15-1" uni062B dx=-212 dy=0 dh=-212 dv=0 dx=0 dy=0 dh=0 dv=0
PairPos2: "'kern' Horizontal Kerning lookup 15-1" uniFE97 dx=-212 dy=0 dh=-212 dv=0 dx=0 dy=0 dh=0 dv=0
PairPos2: "'kern' Horizontal Kerning lookup 15-1" uni062A dx=-212 dy=0 dh=-212 dv=0 dx=0 dy=0 dh=0 dv=0
PairPos2: "'kern' Horizontal Kerning lookup 15-1" uni0629 dx=-212 dy=0 dh=-212 dv=0 dx=0 dy=0 dh=0 dv=0
PairPos2: "'kern' Horizontal Kerning lookup 15-1" uniFE91 dx=-85 dy=0 dh=-85 dv=0 dx=0 dy=0 dh=0 dv=0
PairPos2: "'kern' Horizontal Kerning lookup 15-1" uni0628 dx=-212 dy=0 dh=-212 dv=0 dx=0 dy=0 dh=0 dv=0
PairPos2: "'kern' Horizontal Kerning lookup 15-1" uni0627 dx=-212 dy=0 dh=-212 dv=0 dx=0 dy=0 dh=0 dv=0
PairPos2: "'kern' Horizontal Kerning lookup 15-1" uni0623 dx=-212 dy=0 dh=-212 dv=0 dx=0 dy=0 dh=0 dv=0
PairPos2: "'kern' Horizontal Kerning lookup 15-1" uni0622 dx=-212 dy=0 dh=-212 dv=0 dx=0 dy=0 dh=0 dv=0
PairPos2: "'kern' Horizontal Kerning lookup 15-1" uni0621 dx=-212 dy=0 dh=-212 dv=0 dx=0 dy=0 dh=0 dv=0
PairPos2: "'kern' Horizontal Kerning lookup 15-1" uniFB94 dx=-307 dy=0 dh=-307 dv=0 dx=0 dy=0 dh=0 dv=0
PairPos2: "'kern' Horizontal Kerning lookup 15-1" uniFB92 dx=-307 dy=0 dh=-307 dv=0 dx=0 dy=0 dh=0 dv=0
PairPos2: "'kern' Horizontal Kerning lookup 15-1" afii57509 dx=-307 dy=0 dh=-307 dv=0 dx=0 dy=0 dh=0 dv=0
PairPos2: "'kern' Horizontal Kerning lookup 15-1" afii57508 dx=-85 dy=0 dh=-85 dv=0 dx=0 dy=0 dh=0 dv=0
PairPos2: "'kern' Horizontal Kerning lookup 15-1" uniFB7C dx=-159 dy=0 dh=-159 dv=0 dx=0 dy=0 dh=0 dv=0
PairPos2: "'kern' Horizontal Kerning lookup 15-1" afii57506 dx=-212 dy=0 dh=-212 dv=0 dx=0 dy=0 dh=0 dv=0
PairPos2: "'kern' Horizontal Kerning lookup 15-1" afii57440 dx=-212 dy=0 dh=-212 dv=0 dx=0 dy=0 dh=0 dv=0
PairPos2: "'kern' Horizontal Kerning lookup 15-1" uniFE8B dx=-212 dy=0 dh=-212 dv=0 dx=0 dy=0 dh=0 dv=0
Substitution2: "'fina' Terminal Forms in Arabic lookup 9 subtable" uniFEAE
EndChar

StartChar: uni0633
Encoding: 1587 1587 27
Width: 2394
VWidth: 2311
GlyphClass: 2
Flags: W
AnchorPoint: "Anchor-7" 364.11 -700.691 basechar 0
AnchorPoint: "Anchor-10" 567.641 900.47 basechar 0
LayerCount: 2
Fore
SplineSet
1478.57128906 -0.3076171875 m 0,0,1
 1375 -1 1375 -1 1299.03320312 70.40234375 c 1,2,3
 1288 -517 1288 -517 689.876953125 -517.5859375 c 0,4,5
 268 -517 268 -517 136.740234375 -215.763671875 c 0,6,7
 70 -63 70 -63 101.997070312 152.783203125 c 0,8,9
 123 296 123 296 184.524414062 433.759765625 c 1,10,-1
 343.259765625 379.267578125 l 1,11,12
 263 184 263 184 263.013671875 35.2705078125 c 0,13,14
 263 2 263 2 267.120117188 -29.6796875 c 0,15,16
 309 -344 309 -344 703.309570312 -344.5 c 0,17,18
 1098 -344 1098 -344 1146.01171875 3.57421875 c 0,19,20
 1151 41 1151 41 1150.78710938 78.2470703125 c 0,21,22
 1149 264 1149 264 1033.21875 410.681640625 c 1,23,-1
 1179.85058594 550.28515625 l 1,24,25
 1251 382 1251 382 1279.59375 308.310546875 c 0,26,27
 1330 181 1330 181 1472.12597656 181.26171875 c 0,28,29
 1615 181 1615 181 1633.70898438 372.39453125 c 2,30,-1
 1652.27441406 562.711914062 l 1,31,-1
 1770.29003906 562.711914062 l 1,32,-1
 1796.2265625 371.0078125 l 2,33,34
 1822.61053645 175.996479008 1822.61053645 175.996479008 1979.41210938 177.4140625 c 0,35,36
 2081 178 2081 178 2116.79296875 248.409179688 c 0,37,38
 2150 312 2150 312 2134.46972656 451.140625 c 0,39,40
 2128 507 2128 507 2094.77832031 689.005859375 c 1,41,-1
 2251.95410156 739.375 l 1,42,43
 2295 617 2295 617 2304.36132812 485.583984375 c 0,44,45
 2338 2 2338 2 1981.28027344 0 c 0,46,47
 1775 -2 1775 -2 1711.12988281 147.74609375 c 1,48,49
 1634 -0 1634 -0 1478.57128906 -0.3076171875 c 0,0,1
EndSplineSet
Substitution2: "'fina' Terminal Forms in Arabic lookup 9 subtable" uniFEB2
Substitution2: "'medi' Medial Forms in Arabic lookup 11 subtable" uniFEB4
Substitution2: "'init' Initial Forms in Arabic lookup 13 subtable" uniFEB3
EndChar

StartChar: uni0635
Encoding: 1589 1589 29
Width: 2514
VWidth: 2311
GlyphClass: 2
Flags: W
AnchorPoint: "Anchor-10" 461.99 900.47 basechar 0
AnchorPoint: "Anchor-7" 424.891 -740.41 basechar 0
LayerCount: 2
Fore
SplineSet
1529.328125 186.91796875 m 1,0,-1
 1712.11328125 186.91796875 l 2,1,2
 1983.29785156 186.909179688 1983.29785156 186.909179688 2101.9375 232.807617188 c 0,3,4
 2251.47851562 291.848632812 2251.47851562 291.848632812 2239.97949219 428.157226562 c 0,5,6
 2235.578125 480.529296875 2235.578125 480.529296875 2208.31738281 513.896484375 c 0,7,8
 2159.2578125 578.048828125 2159.2578125 578.048828125 2063.90917969 577.580078125 c 0,9,10
 1937.71875 578.048828125 1937.71875 578.048828125 1801.01269531 471.708984375 c 0,11,12
 1685.43847656 381.94921875 1685.43847656 381.94921875 1529.328125 186.91796875 c 1,0,-1
1364.87890625 227.095703125 m 5,13,14
 1733.09960938 757.900390625 1733.09960938 757.900390625 2069.15820312 757.188476562 c 0,15,16
 2221.75976562 756.83984375 2221.75976562 756.83984375 2316.26855469 669.135742188 c 0,17,18
 2415.74023438 576.639648438 2415.74023438 576.639648438 2417.58007812 422.947265625 c 0,19,20
 2418.91992188 234.259765625 2418.91992188 234.259765625 2256.95898438 113.663085938 c 0,21,22
 2104.6796875 -1.6806640625 2104.6796875 -1.6806640625 1728.84375 -0.7109375 c 2,23,-1
 1453.25195312 0 l 2,24,25
 1372.70019531 0 1372.70019531 0 1312.88085938 78.19921875 c 1,26,-1
 1299.14648438 78.408203125 l 1,27,28
 1292.13964844 -518.33984375 1292.13964844 -518.33984375 695.6640625 -517.544921875 c 24,29,30
 267.120117188 -517.280273438 267.120117188 -517.280273438 135.6796875 -215.763671875 c 0,31,32
 68.900390625 -62.5400390625 68.900390625 -62.5400390625 100.9375 152.783203125 c 0,33,34
 121.900390625 295.740234375 121.900390625 295.740234375 183.46484375 433.759765625 c 1,35,-1
 342.200195312 379.267578125 l 1,36,37
 261.8203125 184.440429688 261.8203125 184.440429688 261.953125 35.2705078125 c 0,38,39
 261.8203125 2.1201171875 261.8203125 2.1201171875 266.059570312 -29.6796875 c 0,40,41
 307.400390625 -344.5 307.400390625 -344.5 702.25 -344.5 c 0,42,43
 1102.40039062 -345.559570312 1102.40039062 -345.559570312 1146.01171875 3.57421875 c 0,44,45
 1174.48046875 230.01953125 1174.48046875 230.01953125 1033.22070312 410.68359375 c 1,46,-1
 1179.84570312 550.28125 l 1,47,48
 1212.63964844 455.799804688 1212.63964844 455.799804688 1279.56738281 308.375 c 0,49,50
 1314.40039062 231.080078125 1314.40039062 231.080078125 1364.87890625 227.095703125 c 5,13,14
EndSplineSet
Substitution2: "'fina' Terminal Forms in Arabic lookup 9 subtable" uniFEBA
Substitution2: "'medi' Medial Forms in Arabic lookup 11 subtable" uniFEBC
Substitution2: "'init' Initial Forms in Arabic lookup 13 subtable" uniFEBB
EndChar

StartChar: uni0637
Encoding: 1591 1591 31
Width: 1544
VWidth: 2311
GlyphClass: 2
Flags: W
AnchorPoint: "Anchor-10" 306.043 1673.92 basechar 0
AnchorPoint: "Anchor-7" 753.363 -270.3 basechar 0
LayerCount: 2
Fore
SplineSet
559.390625 187.62890625 m 1,0,-1
 742.174804688 187.62890625 l 2,1,2
 1013.36035156 187.620117188 1013.36035156 187.620117188 1131.99902344 233.518554688 c 0,3,4
 1281.54003906 292.559570312 1281.54003906 292.559570312 1270.04101562 428.868164062 c 0,5,6
 1265.63964844 481.240234375 1265.63964844 481.240234375 1238.37890625 514.607421875 c 0,7,8
 1189.3203125 578.759765625 1189.3203125 578.759765625 1093.97070312 578.291015625 c 0,9,10
 967.780273438 578.759765625 967.780273438 578.759765625 831.07421875 472.420898438 c 0,11,12
 715.5 382.66015625 715.5 382.66015625 559.390625 187.62890625 c 1,0,-1
406.043945312 255.59375 m 1,13,14
 771 758 771 758 1099.21972656 757.900390625 c 0,15,16
 1250 758 1250 758 1346.33007812 669.846679688 c 0,17,18
 1446 578 1446 578 1447.64257812 423.658203125 c 0,19,20
 1449 229 1449 229 1287.02148438 114.374023438 c 0,21,22
 1125 0 1125 0 758.905273438 0 c 2,23,-1
 97.2548828125 0 l 1,24,-1
 97.2548828125 185.477539062 l 1,25,-1
 264.129882812 185.479492188 l 1,26,-1
 231.3046875 1467.67480469 l 5,27,-1
 406.149414062 1537.00488281 l 5,28,-1
 406.043945312 255.59375 l 1,13,14
EndSplineSet
Substitution2: "'fina' Terminal Forms in Arabic lookup 9 subtable" uniFEC2
Substitution2: "'medi' Medial Forms in Arabic lookup 11 subtable" uniFEC4
Substitution2: "'init' Initial Forms in Arabic lookup 13 subtable" uniFEC3
EndChar

StartChar: uni0639
Encoding: 1593 1593 33
Width: 1247
VWidth: 2311
GlyphClass: 2
Flags: W
AnchorPoint: "Anchor-10" 554.725 1498.32 basechar 0
AnchorPoint: "Anchor-7" 308.709 -770.365 basechar 0
LayerCount: 2
Fore
SplineSet
97.51953125 -151.809570312 m 0,0,1
 98.580078125 48.759765625 98.580078125 48.759765625 196.629882812 187.620117188 c 0,2,3
 298.919921875 332.83984375 298.919921875 332.83984375 441.291992188 399.030273438 c 1,4,5
 336.01953125 437.780273438 336.01953125 437.780273438 273.215820312 517.368164062 c 0,6,7
 207.759765625 599.959960938 207.759765625 599.959960938 207.918945312 723.66796875 c 0,8,9
 207.759765625 837.400390625 207.759765625 837.400390625 261.828125 926.087890625 c 0,10,11
 361.459960938 1089.6796875 361.459960938 1089.6796875 583 1089.6796875 c 0,12,13
 731.400390625 1089.6796875 731.400390625 1089.6796875 880.689453125 1004.76855469 c 1,14,-1
 838.703125 851.576171875 l 1,15,16
 702.780273438 916.900390625 702.780273438 916.900390625 591.517578125 917.354492188 c 0,17,18
 480.1796875 916.900390625 480.1796875 916.900390625 424.131835938 861.124023438 c 0,19,20
 371 808.780273438 371 808.780273438 366.72265625 739.913085938 c 0,21,22
 362.51953125 675.219726562 362.51953125 675.219726562 387.50390625 631.708007812 c 0,23,24
 419.759765625 573.459960938 419.759765625 573.459960938 528.5 520.494140625 c 0,25,26
 580.879882812 495.01953125 580.879882812 495.01953125 604.50390625 490.787109375 c 0,27,28
 636 485.48046875 636 485.48046875 780.690429688 508.799804688 c 24,29,30
 893.580078125 526.8203125 893.580078125 526.8203125 1005.98242188 544.71484375 c 1,31,-1
 1005.98242188 378.348632812 l 1,32,33
 753.66015625 360.400390625 753.66015625 360.400390625 545.72265625 253.267578125 c 0,34,35
 265 108.120117188 265 108.120117188 266.14453125 -148.576171875 c 24,36,37
 267.120117188 -294.6796875 267.120117188 -294.6796875 380.045898438 -385.078125 c 0,38,39
 493.959960938 -477 493.959960938 -477 777.795898438 -477.551757812 c 4,40,41
 967.780273438 -478.059570312 967.780273438 -478.059570312 1100.33105469 -440.307617188 c 5,42,-1
 1154.33984375 -595.719726562 l 5,43,44
 987.919921875 -646.599609375 987.919921875 -646.599609375 779.967773438 -646.745117188 c 0,45,46
 372.059570312 -646.599609375 372.059570312 -646.599609375 207.927734375 -458.977539062 c 0,47,48
 97.51953125 -332.83984375 97.51953125 -332.83984375 97.51953125 -151.809570312 c 0,0,1
EndSplineSet
Substitution2: "'fina' Terminal Forms in Arabic lookup 9 subtable" uniFECA
Substitution2: "'medi' Medial Forms in Arabic lookup 11 subtable" uniFECC
Substitution2: "'init' Initial Forms in Arabic lookup 13 subtable" uniFECB
EndChar

StartChar: afii57440
Encoding: 1600 1600 35
Width: 686
VWidth: 2311
GlyphClass: 2
Flags: W
AnchorPoint: "Anchor-10" 343.44 1354.15 basechar 0
AnchorPoint: "Anchor-7" 343.44 -120.31 basechar 0
LayerCount: 2
Fore
SplineSet
692.620117188 0 m 6,0,-1
 -4 0 l 2,1,2
 -51.6240234375 0 -51.6240234375 0 -51.6240234375 74 c 2,3,-1
 -51.6240234375 108 l 2,4,5
 -52.0023412704 185.479492188 -52.0023412704 185.479492188 -3.6240234375 185.479492188 c 2,6,-1
 693.375976562 185.479492188 l 6,7,8
 741.375976562 184.996214561 741.375976562 184.996214561 741.375976562 108 c 6,9,-1
 741.375976562 74 l 6,10,11
 741 0 741 0 692.620117188 0 c 6,0,-1
EndSplineSet
EndChar

StartChar: uni0643
Encoding: 1603 1603 38
Width: 1876
VWidth: 2311
GlyphClass: 2
Flags: W
AnchorPoint: "Anchor-10" 566.04 1481.35 basechar 0
AnchorPoint: "Anchor-7" 510.92 -233.73 basechar 0
LayerCount: 2
Fore
SplineSet
732.576171875 784.887695312 m 2,0,1
 800.572265625 775.920898438 800.572265625 775.920898438 859.859375 776.087890625 c 0,2,3
 926.440429688 775.919921875 926.440429688 775.919921875 966.28125 791.7421875 c 0,4,5
 1044.09960938 822.559570312 1044.09960938 822.559570312 1043.51757812 869.092773438 c 0,6,7
 1043.04003906 892.51953125 1043.04003906 892.51953125 1023.1484375 907.950195312 c 0,8,9
 1002.75976562 923.259765625 1002.75976562 923.259765625 955.814453125 931.329101562 c 0,10,11
 886.16015625 942.33984375 886.16015625 942.33984375 850.266601562 981.633789062 c 0,12,13
 814.080078125 1021.83984375 814.080078125 1021.83984375 815.541015625 1076.2421875 c 0,14,15
 818.3203125 1178.71972656 818.3203125 1178.71972656 907.43359375 1224.10742188 c 0,16,17
 990.977539062 1266.63769531 990.977539062 1266.63769531 1112.80957031 1274.359375 c 2,18,-1
 1129.71582031 1275.43066406 l 1,19,-1
 1129.71582031 1182.32324219 l 1,20,-1
 1114.98535156 1181.23632812 l 2,21,22
 1039.86035156 1175.54003906 1039.86035156 1175.54003906 1002.64746094 1161.69726562 c 0,23,24
 911.599609375 1127.83984375 911.599609375 1127.83984375 911.950195312 1079.66308594 c 0,25,26
 911.599609375 1037.74023438 911.599609375 1037.74023438 954.403320312 1023.06542969 c 0,27,28
 978.379882812 1014.41992188 978.379882812 1014.41992188 1024.33691406 1007.75097656 c 0,29,30
 1139.5 990.040039062 1139.5 990.040039062 1139.55273438 876.780273438 c 0,31,32
 1139.5 779.099609375 1139.5 779.099609375 1027.10253906 715.190429688 c 0,33,34
 919.334960938 653.141601562 919.334960938 653.141601562 727.874023438 685.163085938 c 2,35,-1
 714.59765625 687.383789062 l 1,36,-1
 714.59765625 787.258789062 l 1,37,-1
 732.576171875 784.887695312 l 2,0,1
1597.86132812 465.981445312 m 2,38,-1
 1560.67285156 1468.8203125 l 5,39,-1
 1737.65820312 1537.03125 l 5,40,-1
 1737.65820312 434.375976562 l 2,41,42
 1738 416 1738 416 1734.84082031 374.500976562 c 0,43,44
 1719 146 1719 146 1409.84472656 49.197265625 c 0,45,46
 1258 2 1258 2 913.120117188 1.0595703125 c 0,47,48
 567 0 567 0 398.3828125 70.611328125 c 0,49,50
 125 187 125 187 101.770507812 462.961914062 c 0,51,52
 90 606 90 606 131.094726562 751.975585938 c 1,53,-1
 273.330078125 714.446289062 l 1,54,55
 250 567 250 567 252.846679688 507.09375 c 0,56,57
 267 227 267 227 640.66015625 195.389648438 c 0,58,59
 809 181 809 181 1195.43359375 197.786132812 c 0,60,61
 1607 215 1607 215 1597.86132812 465.981445312 c 2,38,-1
EndSplineSet
Substitution2: "'fina' Terminal Forms in Arabic lookup 9 subtable" uniFEDA
Substitution2: "'medi' Medial Forms in Arabic lookup 11 subtable" uniFEDC
Substitution2: "'init' Initial Forms in Arabic lookup 13 subtable" uniFEDB
EndChar

StartChar: uni0644
Encoding: 1604 1604 39
Width: 1369
VWidth: 2311
GlyphClass: 2
Flags: W
AnchorPoint: "Anchor-10" 492.91 1083.85 basechar 0
AnchorPoint: "Anchor-7" 383.879 -662.093 basechar 0
LayerCount: 2
Fore
SplineSet
1228.54003906 101.610351562 m 1,0,1
 1233 -489 1233 -489 684.250976562 -486.970703125 c 0,2,3
 284 -486 284 -486 151.826171875 -185.189453125 c 0,4,5
 86 -35 86 -35 117.083007812 183.357421875 c 0,6,7
 138 326 138 326 199.611328125 464.333984375 c 1,8,-1
 358.346679688 409.842773438 l 1,9,10
 279 217 279 217 278.099609375 65.845703125 c 0,11,12
 278 33 278 33 282.206054688 0.89453125 c 0,13,14
 326 -313 326 -313 686.596679688 -313.924804688 c 0,15,16
 1091.15378087 -315.00040886 1091.15378087 -315.00040886 1082.83203125 142.38671875 c 2,17,-1
 1058.77539062 1464.60839844 l 5,18,-1
 1231.49707031 1536.171875 l 5,19,-1
 1231.49707031 406.279296875 l 2,20,21
 1231 203 1231 203 1228.54003906 101.610351562 c 1,0,1
EndSplineSet
Substitution2: "'fina' Terminal Forms in Arabic lookup 9 subtable" uniFEDE
Substitution2: "'medi' Medial Forms in Arabic lookup 11 subtable" uniFEE0
Substitution2: "'init' Initial Forms in Arabic lookup 13 subtable" uniFEDF
EndChar

StartChar: uni0645
Encoding: 1605 1605 40
Width: 1190
VWidth: 2311
GlyphClass: 2
Flags: W
AnchorPoint: "Anchor-10" 605.79 1069.87 basechar 0
AnchorPoint: "Anchor-7" 168.148 -770.569 basechar 0
LayerCount: 2
Fore
SplineSet
481.247070312 347.497070312 m 2,0,1
 481.224730277 337.988072517 481.224730277 337.988072517 584.241210938 332.520507812 c 0,2,3
 687 328 687 328 724.532226562 327.5390625 c 0,4,5
 860 328 860 328 891.1875 347.874023438 c 0,6,7
 912 362 912 362 928.841796875 398.05078125 c 0,8,9
 993.344826696 535.60284946 993.344826696 535.60284946 702.887695312 655.171875 c 0,10,11
 631 685 631 685 573 661.826171875 c 0,12,13
 523 642 523 642 503.182617188 579.3203125 c 0,14,15
 488 531 488 531 481.388671875 407.76953125 c 1,16,-1
 481.247070312 347.497070312 l 2,0,1
972.325195312 178.567382812 m 1,17,18
 903 152 903 152 719.388671875 157.333007812 c 0,19,20
 535 163 535 163 413.092773438 163.240234375 c 0,21,22
 222.403549334 163.000507326 222.403549334 163.000507326 236.454101562 -125.125 c 2,23,-1
 259.916015625 -606.243164062 l 1,24,-1
 95.400390625 -699.765625 l 1,25,-1
 95.400390625 -76.3203125 l 2,26,27
 95 122 95 122 175.5078125 224.471679688 c 0,28,29
 229 293 229 293 315.969726562 307.750976562 c 1,30,31
 300 626 300 626 432.573242188 752.119140625 c 4,32,33
 524 838 524 838 635 837.322021906 c 0,34,35
 701 837 701 837 771.418945312 803.024414062 c 0,36,37
 1145 625 1145 625 1088.92773438 410.481445312 c 0,38,39
 1028 176 1028 176 972.325195312 178.567382812 c 1,17,18
EndSplineSet
Substitution2: "'init' Initial Forms in Arabic lookup 13 subtable" uniFEE3
Substitution2: "'medi' Medial Forms in Arabic lookup 11 subtable" uniFEE4
Substitution2: "'fina' Terminal Forms in Arabic lookup 9 subtable" uniFEE2
EndChar

StartChar: uni0647
Encoding: 1607 1607 42
Width: 965
VWidth: 2311
GlyphClass: 2
Flags: W
AnchorPoint: "Anchor-10" 448.3 1166.62 basechar 0
AnchorPoint: "Anchor-7" 356.016 -189.273 basechar 0
LayerCount: 2
Fore
SplineSet
469.063476562 660.86328125 m 1,0,1
 268.1796875 456.860351562 268.1796875 456.860351562 269.057617188 321.1796875 c 0,2,3
 270.299804688 157.940429688 270.299804688 157.940429688 487.599609375 157.59375 c 0,4,5
 691.120117188 157.940429688 691.120117188 157.940429688 692.4921875 311.639648438 c 0,6,7
 694.299804688 449.440429688 694.299804688 449.440429688 469.063476562 660.86328125 c 1,0,1
488.944335938 3.7421875 m 0,8,9
 108.120117188 4.240234375 108.120117188 4.240234375 105.186523438 296.799804688 c 0,10,11
 102.92578125 520.561523438 102.92578125 520.561523438 348.345703125 772.205078125 c 5,12,-1
 308.557617188 806.41796875 l 1,13,-1
 413.400390625 932.799804688 l 1,14,15
 704.900390625 720.799804688 704.900390625 720.799804688 806.25 505.7734375 c 0,16,17
 861.780273438 387.959960938 861.780273438 387.959960938 862.06640625 296.799804688 c 0,18,19
 864.959960938 3.1796875 864.959960938 3.1796875 488.944335938 3.7421875 c 0,8,9
EndSplineSet
Substitution2: "'fina' Terminal Forms in Arabic lookup 9 subtable" uniFEEA
Substitution2: "'medi' Medial Forms in Arabic lookup 11 subtable" uniFEEC
Substitution2: "'init' Initial Forms in Arabic lookup 13 subtable" uniFEEB
EndChar

StartChar: uni0648
Encoding: 1608 1608 43
Width: 891
VWidth: 2311
GlyphClass: 2
Flags: W
AnchorPoint: "Anchor-10" 382.959 1097.28 basechar 0
AnchorPoint: "Anchor-7" 557.763 -621.63 basechar 0
LayerCount: 2
Fore
SplineSet
441.108398438 547.790039062 m 0,0,1
 306 544 306 544 260.57421875 364.853515625 c 0,2,3
 208 160 208 160 438.83984375 160.7578125 c 0,4,5
 560 161 560 161 630.270507812 214.696289062 c 1,6,7
 630 272 630 272 626 309 c 4,8,9
 598 553 598 553 441.108398438 547.790039062 c 0,0,1
727.16015625 533.513671875 m 0,10,11
 790.759765625 401.740234375 790.759765625 401.740234375 790.135742188 182.3203125 c 0,12,13
 788.639648438 -132.5 788.639648438 -132.5 662.885742188 -295.151367188 c 0,14,15
 478.110351562 -534.173828125 478.110351562 -534.173828125 102.82421875 -537.419921875 c 2,16,-1
 100.909179688 -537.436523438 l 1,17,-1
 25.548828125 -397.798828125 l 1,18,19
 578.759765625 -364.639648438 578.759765625 -364.639648438 622.213867188 39.9794921875 c 1,20,21
 562.860351562 -8.48046875 562.860351562 -8.48046875 414.49609375 -8.74609375 c 0,22,23
 322.240234375 -8.48046875 322.240234375 -8.48046875 254.400390625 21.7412109375 c 0,24,25
 102.8203125 90.099609375 102.8203125 90.099609375 103.879882812 275.599609375 c 0,26,27
 104.940429688 382.66015625 104.940429688 382.66015625 153.642578125 491.83984375 c 0,28,29
 188.6796875 571.33984375 188.6796875 571.33984375 245.475585938 628.931640625 c 0,30,31
 359.33984375 745.1796875 359.33984375 745.1796875 518.71875 711.987304688 c 0,32,33
 655.080078125 683.700195312 655.080078125 683.700195312 727.16015625 533.513671875 c 0,10,11
EndSplineSet
Substitution2: "'fina' Terminal Forms in Arabic lookup 9 subtable" uniFEEE
EndChar

StartChar: uni0649
Encoding: 1609 1609 44
Width: 1470
VWidth: 2311
GlyphClass: 2
Flags: W
AnchorPoint: "Anchor-10" 360.105 918.314 basechar 0
AnchorPoint: "Anchor-7" 300.429 -599.4 basechar 0
LayerCount: 2
Fore
SplineSet
1041.74414062 159.737304688 m 1,0,-1
 1100.40234375 160.900390625 l 1,1,2
 1207 161 1207 161 1268.38964844 135.749023438 c 0,3,4
 1374 93 1374 93 1373.4375 -23.2724609375 c 0,5,6
 1374 -145 1374 -145 1297.17297427 -247 c 0,7,8
 1120 -484 1120 -484 717.80859375 -484.716796875 c 4,9,10
 513 -485 513 -485 383.521484375 -428.900390625 c 4,11,12
 98 -304 98 -304 97.111328125 51 c 4,13,14
 96 272 96 272 212.884765625 521.415039062 c 5,15,-1
 360 461 l 5,16,17
 267 250 267 250 262.976948723 73 c 4,18,19
 254 -312 254 -312 726.275390625 -308.954101562 c 4,20,21
 1019 -307 1019 -307 1174 -158.46621175 c 0,22,23
 1218 -116 1218 -116 1220.52539062 -73.3251953125 c 0,24,25
 1224.0248812 -3.50357179726 1224.0248812 -3.50357179726 1138.52734375 -3.970703125 c 2,26,-1
 1045.04785156 -4.4814453125 l 1,27,28
 790 0 790 0 774.731445312 158.400390625 c 0,29,30
 767 234 767 234 793.901367188 314.505859375 c 0,31,32
 854 490 854 490 987.522460938 603.444335938 c 0,33,34
 1126 721 1126 721 1281.3515625 722.516601562 c 0,35,36
 1335 723 1335 723 1369.27050781 714.600585938 c 1,37,-1
 1309.35449219 532.115234375 l 1,38,-1
 1305.15820312 532.124023438 l 2,39,40
 1137 532 1137 532 1003.08300781 370.0234375 c 0,41,42
 946 301 946 301 934.919921875 230.549804688 c 128,-1,43
 924 160 924 160 1041.74414062 159.737304688 c 1,0,-1
EndSplineSet
Substitution2: "'fina' Terminal Forms in Arabic lookup 9 subtable" uniFEF0
Substitution2: "'medi' Medial Forms in Arabic lookup 11 subtable" uniFBE9
Substitution2: "'init' Initial Forms in Arabic lookup 13 subtable" uniFBE8
EndChar

StartChar: uni064B
Encoding: 1611 1611 46
Width: -28
VWidth: 2442
GlyphClass: 4
Flags: W
AnchorPoint: "Anchor-10" 646.09 1178.53 mark 0
AnchorPoint: "Anchor-9" 646.09 1178.53 mark 0
AnchorPoint: "Anchor-1" 603.69 1760.43 basemark 0
AnchorPoint: "Anchor-1" 646.09 1178.53 mark 0
LayerCount: 2
Fore
SplineSet
320.13671875 1121.4921875 m 1,0,-1
 320.13671875 1243.11621094 l 1,1,-1
 854.020507812 1461.42480469 l 1,2,-1
 854.020507812 1339.80078125 l 1,3,-1
 320.13671875 1121.4921875 l 1,0,-1
320.13671875 1411.40625 m 1,4,-1
 320.13671875 1533.03027344 l 1,5,-1
 854.020507812 1751.33886719 l 1,6,-1
 854.020507812 1629.71484375 l 1,7,-1
 320.13671875 1411.40625 l 1,4,-1
EndSplineSet
EndChar

StartChar: uni064C
Encoding: 1612 1612 47
Width: -28
VWidth: 2442
GlyphClass: 4
Flags: W
AnchorPoint: "Anchor-10" 717.018 1289.11 mark 0
AnchorPoint: "Anchor-9" 717.018 1289.11 mark 0
AnchorPoint: "Anchor-1" 602.062 2022.85 basemark 0
AnchorPoint: "Anchor-1" 717.018 1289.11 mark 0
LayerCount: 2
Fore
SplineSet
691.814453125 1836.8359375 m 0,0,1
 604.200195312 1836.98046875 604.200195312 1836.98046875 603.631835938 1758.15917969 c 0,2,3
 603.139648438 1705.54003906 603.139648438 1705.54003906 669.342773438 1674.83691406 c 0,4,5
 694.299804688 1663.13964844 694.299804688 1663.13964844 742.034179688 1650.19335938 c 1,6,-1
 747.299804688 1662.08007812 l 2,7,8
 767.440429688 1707.66015625 767.440429688 1707.66015625 768.172851562 1752.28222656 c 0,9,10
 766.241210938 1836.97558594 766.241210938 1836.97558594 691.814453125 1836.8359375 c 0,0,1
341.43359375 1606.42089844 m 1,11,12
 343.440429688 1369.51953125 343.440429688 1369.51953125 476.517578125 1369.27246094 c 0,13,14
 549.080078125 1369.51953125 549.080078125 1369.51953125 628.334960938 1446.45214844 c 0,15,16
 674.28515625 1490.47949219 674.28515625 1490.47949219 701.514648438 1544.95019531 c 2,17,-1
 712.3828125 1566.69042969 l 1,18,19
 660.379882812 1577.28027344 660.379882812 1577.28027344 620.099609375 1597.94726562 c 0,20,21
 509.860351562 1653.59960938 509.860351562 1653.59960938 509.860351562 1765.95996094 c 0,22,23
 509.860351562 1827.44042969 509.860351562 1827.44042969 539.540039062 1866.66015625 c 0,24,25
 587.240234375 1931.3203125 587.240234375 1931.3203125 673.629882812 1931.3203125 c 128,-1,26
 760.01953125 1931.3203125 760.01953125 1931.3203125 810.900390625 1881.5 c 128,-1,27
 861.780273438 1831.6796875 861.780273438 1831.6796875 862.338867188 1743.78613281 c 0,28,29
 862.836914062 1701.53125 862.836914062 1701.53125 848.838867188 1657.21582031 c 2,30,-1
 841.52734375 1634.0703125 l 1,31,-1
 865.771484375 1632.79882812 l 2,32,33
 894.639648438 1631.33984375 894.639648438 1631.33984375 933.00390625 1630.56738281 c 1,34,-1
 933.00390625 1536.28613281 l 1,35,36
 888.51953125 1536.99609375 888.51953125 1536.99609375 873.34765625 1538.51855469 c 2,37,-1
 800.557617188 1545.82226562 l 1,38,39
 723.015625 1367.29980469 723.015625 1367.29980469 576.110351562 1296.37988281 c 4,40,41
 532.120117188 1275.1796875 532.120117188 1275.1796875 473.907226562 1275.10742188 c 0,42,43
 346.620117188 1275.1796875 346.620117188 1275.1796875 293.620117188 1416.16015625 c 0,44,45
 272.419921875 1472.33984375 272.419921875 1472.33984375 271.21484375 1606.42089844 c 1,46,-1
 341.43359375 1606.42089844 l 1,11,12
905.76171875 1631.57324219 m 2,47,-1
 905.65234375 1631.57910156 l 2,48,49
 905.70703125 1631.57617188 905.70703125 1631.57617188 905.76171875 1631.57324219 c 2,47,-1
EndSplineSet
EndChar

StartChar: uni064D
Encoding: 1613 1613 48
Width: -28
VWidth: 2442
GlyphClass: 4
Flags: W
AnchorPoint: "Anchor-7" 585.78 80.2715 mark 0
AnchorPoint: "Anchor-6" 585.78 80.2715 mark 0
AnchorPoint: "Anchor-0" 633.37 -497.259 basemark 0
AnchorPoint: "Anchor-0" 585.78 80.2715 mark 0
LayerCount: 2
Fore
SplineSet
325.733398438 -546.354492188 m 1,0,-1
 325.733398438 -424.729492188 l 1,1,-1
 859.6171875 -206.421875 l 1,2,-1
 859.6171875 -328.044921875 l 1,3,-1
 325.733398438 -546.354492188 l 1,0,-1
325.733398438 -256.440429688 m 1,4,-1
 325.733398438 -134.815429688 l 1,5,-1
 859.6171875 83.4921875 l 1,6,-1
 859.6171875 -38.130859375 l 1,7,-1
 325.733398438 -256.440429688 l 1,4,-1
EndSplineSet
EndChar

StartChar: uni064E
Encoding: 1614 1614 49
Width: -28
VWidth: 2442
GlyphClass: 4
Flags: W
AnchorPoint: "Anchor-10" 583.89 1439.64 mark 0
AnchorPoint: "Anchor-9" 583.89 1439.64 mark 0
AnchorPoint: "Anchor-1" 570.109 1787.3 basemark 0
AnchorPoint: "Anchor-1" 583.89 1439.64 mark 0
LayerCount: 2
Fore
SplineSet
287.674804688 1410.28710938 m 1,0,-1
 287.674804688 1531.91113281 l 1,1,-1
 821.55859375 1750.22070312 l 1,2,-1
 821.55859375 1628.59570312 l 1,3,-1
 287.674804688 1410.28710938 l 1,0,-1
EndSplineSet
EndChar

StartChar: uni064F
Encoding: 1615 1615 50
Width: -28
VWidth: 2442
GlyphClass: 4
Flags: W
AnchorPoint: "Anchor-10" 652.561 1357.87 mark 0
AnchorPoint: "Anchor-9" 652.561 1357.87 mark 0
AnchorPoint: "Anchor-1" 579.311 2038.59 basemark 0
AnchorPoint: "Anchor-1" 652.561 1357.87 mark 0
LayerCount: 2
Fore
SplineSet
872.090820312 1552.078125 m 1,0,1
 786.51953125 1552.90039062 786.51953125 1552.90039062 732.1796875 1561.40039062 c 1,2,3
 676.280273438 1482.94042969 676.280273438 1482.94042969 597.180664062 1434.17871094 c 0,4,5
 471.700195312 1355.74023438 471.700195312 1355.74023438 329.66015625 1350.44042969 c 1,6,-1
 329.66015625 1444.50585938 l 1,7,8
 539.540039062 1476.58007812 539.540039062 1476.58007812 626.756835938 1589.81445312 c 5,9,10
 520.6953125 1613.64746094 520.6953125 1613.64746094 475.79296875 1678.58496094 c 0,11,12
 446.259765625 1719.3203125 446.259765625 1719.3203125 446.158203125 1772.08886719 c 0,13,14
 446.259765625 1858.1796875 446.259765625 1858.1796875 517.280273438 1911.1796875 c 0,15,16
 566.040039062 1947.21972656 566.040039062 1947.21972656 624.30078125 1946.73925781 c 0,17,18
 698.540039062 1947.21972656 698.540039062 1947.21972656 750.109375 1896.50195312 c 0,19,20
 801.360351562 1846.51953125 801.360351562 1846.51953125 801.42578125 1759.52441406 c 0,21,22
 801.360351562 1723.82617188 801.360351562 1723.82617188 785.506835938 1672.88085938 c 2,23,-1
 778.372070312 1649.95507812 l 1,24,-1
 802.34765625 1648.53808594 l 2,25,26
 842.700195312 1646.1796875 842.700195312 1646.1796875 872.090820312 1646.20996094 c 1,27,-1
 872.090820312 1552.078125 l 1,0,1
681.12109375 1665.93261719 m 1,28,-1
 684.759765625 1673.74023438 l 2,29,30
 708.080078125 1723.55957031 708.080078125 1723.55957031 708.321289062 1765.90332031 c 0,31,32
 708.080078125 1808.36035156 708.080078125 1808.36035156 680.872070312 1830.84863281 c 0,33,34
 654.01953125 1852.87988281 654.01953125 1852.87988281 623.030273438 1852.57421875 c 0,35,36
 591.48046875 1852.87988281 591.48046875 1852.87988281 568.16015625 1834.95507812 c 0,37,38
 541.66015625 1812.59960938 541.66015625 1812.59960938 540.599609375 1777.62011719 c 0,39,40
 539.6171875 1722.56640625 539.6171875 1722.56640625 608.4296875 1690.57519531 c 0,41,42
 642.360351562 1674.79980469 642.360351562 1674.79980469 681.12109375 1665.93261719 c 1,28,-1
EndSplineSet
EndChar

StartChar: uni0650
Encoding: 1616 1616 51
Width: -28
VWidth: 2442
GlyphClass: 4
Flags: W
AnchorPoint: "Anchor-7" 601.435 -17.1719 mark 0
AnchorPoint: "Anchor-6" 601.435 -17.1719 mark 0
AnchorPoint: "Anchor-0" 651.925 -346.561 basemark 0
AnchorPoint: "Anchor-0" 601.435 -17.1719 mark 0
LayerCount: 2
Fore
SplineSet
336.927734375 -373.97265625 m 1,0,-1
 336.927734375 -252.348632812 l 1,1,-1
 870.810546875 -34.0400390625 l 1,2,-1
 870.810546875 -155.665039062 l 1,3,-1
 336.927734375 -373.97265625 l 1,0,-1
EndSplineSet
EndChar

StartChar: uni0651
Encoding: 1617 1617 52
Width: -28
VWidth: 2442
GlyphClass: 4
Flags: W
AnchorPoint: "Anchor-10" 646.09 1473.63 mark 0
AnchorPoint: "Anchor-9" 646.09 1473.63 mark 0
AnchorPoint: "Anchor-1" 613.578 1950.76 basemark 0
AnchorPoint: "Anchor-1" 646.09 1473.63 mark 0
LayerCount: 2
Fore
SplineSet
612.051757812 1623.83691406 m 1,0,1
 579.8203125 1449.01953125 579.8203125 1449.01953125 426.6328125 1448.88867188 c 0,2,3
 273.48046875 1449.01953125 273.48046875 1449.01953125 272.618164062 1646.06640625 c 0,4,5
 272.419921875 1685.40039062 272.419921875 1685.40039062 289.075195312 1795.25683594 c 1,6,-1
 368.6953125 1795.25683594 l 1,7,8
 355.099609375 1700.24023438 355.099609375 1700.24023438 355.099609375 1670.55957031 c 0,9,10
 355.099609375 1550.78027344 355.099609375 1550.78027344 439.846679688 1550.86230469 c 0,11,12
 556.5 1550.78027344 556.5 1550.78027344 562.44140625 1703.89941406 c 0,13,14
 563.919921875 1745.8203125 563.919921875 1745.8203125 563.787109375 1795.76367188 c 0,15,16
 563.919921875 1845.45996094 563.919921875 1845.45996094 563.775390625 1854.953125 c 1,17,-1
 642.490234375 1854.953125 l 1,18,19
 644.48046875 1816.83984375 644.48046875 1816.83984375 644.784179688 1765.95117188 c 0,20,21
 644.48046875 1616.71582031 644.48046875 1616.71582031 774.282226562 1616.93066406 c 2,22,-1
 774.952148438 1616.93164062 l 2,23,24
 853.299804688 1617.55957031 853.299804688 1617.55957031 853.536132812 1743.16699219 c 0,25,26
 854.360351562 1855 854.360351562 1855 841.982421875 1921.07519531 c 1,27,-1
 926.379882812 1921.07519531 l 1,28,29
 938.099609375 1836.98046875 938.099609375 1836.98046875 938.099609375 1737.33984375 c 0,30,31
 938.099609375 1575.16015625 938.099609375 1575.16015625 848.693359375 1536.91210938 c 0,32,33
 814.080078125 1522.16015625 814.080078125 1522.16015625 780.16015625 1521.09960938 c 0,34,35
 704.900390625 1517.91992188 704.900390625 1517.91992188 665.6796875 1546.54003906 c 0,36,37
 617.98046875 1581.51953125 617.98046875 1581.51953125 612.051757812 1623.83691406 c 1,0,1
EndSplineSet
EndChar

StartChar: uni0652
Encoding: 1618 1618 53
Width: -28
VWidth: 2442
GlyphClass: 4
Flags: W
AnchorPoint: "Anchor-10" 623.839 1258.96 mark 0
AnchorPoint: "Anchor-9" 623.839 1258.96 mark 0
AnchorPoint: "Anchor-1" 608.168 1900.91 basemark 0
AnchorPoint: "Anchor-1" 623.839 1258.96 mark 0
LayerCount: 2
Fore
SplineSet
749.78515625 1544.52832031 m 0,0,1
 749.78515625 1596.12988281 749.78515625 1596.12988281 713.698242188 1632.21777344 c 128,-1,2
 677.614257812 1668.30566406 677.614257812 1668.30566406 625.278320312 1668.30566406 c 0,3,4
 572.208984375 1668.30566406 572.208984375 1668.30566406 536.491210938 1632.58691406 c 128,-1,5
 500.7734375 1596.86914062 500.7734375 1596.86914062 500.7734375 1544.52832031 c 0,6,7
 500.7734375 1491.45996094 500.7734375 1491.45996094 536.491210938 1455.74316406 c 128,-1,8
 572.208984375 1420.02539062 572.208984375 1420.02539062 625.278320312 1420.02539062 c 0,9,10
 677.616210938 1420.02539062 677.616210938 1420.02539062 713.698242188 1456.11328125 c 128,-1,11
 749.78515625 1492.19921875 749.78515625 1492.19921875 749.78515625 1544.52832031 c 0,0,1
826.182617188 1544.65234375 m 128,-1,13
 826.182617188 1460.37792969 826.182617188 1460.37792969 768 1401.82128906 c 128,-1,14
 709.854492188 1343.30957031 709.854492188 1343.30957031 625.625976562 1343.30957031 c 0,15,16
 597.474609375 1343.30957031 597.474609375 1343.30957031 572.31640625 1349.79882812 c 128,-1,17
 547.158203125 1356.2890625 547.158203125 1356.2890625 524.915039062 1369.28320312 c 128,-1,18
 502.673828125 1382.27734375 502.673828125 1382.27734375 483.251953125 1401.82128906 c 0,19,20
 454.104492188 1431.15527344 454.104492188 1431.15527344 439.5859375 1466.78613281 c 128,-1,21
 425.067382812 1502.41796875 425.067382812 1502.41796875 425.067382812 1544.65234375 c 0,22,23
 425.067382812 1628.89746094 425.067382812 1628.89746094 483.21875 1687.05957031 c 128,-1,24
 541.370117188 1745.20996094 541.370117188 1745.20996094 625.625976562 1745.20996094 c 128,-1,25
 709.879882812 1745.20996094 709.879882812 1745.20996094 768.030273438 1687.05957031 c 128,-1,12
 826.182617188 1628.89746094 826.182617188 1628.89746094 826.182617188 1544.65234375 c 128,-1,13
EndSplineSet
EndChar

StartChar: uni0653
Encoding: 1619 1619 54
Width: 0
VWidth: 2317
GlyphClass: 4
Flags: W
AnchorPoint: "Anchor-10" 431.25 1353.11 mark 0
AnchorPoint: "Anchor-9" 431.25 1353.11 mark 0
AnchorPoint: "Anchor-1" 469.41 1706.53 basemark 0
AnchorPoint: "Anchor-1" 431.25 1353.11 mark 0
LayerCount: 2
Fore
SplineSet
169.686523438 1315.50390625 m 1,0,-1
 78.4404296875 1407.08007812 l 5,1,2
 186.113162572 1586.18824023 186.113162572 1586.18824023 331.780273438 1558.66015625 c 6,3,-1
 466.400390625 1533.21972656 l 6,4,5
 543 1519 543 1519 661.440429688 1590.45996094 c 5,6,-1
 726.099609375 1486.12011719 l 1,7,8
 625.91885998 1372.90830565 625.91885998 1372.90830565 456.860351562 1401.3203125 c 2,9,-1
 330.719726562 1422.51953125 l 2,10,11
 229 1440 229 1440 169.686523438 1315.50390625 c 1,0,-1
EndSplineSet
EndChar

StartChar: uni0657
Encoding: 1623 1623 57
Width: 0
VWidth: 2317
GlyphClass: 4
Flags: W
AnchorPoint: "Anchor-10" 580.71 1356.27 mark 0
AnchorPoint: "Anchor-9" 580.71 1356.27 mark 0
AnchorPoint: "Anchor-1" 580.71 2093.5 basemark 0
AnchorPoint: "Anchor-1" 580.71 1356.27 mark 0
LayerCount: 2
Fore
SplineSet
531.216796875 1776.08300781 m 2,0,1
 539.627929688 1774.21777344 539.627929688 1774.21777344 559.622070312 1763.69140625 c 0,2,3
 674.6796875 1704.03515625 674.6796875 1704.03515625 674.6796875 1604.66015625 c 0,4,5
 674.6796875 1512.85351562 674.6796875 1512.85351562 601.931640625 1458.03027344 c 0,6,7
 573.84765625 1436.96777344 573.84765625 1436.96777344 506.987304688 1436.96777344 c 0,8,9
 429.795898438 1436.96777344 429.795898438 1436.96777344 388.4765625 1477.25878906 c 0,10,11
 330.221679688 1534.4453125 330.221679688 1534.4453125 330.221679688 1618.27050781 c 0,12,13
 330.221679688 1652.4765625 330.221679688 1652.4765625 345.478515625 1701.51171875 c 2,14,-1
 350.709960938 1718.32324219 l 1,15,-1
 333.127929688 1719.36230469 l 2,16,17
 313.623046875 1720.50683594 313.623046875 1720.50683594 293.005859375 1721.08007812 c 0,18,19
 279.258789062 1721.4609375 279.258789062 1721.4609375 263.303710938 1721.59863281 c 1,20,-1
 263.303710938 1818.78027344 l 1,21,22
 295.348632812 1818.44042969 295.348632812 1818.44042969 324.599609375 1816.6171875 c 0,23,24
 358.3671875 1814.359375 358.3671875 1814.359375 389.83203125 1810.98925781 c 2,25,-1
 397.891601562 1810.12988281 l 1,26,-1
 402.561523438 1816.75488281 l 2,27,28
 449.684570312 1883.609375 449.684570312 1883.609375 525.548828125 1929.78320312 c 0,29,30
 739.23046875 2061.18066406 739.23046875 2061.18066406 898.1171875 2067 c 1,31,-1
 898.1171875 1969.85058594 l 1,32,33
 728.229492188 1964.93261719 728.229492188 1964.93261719 573.3515625 1843.48828125 c 0,34,35
 546.47265625 1822.44726562 546.47265625 1822.44726562 524.217773438 1799.03222656 c 2,36,-1
 507.443359375 1781.37207031 l 1,37,-1
 531.216796875 1776.08300781 l 2,0,1
450.430664062 1702 m 1,38,-1
 438.74609375 1674.73632812 l 2,39,40
 427.423828125 1648.32128906 427.423828125 1648.32128906 427.423828125 1618.27050781 c 0,41,42
 427.423828125 1573.20996094 427.423828125 1573.20996094 451.724609375 1553.19726562 c 0,43,44
 474.823242188 1534.16992188 474.823242188 1534.16992188 502.450195312 1534.16992188 c 0,45,46
 532.583984375 1534.16992188 532.583984375 1534.16992188 549.453125 1547.25 c 0,47,48
 575.208984375 1566.63769531 575.208984375 1566.63769531 575.208984375 1604.66015625 c 0,49,50
 575.208984375 1655.953125 575.208984375 1655.953125 515.5078125 1679.83496094 c 0,51,52
 492.30859375 1689.12011719 492.30859375 1689.12011719 462.270507812 1698.35351562 c 2,53,-1
 450.430664062 1702 l 1,38,-1
EndSplineSet
EndChar

StartChar: uni065A
Encoding: 1626 1626 58
Width: 1160
VWidth: 2317
GlyphClass: 4
Flags: W
AnchorPoint: "Anchor-10" 580.71 1356.27 mark 0
AnchorPoint: "Anchor-9" 580.71 1356.27 mark 0
AnchorPoint: "Anchor-1" 578.442 1866.66 basemark 0
AnchorPoint: "Anchor-1" 580.71 1356.27 mark 0
LayerCount: 2
Fore
SplineSet
504.59375 1440.37011719 m 1,0,-1
 299.91015625 1782.55957031 l 1,1,-1
 425.889648438 1782.55957031 l 1,2,-1
 580.709960938 1550.32421875 l 1,3,-1
 735.529296875 1782.55957031 l 1,4,-1
 861.510742188 1782.55957031 l 1,5,-1
 656.825195312 1440.37011719 l 1,6,-1
 504.59375 1440.37011719 l 1,0,-1
EndSplineSet
EndChar

StartChar: afii57392
Encoding: 1632 1632 59
Width: 826
VWidth: 2311
GlyphClass: 2
Flags: W
LayerCount: 2
Fore
SplineSet
312.130859375 550.768554688 m 132,-1,1
 312.130859375 508.778320312 312.130859375 508.778320312 341.775390625 478.962890625 c 132,-1,2
 371.40234375 449.162109375 371.40234375 449.162109375 413.114257812 449.162109375 c 132,-1,3
 454.82421875 449.162109375 454.82421875 449.162109375 484.453125 478.962890625 c 132,-1,4
 514.096679688 508.776367188 514.096679688 508.776367188 514.096679688 550.768554688 c 132,-1,5
 514.096679688 592.758789062 514.096679688 592.758789062 484.454101562 622.576171875 c 132,-1,6
 454.828125 652.377929688 454.828125 652.377929688 413.114257812 652.377929688 c 132,-1,7
 371.40234375 652.377929688 371.40234375 652.377929688 341.774414062 622.576171875 c 132,-1,0
 312.130859375 592.759765625 312.130859375 592.759765625 312.130859375 550.768554688 c 132,-1,1
150.469726562 553.634765625 m 132,-1,9
 150.469726562 662.8046875 150.469726562 662.8046875 227.5390625 740.32421875 c 132,-1,10
 304.56640625 817.801757812 304.56640625 817.801757812 413.010742188 817.801757812 c 132,-1,11
 521.459960938 817.801757812 521.459960938 817.801757812 598.483398438 740.32421875 c 132,-1,12
 675.55078125 662.802734375 675.55078125 662.802734375 675.55078125 553.634765625 c 132,-1,13
 675.55078125 444.459960938 675.55078125 444.459960938 598.482421875 366.948242188 c 132,-1,14
 521.450195312 289.471679688 521.450195312 289.471679688 413.010742188 289.471679688 c 132,-1,15
 304.565429688 289.471679688 304.565429688 289.471679688 227.540039062 366.948242188 c 132,-1,8
 150.469726562 444.46484375 150.469726562 444.46484375 150.469726562 553.634765625 c 132,-1,9
EndSplineSet
EndChar

StartChar: afii57393
Encoding: 1633 1633 60
Width: 776
VWidth: 2311
GlyphClass: 2
Flags: W
LayerCount: 2
Fore
SplineSet
564.981445312 9.009765625 m 5,0,-1
 392.615234375 9.009765625 l 5,1,-1
 392.609375 12.18359375 l 6,2,3
 391.733398438 473.578125 391.733398438 473.578125 344.447265625 778.563476562 c 132,-1,4
 297.171875 1083.48144531 297.171875 1083.48144531 159.887695312 1378.05957031 c 5,5,-1
 313.008789062 1452.61914062 l 5,6,7
 429.465820312 1260.28808594 429.465820312 1260.28808594 509.578125 891.765625 c 4,8,9
 562.6484375 647.637695312 562.6484375 647.637695312 564.969726562 12.201171875 c 6,10,-1
 564.981445312 9.009765625 l 5,0,-1
EndSplineSet
EndChar

StartChar: afii57394
Encoding: 1634 1634 61
Width: 1136
VWidth: 2170
GlyphClass: 2
Flags: W
LayerCount: 2
Fore
SplineSet
249.240234375 1453.38085938 m 1,0,1
 377 1161.69433594 l 5,2,3
 436 1062 436 1062 598.440429688 1062.80761719 c 0,4,5
 755 1064 755 1064 824.709960938 1220.48730469 c 0,6,7
 854 1287 854 1287 876.360351562 1452.25097656 c 1,8,-1
 1039.11230469 1412.66113281 l 1,9,10
 1025 1224 1025 1224 968.73828125 1103.3203125 c 0,11,12
 866 881 866 881 599.959960938 881.840820312 c 0,13,14
 519 882 519 882 421.205078125 907.64453125 c 1,15,16
 499 669 499 669 500.645507812 9.009765625 c 1,17,-1
 328.249023438 9.009765625 l 1,18,-1
 328.244140625 12.1845703125 l 2,19,20
 328.003885135 439.096472078 328.003885135 439.096472078 276.129882812 747.580078125 c 0,21,22
 213 1123 213 1123 94.7568359375 1378.546875 c 1,23,-1
 249.240234375 1453.38085938 l 1,0,1
EndSplineSet
EndChar

StartChar: afii57395
Encoding: 1635 1635 62
Width: 1275
VWidth: 2170
GlyphClass: 2
Flags: W
LayerCount: 2
Fore
SplineSet
421.205078125 907.64453125 m 1,0,1
 499 669 499 669 500.645507812 9.009765625 c 1,2,-1
 328.249023438 9.009765625 l 1,3,-1
 328.244140625 12.1845703125 l 2,4,5
 328 442 328 442 276.129882812 747.580078125 c 0,6,7
 213 1123 213 1123 94.7568359375 1378.546875 c 1,8,-1
 249.240234375 1453.38085938 l 1,9,10
 379.166670099 1155 l 2,11,12
 421 1058 421 1058 518.940429688 1057.85253906 c 0,13,14
 572 1058 572 1058 603 1090 c 0,15,16
 655.53515625 1145.50884434 655.53515625 1145.50884434 655.53515625 1401.0546875 c 2,17,-1
 655.53515625 1404.25878906 l 1,18,-1
 784.923828125 1403.2890625 l 1,19,20
 795 1219 795 1219 801.942382812 1158.99023438 c 0,21,22
 814 1059 814 1059 931.336914062 1059.22851562 c 0,23,24
 1065 1060 1065 1060 1036.05664062 1443.9609375 c 1,25,-1
 1178.22070312 1441.83789062 l 1,26,27
 1216 886 1216 886 929.9609375 888.609375 c 0,28,29
 795 890 795 890 725.743164062 989.53515625 c 1,30,31
 663 887 663 887 531.404296875 886.181640625 c 4,32,33
 478 886 478 886 421.205078125 907.64453125 c 1,0,1
EndSplineSet
EndChar

StartChar: afii57396
Encoding: 1636 1636 63
Width: 990
VWidth: 2442
GlyphClass: 2
Flags: W
LayerCount: 2
Fore
SplineSet
726.124023438 790.22265625 m 1,0,1
 272 589 272 589 272.419921875 362.51953125 c 0,2,3
 272.000499007 180.216893783 272.000499007 180.216893783 577.689453125 181.259765625 c 2,4,-1
 891.421875 182.330078125 l 1,5,-1
 893.618164062 -0.0029296875 l 1,6,-1
 537.630859375 0.3857421875 l 2,7,8
 97.0115629681 0.998593032078 97.0115629681 0.998593032078 96.4599609375 324.360351562 c 0,9,10
 96 594 96 594 433.989257812 821.817382812 c 5,11,12
 174 883 174 883 174.232421875 1121.04101562 c 0,13,14
 174 1466 174 1466 690.456054688 1502.90625 c 1,15,-1
 690.456054688 1314.09570312 l 1,16,17
 365 1296 365 1296 364.826171875 1111.52050781 c 0,18,19
 365 955 365 955 723.916015625 946.705078125 c 1,20,-1
 726.124023438 790.22265625 l 1,0,1
EndSplineSet
EndChar

StartChar: afii57397
Encoding: 1637 1637 64
Width: 1234
VWidth: 2311
GlyphClass: 2
Flags: W
LayerCount: 2
Fore
SplineSet
634.984375 193.802734375 m 4,0,1
 962 193.879882812 962 193.879882812 957.334960938 498.01953125 c 4,2,3
 954 773.879882812 954 773.879882812 599.471679688 1103.68261719 c 5,4,5
 279 768.879882812 279 768.879882812 279.563476562 516.534179688 c 4,6,7
 280 193.879882812 280 193.879882812 634.984375 193.802734375 c 4,0,1
394.040039062 1261.30371094 m 5,8,-1
 519.99609375 1425.38671875 l 5,9,10
 1141 949.879882812 1141 949.879882812 1141.5 494.379882812 c 4,11,12
 1142 14.8798828125 1142 14.8798828125 634.047851562 14.126953125 c 4,13,14
 106 13.8798828125 106 13.8798828125 96.6201171875 491.879882812 c 4,15,16
 90 826.879882812 90 826.879882812 456.96875 1202.74414062 c 5,17,-1
 394.040039062 1261.30371094 l 5,8,-1
EndSplineSet
EndChar

StartChar: afii57398
Encoding: 1638 1638 65
Width: 1205
VWidth: 2311
GlyphClass: 2
Flags: W
LayerCount: 2
Fore
SplineSet
95.34765625 1446.77050781 m 1,0,1
 482.271484375 1345.39257812 482.271484375 1345.39257812 926.709960938 1447.44335938 c 1,2,-1
 926.728515625 1443.47070312 l 2,3,4
 928.266601562 1120.37011719 928.266601562 1120.37011719 964.515625 774.350585938 c 128,-1,5
 1000.75683594 428.3984375 1000.75683594 428.3984375 1108.06542969 9.009765625 c 1,6,-1
 918.5625 9.009765625 l 1,7,8
 824.866210938 371.060546875 824.866210938 371.060546875 791.766601562 723.8671875 c 128,-1,9
 758.662109375 1076.72460938 758.662109375 1076.72460938 756.29296875 1246.85253906 c 1,10,11
 629.47265625 1209.88476562 629.47265625 1209.88476562 454.084960938 1209.88476562 c 128,-1,12
 278.697265625 1209.88476562 278.697265625 1209.88476562 95.34765625 1262.58789062 c 1,13,-1
 95.34765625 1446.77050781 l 1,0,1
EndSplineSet
EndChar

StartChar: afii57399
Encoding: 1639 1639 66
Width: 1220
VWidth: 2311
GlyphClass: 2
Flags: W
LayerCount: 2
Fore
SplineSet
522.734375 9.009765625 m 1,0,1
 442 669 442 669 95.4443359375 1366.06152344 c 1,2,-1
 266.16015625 1452.78320312 l 1,3,4
 503 966 503 966 615.330078125 356.770507812 c 5,5,6
 730 960 730 960 953.899414062 1452.78417969 c 1,7,-1
 1124.46875 1366.0546875 l 1,8,9
 799 666 799 666 698.03515625 9.009765625 c 1,10,-1
 522.734375 9.009765625 l 1,0,1
EndSplineSet
EndChar

StartChar: afii57400
Encoding: 1640 1640 67
Width: 1220
VWidth: 2311
GlyphClass: 2
Flags: W
LayerCount: 2
Fore
SplineSet
522.734375 1452.78417969 m 1,0,1
 698.03515625 1452.78417969 l 1,2,3
 799 795.793945312 799 795.793945312 1124.46875 95.7392578125 c 1,4,-1
 953.899414062 9.009765625 l 1,5,6
 730 501.793945312 730 501.793945312 615.330078125 1105.0234375 c 1,7,8
 503 495.793945312 503 495.793945312 266.16015625 9.0107421875 c 1,9,-1
 95.4443359375 95.732421875 l 1,10,11
 442 792.793945312 442 792.793945312 522.734375 1452.78417969 c 1,0,1
EndSplineSet
EndChar

StartChar: afii57401
Encoding: 1641 1641 68
Width: 1189
VWidth: 2311
GlyphClass: 2
Flags: W
LayerCount: 2
Fore
SplineSet
903.125 9.009765625 m 1,0,1
 808.780273438 463.219726562 808.780273438 463.219726562 778.818359375 708.16796875 c 1,2,3
 460.040039062 684.759765625 460.040039062 684.759765625 284.080078125 777.173828125 c 0,4,5
 103.879882812 871.3203125 103.879882812 871.3203125 103.879882812 1079.76953125 c 0,6,7
 103.879882812 1245.5 103.879882812 1245.5 219.778320312 1360.95703125 c 0,8,9
 333.900390625 1475.51953125 333.900390625 1475.51953125 498.200195312 1476.48046875 c 0,10,11
 890.400390625 1478.70019531 890.400390625 1478.70019531 921.024414062 1065.50292969 c 0,12,13
 932.799804688 911.599609375 932.799804688 911.599609375 963.8984375 657.62890625 c 0,14,15
 995.33984375 402.799804688 995.33984375 402.799804688 1092.13476562 9.009765625 c 1,16,-1
 903.125 9.009765625 l 1,0,1
760.58203125 881.556640625 m 1,17,-1
 755.282226562 981.61328125 l 2,18,19
 739.104492188 1301.61328125 739.104492188 1301.61328125 508.501953125 1298.07519531 c 4,20,21
 415.51953125 1297.44042969 415.51953125 1297.44042969 351.919921875 1246.37304688 c 0,22,23
 281.959960938 1191.44042969 281.959960938 1191.44042969 282.095703125 1086.44628906 c 0,24,25
 281.959960938 965.66015625 281.959960938 965.66015625 400.9609375 908.421875 c 0,26,27
 510.919921875 856.48046875 510.919921875 856.48046875 760.58203125 881.556640625 c 1,17,-1
EndSplineSet
EndChar

StartChar: afii57381
Encoding: 1642 1642 69
Width: 1253
VWidth: 2317
GlyphClass: 2
Flags: W
LayerCount: 2
Fore
SplineSet
269.572265625 1297.6875 m 128,-1,1
 269.572265625 1346.89355469 269.572265625 1346.89355469 305.357421875 1382.6796875 c 128,-1,2
 341.142578125 1418.46484375 341.142578125 1418.46484375 389.229492188 1417.34667969 c 0,3,4
 437.317382812 1418.46484375 437.317382812 1418.46484375 473.102539062 1382.6796875 c 128,-1,5
 508.887695312 1346.89355469 508.887695312 1346.89355469 508.887695312 1297.6875 c 128,-1,6
 508.887695312 1248.48242188 508.887695312 1248.48242188 473.102539062 1212.69726562 c 128,-1,7
 437.317382812 1176.91210938 437.317382812 1176.91210938 389.229492188 1178.03027344 c 0,8,9
 341.142578125 1176.91210938 341.142578125 1176.91210938 305.357421875 1212.69726562 c 128,-1,0
 269.572265625 1248.48242188 269.572265625 1248.48242188 269.572265625 1297.6875 c 128,-1,1
749.572265625 180.6875 m 128,-1,11
 749.572265625 229.893554688 749.572265625 229.893554688 785.357421875 265.6796875 c 128,-1,12
 821.142578125 301.46484375 821.142578125 301.46484375 869.229492188 300.346679688 c 0,13,14
 917.317382812 301.46484375 917.317382812 301.46484375 953.102539062 265.6796875 c 128,-1,15
 988.887695312 229.893554688 988.887695312 229.893554688 988.887695312 180.6875 c 128,-1,16
 988.887695312 131.482421875 988.887695312 131.482421875 953.102539062 95.697265625 c 128,-1,17
 917.317382812 59.912109375 917.317382812 59.912109375 869.229492188 61.0302734375 c 0,18,19
 821.142578125 59.912109375 821.142578125 59.912109375 785.357421875 95.697265625 c 128,-1,10
 749.572265625 131.482421875 749.572265625 131.482421875 749.572265625 180.6875 c 128,-1,11
925.49609375 1463.36816406 m 1,20,-1
 1049.45117188 1399.5078125 l 1,21,-1
 323.564453125 -1.17578125 l 1,22,-1
 200.326171875 66.548828125 l 1,23,-1
 925.49609375 1463.36816406 l 1,20,-1
EndSplineSet
EndChar

StartChar: uni066B
Encoding: 1643 1643 70
Width: 760
VWidth: 2317
GlyphClass: 2
Flags: W
LayerCount: 2
Fore
SplineSet
432.1953125 523.545898438 m 5,0,-1
 565.171875 461.045898438 l 5,1,-1
 173.008789062 -245.129882812 l 1,2,-1
 44.3896484375 -179.41796875 l 1,3,-1
 432.1953125 523.545898438 l 5,0,-1
EndSplineSet
EndChar

StartChar: uni066C
Encoding: 1644 1644 71
Width: 627
VWidth: 2442
GlyphClass: 2
Flags: W
LayerCount: 2
Fore
SplineSet
316.940429688 257.719726562 m 0,0,1
 458 255 458 255 467.631835938 135.653320312 c 0,2,3
 476 26 476 26 417 -86 c 0,4,5
 338 -235 338 -235 180.200195312 -350.860351562 c 1,6,-1
 127.200195312 -302.099609375 l 1,7,8
 295 -150 295 -150 348.546875 -0.3564453125 c 1,9,10
 316 -1 316 -1 305.188476562 -0.0341796875 c 0,11,12
 157 8 157 8 179.209960938 149.53515625 c 4,13,14
 197 261 197 261 316.940429688 257.719726562 c 0,0,1
EndSplineSet
EndChar

StartChar: uni066E
Encoding: 1646 1646 72
Width: 1842
VWidth: 2311
GlyphClass: 2
Flags: W
AnchorPoint: "Anchor-10" 806.894 1117.77 basechar 0
AnchorPoint: "Anchor-7" 563.093 -218.36 basechar 0
LayerCount: 2
Fore
SplineSet
919.518554688 1.041015625 m 0,0,1
 567.31640625 -0.001953125 567.31640625 -0.001953125 398.393554688 70.607421875 c 0,2,3
 123.423828125 185.541992188 123.423828125 185.541992188 96.8720703125 480.130859375 c 0,4,5
 86.0810546875 595.53515625 86.0810546875 595.53515625 131.109375 751.971679688 c 1,6,-1
 273.337890625 714.444335938 l 1,7,8
 249.755859375 567.212890625 249.755859375 567.212890625 252.846679688 507.095703125 c 0,9,10
 267.998046875 212.427734375 267.998046875 212.427734375 700.965820312 191.206054688 c 0,11,12
 767.787109375 187.931640625 767.787109375 187.931640625 932.690429688 188.420898438 c 128,-1,13
 1097.59472656 188.911132812 1097.59472656 188.911132812 1127.91796875 191.845703125 c 0,14,15
 1559.01074219 233.306640625 1559.01074219 233.306640625 1571.51953125 335.830078125 c 0,16,17
 1580.64257812 405.477539062 1580.64257812 405.477539062 1567.20996094 537.903320312 c 128,-1,18
 1553.77929688 670.311523438 1553.77929688 670.311523438 1527.95898438 751.672851562 c 1,19,-1
 1702.48535156 840.583007812 l 1,20,21
 1731.43945312 721.518554688 1731.43945312 721.518554688 1744.8515625 581.828125 c 0,22,23
 1769.19726562 328.336914062 1769.19726562 328.336914062 1715.8515625 212.056640625 c 0,24,25
 1618.15722656 2.99609375 1618.15722656 2.99609375 919.518554688 1.041015625 c 0,0,1
EndSplineSet
Substitution2: "'init' Initial Forms in Arabic lookup 13 subtable" uni066E.init
Substitution2: "'medi' Medial Forms in Arabic lookup 11 subtable" uni066E.medi
Substitution2: "'fina' Terminal Forms in Arabic lookup 9 subtable" uni066E.fina
EndChar

StartChar: uni066F
Encoding: 1647 1647 73
Width: 1427
VWidth: 2311
GlyphClass: 2
Flags: W
AnchorPoint: "Anchor-10" 165.36 1111.41 basechar 0
AnchorPoint: "Anchor-7" 296.8 -636 basechar 0
LayerCount: 2
Fore
SplineSet
996.833984375 610.53125 m 4,0,1
 872.379882812 607.379882812 872.379882812 607.379882812 830.676757812 438.54296875 c 4,2,3
 781.041992188 239.903320312 781.041992188 239.903320312 982.620117188 240.362304688 c 4,4,5
 1096.04003906 240.620117188 1096.04003906 240.620117188 1175.56152344 297.646484375 c 5,6,7
 1175.54003906 359.33984375 1175.54003906 359.33984375 1166.46777344 420.720703125 c 4,8,9
 1139.5 614.799804688 1139.5 614.799804688 996.833984375 610.53125 c 4,0,1
1331.16210938 248.927734375 m 12,10,11
 1332.41992188 -30.740234375 1332.41992188 -30.740234375 1260.33984375 -190.536132812 c 4,12,13
 1125.71972656 -486.540039062 1125.71972656 -486.540039062 698.844726562 -485.745117188 c 4,14,15
 266.059570312 -484.419921875 266.059570312 -484.419921875 134.620117188 -183.963867188 c 4,16,17
 67.83984375 -30.740234375 67.83984375 -30.740234375 99.876953125 184.583007812 c 4,18,19
 120.83984375 327.540039062 120.83984375 327.540039062 182.405273438 465.559570312 c 5,20,-1
 341.139648438 411.067382812 l 5,21,22
 260.759765625 216.240234375 260.759765625 216.240234375 260.893554688 67.0712890625 c 4,23,24
 260.759765625 33.919921875 260.759765625 33.919921875 265 2.1201171875 c 4,25,26
 306.33984375 -312.700195312 306.33984375 -312.700195312 701.190429688 -312.700195312 c 4,27,28
 1174.48046875 -311.639648438 1174.48046875 -311.639648438 1175.46582031 129.796875 c 5,29,30
 1080.13964844 77.3798828125 1080.13964844 77.3798828125 957.412109375 78.2685546875 c 4,31,32
 799.240234375 79.5 799.240234375 79.5 723.36328125 180.112304688 c 4,33,34
 656.139648438 269.240234375 656.139648438 269.240234375 674.180664062 424.325195312 c 4,35,36
 692.1796875 586.1796875 692.1796875 586.1796875 786.317382812 684.942382812 c 4,37,38
 903.120117188 808.780273438 903.120117188 808.780273438 1066.21386719 775.26953125 c 4,39,40
 1176.59960938 752.599609375 1176.59960938 752.599609375 1245.60644531 636.740234375 c 4,41,42
 1330.29980469 496.080078125 1330.29980469 496.080078125 1331.16210938 248.927734375 c 12,10,11
EndSplineSet
Substitution2: "'init' Initial Forms in Arabic lookup 13 subtable" uni066F.init
Substitution2: "'medi' Medial Forms in Arabic lookup 11 subtable" uni066F.medi
Substitution2: "'fina' Terminal Forms in Arabic lookup 9 subtable" uni066F.fina
EndChar

StartChar: uni0670
Encoding: 1648 1648 74
Width: 6
VWidth: 2317
GlyphClass: 4
Flags: W
AnchorPoint: "Anchor-10" 583.891 1359.45 mark 0
AnchorPoint: "Anchor-9" 583.891 1359.45 mark 0
AnchorPoint: "Anchor-1" 583.891 1936.62 basemark 0
AnchorPoint: "Anchor-1" 583.891 1359.45 mark 0
LayerCount: 2
Fore
SplineSet
557.712890625 1407.47851562 m 1,0,-1
 532.012695312 1829.93164062 l 5,1,-1
 635.671875 1890.97460938 l 5,2,-1
 635.671875 1407.47851562 l 1,3,-1
 557.712890625 1407.47851562 l 1,0,-1
EndSplineSet
EndChar

StartChar: uni0674
Encoding: 1652 1652 75
Width: 683
VWidth: 2317
GlyphClass: 2
Flags: W
LayerCount: 2
Fore
SplineSet
307.336914062 2000.75390625 m 0,0,1
 415.033203125 2022.71191406 415.033203125 2022.71191406 506.764648438 1968.67480469 c 1,2,-1
 506.764648438 1856.87304688 l 1,3,-1
 486.822265625 1866.84179688 l 2,4,5
 421.921875 1899.29003906 421.921875 1899.29003906 356.578125 1892.1796875 c 0,6,7
 257.114257812 1881.44726562 257.114257812 1881.44726562 250.384765625 1805.13867188 c 0,8,9
 243.276367188 1722.83300781 243.276367188 1722.83300781 357.146484375 1688.33789062 c 0,10,11
 392.008789062 1677.77539062 392.008789062 1677.77539062 530.583007812 1709.82128906 c 1,12,-1
 530.583007812 1594.234375 l 1,13,-1
 141.552734375 1506.89355469 l 1,14,-1
 141.552734375 1620.31738281 l 1,15,-1
 233.752929688 1641.59277344 l 1,16,17
 143.8203125 1697.78710938 143.8203125 1697.78710938 143.8203125 1796.35742188 c 128,-1,18
 143.8203125 1894.92773438 143.8203125 1894.92773438 212.459960938 1955.46582031 c 0,19,20
 251.283203125 1989.32714844 251.283203125 1989.32714844 307.336914062 2000.75390625 c 0,0,1
EndSplineSet
EndChar

StartChar: uni06A1
Encoding: 1697 1697 79
Width: 1857
VWidth: 2311
GlyphClass: 2
Flags: W
AnchorPoint: "Anchor-10" 534.823 1301.98 basechar 0
AnchorPoint: "Anchor-7" 648.243 -158.873 basechar 0
LayerCount: 2
Fore
SplineSet
904.290039062 187.637695312 m 0,0,1
 1260.33984375 187.620117188 1260.33984375 187.620117188 1394.79882812 225.830078125 c 0,2,3
 1561.37988281 273.48046875 1561.37988281 273.48046875 1598.23730469 435.004882812 c 1,4,5
 1524.28027344 382.66015625 1524.28027344 382.66015625 1380.18457031 383.475585938 c 0,6,7
 1222.1796875 384.780273438 1222.1796875 384.780273438 1146.13574219 485.319335938 c 0,8,9
 1079.08007812 574.51953125 1079.08007812 574.51953125 1096.95410156 729.532226562 c 0,10,11
 1115.12011719 891.459960938 1115.12011719 891.459960938 1209.08984375 990.149414062 c 0,12,13
 1326.05957031 1114.05957031 1326.05957031 1114.05957031 1488.98632812 1080.47753906 c 0,14,15
 1599.54003906 1057.87988281 1599.54003906 1057.87988281 1668.37890625 941.947265625 c 0,16,17
 1763.83984375 781.219726562 1763.83984375 781.219726562 1760.29492188 554.135742188 c 24,18,19
 1758.54003906 418.700195312 1758.54003906 418.700195312 1733.57226562 334.930664062 c 0,20,21
 1672.01269531 124.3046875 1672.01269531 124.3046875 1447.95996094 51.9404296875 c 0,22,23
 1277.29980469 -3.1796875 1277.29980469 -3.1796875 907.125976562 0 c 24,24,25
 558.620117188 3.1796875 558.620117188 3.1796875 398.397460938 70.6044921875 c 0,26,27
 125.080078125 184.440429688 125.080078125 184.440429688 99.65234375 467.181640625 c 0,28,29
 87.98046875 599.959960938 87.98046875 599.959960938 131.100585938 751.973632812 c 1,30,-1
 273.30859375 714.452148438 l 1,31,32
 252.280273438 573.459960938 252.280273438 573.459960938 254.96875 507.0546875 c 0,33,34
 265 250.16015625 265 250.16015625 593.8359375 200.705078125 c 0,35,36
 680.51953125 187.620117188 680.51953125 187.620117188 904.290039062 187.637695312 c 0,0,1
1419.60644531 915.73828125 m 0,37,38
 1295.38378906 912.416015625 1295.38378906 912.416015625 1253.44921875 743.75 c 0,39,40
 1204.78320312 546.807617188 1204.78320312 546.807617188 1398.20410156 545.459960938 c 0,41,42
 1522.22460938 544.595703125 1522.22460938 544.595703125 1600.45410156 602.854492188 c 1,43,44
 1607.02441406 628.3359375 1607.02441406 628.3359375 1589.24023438 725.927734375 c 0,45,46
 1552.96386719 919.8359375 1552.96386719 919.8359375 1419.60644531 915.73828125 c 0,37,38
EndSplineSet
Substitution2: "'init' Initial Forms in Arabic lookup 13 subtable" uni06A1.init
Substitution2: "'medi' Medial Forms in Arabic lookup 11 subtable" uni06A1.medi
Substitution2: "'fina' Terminal Forms in Arabic lookup 9 subtable" uni06A1.fina
EndChar

StartChar: uni06A9
Encoding: 1705 1705 80
Width: 1994
VWidth: 2311
GlyphClass: 2
Flags: W
AnchorPoint: "Anchor-10" 386.9 1277.66 basechar 0
AnchorPoint: "Anchor-7" 509.86 -246.641 basechar 0
LayerCount: 2
Fore
SplineSet
891.225585938 0 m 1,0,1
 564 0 564 0 395.21875 70.603515625 c 0,2,3
 125 184 125 184 96.4736328125 462.922851562 c 0,4,5
 83 596 83 596 127.934570312 751.970703125 c 1,6,-1
 270.211914062 714.4296875 l 1,7,8
 243 562 243 562 245.424804688 507.104492188 c 0,9,10
 259.938145064 209.269354455 259.938145064 209.269354455 695.27734375 191.430664062 c 0,11,12
 766.466367701 188.288393354 766.466367701 188.288393354 848.127929688 187.637695312 c 2,13,-1
 1115.91503906 185.50390625 l 1,14,-1
 1294.26171875 185.637695312 l 2,15,16
 1520 186 1520 186 1549.78613281 329.215820312 c 0,17,18
 1566.89501811 410.501224372 1566.89501811 410.501224372 1485.87695312 500.44921875 c 2,19,-1
 1209.25878906 807.556640625 l 2,20,21
 1113 914 1113 914 1110.35253906 987.796875 c 0,22,23
 1105.99617303 1115.1118434 1105.99617303 1115.1118434 1232.859375 1178.30566406 c 2,24,-1
 1952.91796875 1536.98535156 l 5,25,-1
 1952.91796875 1352.93359375 l 5,26,-1
 1255.90722656 1005.1015625 l 1,27,-1
 1604.15332031 620.109375 l 2,28,29
 1745 465 1745 465 1698.16015625 275.899414062 c 0,30,31
 1630 0 1630 0 1209.45996094 0 c 2,32,-1
 891.225585938 0 l 1,0,1
EndSplineSet
Substitution2: "'init' Initial Forms in Arabic lookup 13 subtable" uniFB90
Substitution2: "'medi' Medial Forms in Arabic lookup 11 subtable" uniFB91
Substitution2: "'fina' Terminal Forms in Arabic lookup 9 subtable" uniFB8F
EndChar

StartChar: afii57514
Encoding: 1722 1722 82
Width: 1463
VWidth: 2317
GlyphClass: 2
Flags: W
AnchorPoint: "Anchor-10" 631.479 1018.46 basechar 0
AnchorPoint: "Anchor-7" 574.075 -515.182 basechar 0
LayerCount: 2
Fore
SplineSet
1224.93066406 700.02734375 m 5,0,1
 1361.04003906 473.459960938 1361.04003906 473.459960938 1359.72558594 247.522460938 c 4,2,3
 1355.74023438 -398.919921875 1355.74023438 -398.919921875 708.928710938 -398.919921875 c 4,4,5
 129.3203125 -398.919921875 129.3203125 -398.919921875 97.0693359375 142.9765625 c 4,6,7
 92.2197265625 226.48046875 92.2197265625 226.48046875 115.301757812 346.381835938 c 4,8,9
 138.860351562 466.040039062 138.860351562 466.040039062 191.416992188 579.4921875 c 5,10,-1
 340.248046875 522.037109375 l 5,11,12
 245.919921875 290.080078125 245.919921875 290.080078125 263.3359375 129.241210938 c 4,13,14
 304.219726562 -233.559570312 304.219726562 -233.559570312 714.482421875 -234.36328125 c 4,15,16
 1174.48046875 -234.620117188 1174.48046875 -234.620117188 1194.35839844 188.966796875 c 4,17,18
 1203.09960938 378.059570312 1203.09960938 378.059570312 1075.74121094 557.481445312 c 5,19,-1
 1224.93066406 700.02734375 l 5,0,1
EndSplineSet
Substitution2: "'init' Initial Forms in Arabic lookup 13 subtable" uni06BA.init
Substitution2: "'medi' Medial Forms in Arabic lookup 11 subtable" uni06BA.medi
Substitution2: "'fina' Terminal Forms in Arabic lookup 9 subtable" uniFB9F
EndChar

StartChar: uni06F4
Encoding: 1780 1780 89
Width: 1078
VWidth: 2311
GlyphClass: 2
Flags: W
LayerCount: 2
Fore
SplineSet
751 1450.26074219 m 0,0,1
 859 1450 859 1450 917.790039062 1411.28222656 c 1,2,-1
 917.790039062 1259.00390625 l 1,3,4
 820 1279 820 1279 772.280273438 1279.1953125 c 0,5,6
 668 1279 668 1279 594 1237 c 0,7,8
 503 1186 503 1186 492.6328125 1082.59570312 c 0,9,10
 477 929 477 929 742.693359375 927.32421875 c 0,11,12
 847 927 847 927 979.28125 974.310546875 c 1,13,-1
 981.600585938 813.407226562 l 1,14,15
 846 776 846 776 734.439453125 776.51953125 c 0,16,17
 545 777 545 777 434.6953125 864.333007812 c 1,18,19
 502 568 502 568 502.002929688 62.423828125 c 0,20,21
 502 37 502 37 501.7734375 9.009765625 c 1,22,-1
 329.30859375 9.009765625 l 1,23,-1
 329.303710938 12.1845703125 l 2,24,25
 329 469 329 469 279.83984375 769.560058594 c 0,26,27
 231 1073 231 1073 96.9130859375 1377.27539062 c 1,28,-1
 252.846679688 1453.43066406 l 1,29,30
 333 1257 333 1257 372.27734375 1059.796875 c 5,31,32
 369 1231 369 1231 451 1330 c 0,33,34
 556.766074535 1450.95777591 556.766074535 1450.95777591 751 1450.26074219 c 0,0,1
EndSplineSet
EndChar

StartChar: uni06F5
Encoding: 1781 1781 90
Width: 1294
VWidth: 2170
GlyphClass: 2
Flags: W
LayerCount: 2
Fore
SplineSet
885.852539062 187.615234375 m 4,0,1
 1030 186 1030 186 1029.67285156 381.01171875 c 0,2,3
 1029 689 1029 689 628.35546875 1110.640625 c 1,4,5
 263 688 263 688 263.752929688 380.796875 c 0,6,7
 264 188 264 188 431.607421875 187.798828125 c 4,8,9
 572.091710154 186.999478173 572.091710154 186.999478173 586 379.500976562 c 2,10,-1
 590.440429688 440.959960938 l 1,11,-1
 715.360351562 440.959960938 l 1,12,-1
 721.990234375 379.33203125 l 2,13,14
 742 190 742 190 885.852539062 187.615234375 c 4,0,1
652.166015625 158.462890625 m 5,15,16
 598 10 598 10 427.211914062 8.8662109375 c 0,17,18
 97 8 97 8 97.4267578125 350.7265625 c 0,19,20
 98 725 98 725 503.392578125 1218.62988281 c 1,21,-1
 454.702148438 1260.90332031 l 1,22,-1
 562.45703125 1410.34863281 l 1,23,24
 1201 879 1201 879 1199.81152344 345.008789062 c 0,25,26
 1199 8 1199 8 902.158203125 9.1103515625 c 0,27,28
 707 10 707 10 652.166015625 158.462890625 c 5,15,16
EndSplineSet
EndChar

StartChar: uni06F6
Encoding: 1782 1782 91
Width: 1008
VWidth: 2311
GlyphClass: 2
Flags: W
LayerCount: 2
Fore
SplineSet
591.301757812 1443.64355469 m 0,0,1
 670 1444 670 1444 769 1412.22949219 c 1,2,-1
 769 1247 l 1,3,4
 549 1313 549 1313 436.442382812 1233.36816406 c 0,5,6
 342 1166 342 1166 342.384765625 1067.33691406 c 0,7,8
 342 968 342 968 416.521484375 912.438476562 c 0,9,10
 555 812 555 812 665.418945312 860.23828125 c 4,11,12
 929 976 929 976 941.430664062 979.706054688 c 1,13,-1
 951.430664062 800.248046875 l 1,14,15
 563 677 563 677 238.534179688 9.009765625 c 1,16,-1
 78 72.6103515625 l 1,17,18
 251 457 251 457 481.700195312 705.040039062 c 1,19,20
 188 769 188 769 175.965820312 1027.48144531 c 0,21,22
 167 1216 167 1216 292.411132812 1336.2421875 c 0,23,24
 404 1443 404 1443 591.301757812 1443.64355469 c 0,0,1
EndSplineSet
EndChar

StartChar: uniFB8F
Encoding: 64399 64399 106
Width: 2151
VWidth: 2311
GlyphClass: 2
Flags: W
AnchorPoint: "Anchor-10" 480.18 1248.15 basechar 0
AnchorPoint: "Anchor-7" 563.92 -221.54 basechar 0
LayerCount: 2
Fore
SplineSet
2158.37597656 185.479492188 m 2,0,1
 2206.37597656 184.123472925 2206.37597656 184.123472925 2206.37597656 108 c 2,2,-1
 2206.37597656 74 l 2,3,4
 2205.99868015 -1.26328465771 2205.99868015 -1.26328465771 2157.62011719 0 c 2,5,-1
 2117.04296875 1.0595703125 l 2,6,7
 1935 6 1935 6 1728.72167969 273.060546875 c 1,8,9
 1696.94523088 0.5302734375 1696.94523088 0.5302734375 1246.20996094 0.5302734375 c 2,10,-1
 862.205078125 0.5302734375 l 2,11,12
 586 1 586 1 404.7578125 70.6044921875 c 0,13,14
 131 177 131 177 102.171875 480.137695312 c 0,15,16
 91 596 91 596 137.484375 751.967773438 c 1,17,-1
 279.69921875 714.444335938 l 1,18,19
 257 567 257 567 259.206054688 507.094726562 c 0,20,21
 269 249 269 249 600.2109375 200.703125 c 0,22,23
 682 189 682 189 853.743164062 186.009765625 c 1,24,-1
 1331.00878906 186.16796875 l 2,25,26
 1556 186 1556 186 1586.53515625 329.743164062 c 0,27,28
 1603.93666294 410.705318327 1603.93666294 410.705318327 1522.62695312 500.979492188 c 2,29,-1
 1246.02050781 808.08203125 l 2,30,31
 1149 916 1149 916 1146.10644531 990.889648438 c 0,32,33
 1142.00417682 1113.87477983 1142.00417682 1113.87477983 1269.66992188 1177.6796875 c 2,34,-1
 1989.67285156 1537.5234375 l 5,35,-1
 1989.67285156 1353.46289062 l 5,36,-1
 1292.65722656 1005.62695312 l 1,37,-1
 1942.90039062 283.819335938 l 2,38,39
 2027.85021085 189.166897449 2027.85021085 189.166897449 2127.95605469 186.338867188 c 2,40,-1
 2158.37597656 185.479492188 l 2,0,1
EndSplineSet
EndChar

StartChar: uniFB9F
Encoding: 64415 64415 114
Width: 1467
VWidth: 2311
GlyphClass: 2
Flags: W
AnchorPoint: "Anchor-10" 393.357 757.317 basechar 0
AnchorPoint: "Anchor-7" 293.314 -739.99 basechar 0
LayerCount: 2
Fore
SplineSet
1474.37597656 185.479492188 m 2,0,1
 1522 185 1522 185 1522.37597656 108 c 2,2,-1
 1522.37597656 74 l 2,3,4
 1522.37597656 -1.00777134091 1522.37597656 -1.00777134091 1473.62011719 0 c 2,5,-1
 1442.07421875 0.5302734375 l 2,6,7
 1343.86672092 2.18110064609 1343.86672092 2.18110064609 1300.55371094 61.03515625 c 1,8,9
 1303 -154 1303 -154 1217 -292.05078125 c 4,10,11
 1077 -518 1077 -518 698.844726562 -517.544921875 c 0,12,13
 266 -517 266 -517 134.620117188 -215.763671875 c 0,14,15
 68 -63 68 -63 99.876953125 152.783203125 c 0,16,17
 121 296 121 296 182.405273438 433.759765625 c 1,18,-1
 341.139648438 379.267578125 l 1,19,20
 261 184 261 184 260.893554688 35.2705078125 c 0,21,22
 261 2 261 2 265 -29.6796875 c 0,23,24
 305 -344 305 -344 701.190429688 -344.5 c 0,25,26
 1111 -345 1111 -345 1150.25195312 3.57421875 c 0,27,28
 1162 102 1162 102 1135.44921875 204.580078125 c 0,29,30
 1104 325 1104 325 1037.46191406 410.682617188 c 1,31,-1
 1184.29101562 550.477539062 l 1,32,33
 1250 388 1250 388 1297.19433594 286.931640625 c 0,34,35
 1345 187 1345 187 1440.83691406 185.90234375 c 2,36,-1
 1474.37597656 185.479492188 l 2,0,1
EndSplineSet
EndChar

StartChar: uniFBE8
Encoding: 64488 64488 117
Width: 640
VWidth: 2317
GlyphClass: 2
Flags: W
AnchorPoint: "Anchor-10" 293.546 1080.67 basechar 0
AnchorPoint: "Anchor-7" 327.466 -116.07 basechar 0
LayerCount: 2
Fore
SplineSet
440.529296875 80.3642578125 m 0,0,1
 347 0 347 0 85.48828125 0 c 2,2,-1
 -2 0 l 6,3,4
 -51.6240234375 0 -51.6240234375 0 -51.6240234375 74 c 6,5,-1
 -51.6240234375 108 l 6,6,7
 -52.0023412704 185.479492187 -52.0023412704 185.479492187 -4 185.479492188 c 6,8,-1
 89.091796875 185.479492188 l 2,9,10
 182 185 182 185 209.141601562 189.481445312 c 0,11,12
 325 205 325 205 355.022460938 276.791992188 c 0,13,14
 385 347 385 347 373.108398438 488.147460938 c 0,15,16
 361 630 361 630 336.603515625 727.670898438 c 1,17,-1
 497.750976562 761.78125 l 1,18,19
 536 654 536 654 544.30859375 507.459960938 c 0,20,21
 561 184 561 184 440.529296875 80.3642578125 c 0,0,1
EndSplineSet
EndChar

StartChar: uniFBE9
Encoding: 64489 64489 118
Width: 744
VWidth: 2311
GlyphClass: 2
Flags: W
AnchorPoint: "Anchor-10" 317.926 1025.55 basechar 0
AnchorPoint: "Anchor-7" 285.065 -264.47 basechar 0
LayerCount: 2
Fore
SplineSet
749.620117188 0 m 2,0,1
 706.977539062 0 l 2,2,3
 551 0 551 0 431.1953125 130.317382812 c 5,4,5
 314 0 314 0 129.21484375 0 c 2,6,-1
 -4 0 l 2,7,8
 -51.6240234375 0 -51.6240234375 0 -51.6240234375 74 c 2,9,-1
 -51.6240234375 108 l 2,10,11
 -52.0023412704 185.479492188 -52.0023412704 185.479492188 -3.6240234375 185.479492188 c 2,12,-1
 132.551757812 185.479492188 l 2,13,14
 346.372288994 184.999163686 346.372288994 184.999163686 350.291015625 366.598632812 c 2,15,-1
 355.14453125 591.517578125 l 1,16,-1
 508.528320312 618.0234375 l 1,17,-1
 517.69921875 366.637695312 l 2,18,19
 523.983367024 185.479492188 523.983367024 185.479492188 709.999023438 185.479492188 c 2,20,-1
 750.375976562 185.479492188 l 2,21,22
 798.375976562 184.996214561 798.375976562 184.996214561 798.375976562 108 c 2,23,-1
 798.375976562 74 l 2,24,25
 798 0 798 0 749.620117188 0 c 2,0,1
EndSplineSet
EndChar

StartChar: uniFE73
Encoding: 65139 65139 126
Width: 613
VWidth: 2317
GlyphClass: 2
Flags: W
AnchorPoint: "Anchor-10" 226.617 1359.45 basechar 0
AnchorPoint: "Anchor-7" 226.617 -115.01 basechar 0
LayerCount: 2
Fore
SplineSet
320.364257812 374.96484375 m 2,0,1
 320.364257812 308.194335938 320.364257812 308.194335938 376.208007812 252.348632812 c 128,-1,2
 432.052734375 196.502929688 432.052734375 196.502929688 548.73046875 196.502929688 c 2,3,-1
 623.1953125 196.502929688 l 1,4,-1
 623.1953125 9.009765625 l 1,5,-1
 486.349609375 9.009765625 l 2,6,7
 329.684570312 9.009765625 329.684570312 9.009765625 231.27734375 107.416015625 c 128,-1,8
 132.870117188 205.822265625 132.870117188 205.822265625 132.870117188 361.354492188 c 2,9,-1
 132.870117188 399.524414062 l 1,10,-1
 320.364257812 399.524414062 l 1,11,-1
 320.364257812 374.96484375 l 2,0,1
EndSplineSet
EndChar

StartChar: uniFE8E
Encoding: 65166 65166 152
Width: 557
VWidth: 2311
GlyphClass: 2
Flags: W
AnchorPoint: "Anchor-10" 228.907 1647.98 basechar 0
AnchorPoint: "Anchor-7" 264.947 -215.71 basechar 0
LayerCount: 2
Fore
SplineSet
564.375976562 185.479492188 m 2,0,1
 612.375976562 185.479492187 612.375976562 185.479492187 612.375976562 108 c 2,2,-1
 612.375976562 74 l 2,3,4
 612 0 612 0 563.620117188 0 c 2,5,-1
 523.619140625 0 l 2,6,7
 319.833775411 7.54951656745e-15 319.833775411 7.54951656745e-15 233.518554688 132.852539062 c 0,8,9
 172.64348704 227.554619822 172.64348704 227.554619822 166.962890625 431.23828125 c 2,10,-1
 138.262695312 1460.31347656 l 5,11,-1
 310.995117188 1536.28515625 l 5,12,-1
 310.568359375 444.966796875 l 2,13,14
 310.001048303 185.479492191 310.001048303 185.479492191 523.459960938 185.479492188 c 2,15,-1
 564.375976562 185.479492188 l 2,0,1
EndSplineSet
EndChar

StartChar: uniFEA2
Encoding: 65186 65186 172
Width: 1383
VWidth: 2311
GlyphClass: 2
Flags: W
AnchorPoint: "Anchor-10" 616.39 1188.26 basechar 0
AnchorPoint: "Anchor-7" 437.61 -808.398 basechar 0
LayerCount: 2
Fore
SplineSet
1390.37597656 185.479492188 m 6,0,1
 1438 186 1438 186 1438.37597656 108 c 6,2,-1
 1438.37597656 74 l 6,3,4
 1438.37597656 1.00777134091 1438.37597656 1.00777134091 1389.62011719 0 c 6,5,-1
 1346.73632812 -0.5302734375 l 2,6,7
 991.988904088 -4.91685261057 991.988904088 -4.91685261057 933.265625 435.126953125 c 1,8,9
 722 396 722 396 569.754882812 308.888671875 c 0,10,11
 266 134 266 134 266.14453125 -140.095703125 c 0,12,13
 266 -296 266 -296 380.045898438 -387.197265625 c 0,14,15
 494 -479 494 -479 776.735351562 -479.671875 c 0,16,17
 982 -480 982 -480 1155.34570312 -430.703125 c 1,18,-1
 1206.07324219 -585.0859375 l 1,19,20
 995 -650 995 -650 781.219726562 -649.780273438 c 0,21,22
 368 -650 368 -650 206.865234375 -461.095703125 c 0,23,24
 96 -332 96 -332 96.4580078125 -146.919921875 c 0,25,26
 96 42 96 42 201.380859375 201.5390625 c 0,27,28
 312 368 312 368 508.189453125 460.36328125 c 0,29,30
 696 549 696 549 872.203125 563.171875 c 1,31,32
 803 581 803 581 720.463867188 619.666015625 c 0,33,34
 638 658 638 658 603.30078125 673.068359375 c 0,35,36
 535 702 535 702 506.943359375 703.826171875 c 0,37,38
 380 712 380 712 235.874023438 528.7421875 c 1,39,-1
 120.76171875 623.650390625 l 1,40,41
 292 873 292 873 490.780273438 873.440429688 c 0,42,43
 523 873 523 873 562.05078125 862.745117188 c 0,44,45
 601 852 601 852 758.545898438 775.174804688 c 0,46,47
 916 699 916 699 996.8515625 670.294921875 c 0,48,49
 1078 642 1078 642 1170.66210938 629.826171875 c 1,50,-1
 1146.52636719 454.9453125 l 1,51,52
 1106 452 1106 452 1075.24023438 449.534179688 c 1,53,54
 1110 182 1110 182 1342.09765625 184.842773438 c 2,55,-1
 1390.37597656 185.479492188 l 6,0,1
EndSplineSet
EndChar

StartChar: uniFEA3
Encoding: 65187 65187 173
Width: 1411
VWidth: 2311
GlyphClass: 2
Flags: W
AnchorPoint: "Anchor-10" 393.26 1119.07 basechar 0
AnchorPoint: "Anchor-7" 599.96 -217.83 basechar 0
LayerCount: 2
Fore
SplineSet
-4 185.479492188 m 6,0,-1
 39.85546875 185.479492188 l 2,1,2
 387.508286688 185.004767978 387.508286688 185.004767978 531.943359375 237.760742188 c 0,3,4
 779 328 779 328 975.965820312 423.328125 c 1,5,6
 891 432 891 432 714.346679688 510.837890625 c 0,7,8
 537 589 537 589 434.266601562 604.65234375 c 0,9,10
 314 622 314 622 179.857421875 445.389648438 c 1,11,-1
 64.6552734375 534.006835938 l 1,12,13
 165 675 165 675 224.036132812 718.075195312 c 0,14,15
 357 814 357 814 531.73046875 765.791992188 c 0,16,17
 589 750 589 750 920.130859375 606.637695312 c 0,18,19
 1136 513 1136 513 1315.13085938 524.958007812 c 1,20,-1
 1290.79785156 378.294921875 l 1,21,22
 1206 360 1206 360 658.430664062 95.1689453125 c 0,23,24
 462 0 462 0 49.0302734375 0 c 2,25,-1
 -4 0 l 6,26,27
 -51.6240234375 0 -51.6240234375 0 -51.6240234375 74 c 6,28,-1
 -51.6240234375 108 l 6,29,30
 -52 185 -52 185 -4 185.479492188 c 6,0,-1
EndSplineSet
EndChar

StartChar: uniFEA4
Encoding: 65188 65188 174
Width: 1423
VWidth: 2311
GlyphClass: 2
Flags: W
AnchorPoint: "Anchor-10" 401.74 1140.23 basechar 0
AnchorPoint: "Anchor-7" 579.82 -226.31 basechar 0
LayerCount: 2
Fore
SplineSet
1430.37597656 185.479492188 m 2,0,1
 1478.37597656 185.060828929 1478.37597656 185.060828929 1478.37597656 108 c 2,2,-1
 1478.37597656 74 l 2,3,4
 1478 0 1478 0 1429.62011719 0 c 2,5,-1
 1298.41503906 0 l 2,6,7
 953 0 953 0 885.592773438 212.096679688 c 5,8,9
 773.535405555 150.936189702 773.535405555 150.936189702 658.430664062 95.1689453125 c 0,10,11
 462 0 462 0 49.0302734375 0 c 2,12,-1
 -4 0 l 2,13,14
 -51.6240234375 0 -51.6240234375 0 -51.6240234375 74 c 2,15,-1
 -51.6240234375 108 l 2,16,17
 -52.0023412704 185.479492188 -52.0023412704 185.479492188 -4 185.479492188 c 2,18,-1
 39.85546875 185.479492188 l 2,19,20
 392 185 392 185 531.943359375 237.760742188 c 0,21,22
 793 335 793 335 975.965820312 423.328125 c 1,23,24
 891 432 891 432 714.346679688 510.837890625 c 0,25,26
 537 589 537 589 434.266601562 604.65234375 c 0,27,28
 314 622 314 622 179.857421875 445.389648438 c 1,29,-1
 64.65234375 534.0078125 l 1,30,31
 163 672 163 672 224.001953125 718.05078125 c 0,32,33
 354 816 354 816 530.774414062 766.051757812 c 0,34,35
 590 749 590 749 920.130859375 606.637695312 c 0,36,37
 1136 513 1136 513 1315.13085938 524.958007812 c 1,38,-1
 1290.80566406 378.338867188 l 5,39,40
 1166 349 1166 349 1030.92382812 279.545898438 c 5,41,42
 1046.02800027 188.831833361 1046.02800027 188.831833361 1321.09960938 186.432617188 c 2,43,-1
 1430.37597656 185.479492188 l 2,0,1
EndSplineSet
EndChar

StartChar: uniFEAA
Encoding: 65194 65194 180
Width: 1162
VWidth: 2311
GlyphClass: 2
Flags: W
AnchorPoint: "Anchor-10" 515.149 1289.65 basechar 0
AnchorPoint: "Anchor-7" 475.41 -246.98 basechar 0
LayerCount: 2
Fore
SplineSet
1169.37597656 185.479492188 m 6,0,1
 1217 184 1217 184 1217.37597656 108 c 6,2,-1
 1217.37597656 74 l 6,3,4
 1217.37597656 0 1217.37597656 0 1168.62011719 0 c 6,5,-1
 1137.85644531 0 l 2,6,7
 977 0 977 0 873.306640625 136.989257812 c 1,8,9
 751 -22 751 -22 405.526367188 -21.7431640625 c 0,10,11
 229 -22 229 -22 95.5849609375 24.3486328125 c 1,12,-1
 95.5849609375 222.038085938 l 1,13,14
 226 166 226 166 396.702148438 166.22265625 c 0,15,16
 640 166 640 166 722.692382812 248.98828125 c 0,17,18
 744 270 744 270 743.815429688 297.967773438 c 0,19,20
 744 326 744 326 727.919921875 358.47265625 c 2,21,-1
 480 864 l 1,22,-1
 631.970703125 957.772460938 l 1,23,-1
 913.375 399.999023438 l 2,24,25
 1019.3273034 189.990217122 1019.3273034 189.990217122 1141.03222656 186.352539062 c 2,26,-1
 1169.37597656 185.479492188 l 6,0,1
EndSplineSet
EndChar

StartChar: uniFEAE
Encoding: 65198 65198 184
Width: 986
VWidth: 2317
GlyphClass: 2
Flags: W
AnchorPoint: "Anchor-10" 521.52 870.26 basechar 0
AnchorPoint: "Anchor-7" 446.181 -681.103 basechar 0
LayerCount: 2
Fore
SplineSet
993.375976562 185.479492188 m 6,0,1
 1041 185 1041 185 1041.37597656 108 c 6,2,-1
 1041.37597656 74 l 6,3,4
 1041.37597656 -0 1041.37597656 -0 992.620117188 0 c 6,5,-1
 957.991210938 0.009765625 l 2,6,7
 830.956597243 0.045590389156 830.956597243 0.045590389156 783.02734375 50.390625 c 1,8,9
 704 -532 704 -532 103.630859375 -534.03125 c 2,10,-1
 101.194335938 -534.038085938 l 1,11,-1
 25.7646484375 -397.599609375 l 1,12,13
 576 -365 576 -365 625.528320312 73.96484375 c 0,14,15
 637 175 637 175 559.208984375 453.206054688 c 1,16,-1
 710.200195312 561.986328125 l 1,17,18
 770 278 770 278 774.278320312 262.284179688 c 0,19,20
 795 185 795 185 952.770507812 185.479492188 c 2,21,-1
 993.375976562 185.479492188 l 6,0,1
EndSplineSet
PairPos2: "'kern' Horizontal Kerning lookup 15-1" uni06CA dx=-85 dy=0 dh=-85 dv=0 dx=0 dy=0 dh=0 dv=0
PairPos2: "'kern' Horizontal Kerning lookup 15-1" uniFB90 dx=-307 dy=0 dh=-307 dv=0 dx=0 dy=0 dh=0 dv=0
PairPos2: "'kern' Horizontal Kerning lookup 15-1" uniFB8E dx=-307 dy=0 dh=-307 dv=0 dx=0 dy=0 dh=0 dv=0
PairPos2: "'kern' Horizontal Kerning lookup 15-1" uni06A9 dx=-307 dy=0 dh=-307 dv=0 dx=0 dy=0 dh=0 dv=0
PairPos2: "'kern' Horizontal Kerning lookup 15-1" uni064A dx=-106 dy=0 dh=-106 dv=0 dx=0 dy=0 dh=0 dv=0
PairPos2: "'kern' Horizontal Kerning lookup 15-1" afii57414 dx=-106 dy=0 dh=-106 dv=0 dx=0 dy=0 dh=0 dv=0
PairPos2: "'kern' Horizontal Kerning lookup 15-1" uniFBE8 dx=-212 dy=0 dh=-212 dv=0 dx=0 dy=0 dh=0 dv=0
PairPos2: "'kern' Horizontal Kerning lookup 15-1" uni0649 dx=-85 dy=0 dh=-85 dv=0 dx=0 dy=0 dh=0 dv=0
PairPos2: "'kern' Horizontal Kerning lookup 15-1" uni0648 dx=-85 dy=0 dh=-85 dv=0 dx=0 dy=0 dh=0 dv=0
PairPos2: "'kern' Horizontal Kerning lookup 15-1" afii57412 dx=-85 dy=0 dh=-85 dv=0 dx=0 dy=0 dh=0 dv=0
PairPos2: "'kern' Horizontal Kerning lookup 15-1" uniFEEB dx=-212 dy=0 dh=-212 dv=0 dx=0 dy=0 dh=0 dv=0
PairPos2: "'kern' Horizontal Kerning lookup 15-1" uni0647 dx=-212 dy=0 dh=-212 dv=0 dx=0 dy=0 dh=0 dv=0
PairPos2: "'kern' Horizontal Kerning lookup 15-1" uniFEE7 dx=-212 dy=0 dh=-212 dv=0 dx=0 dy=0 dh=0 dv=0
PairPos2: "'kern' Horizontal Kerning lookup 15-1" uni0646 dx=-159 dy=0 dh=-159 dv=0 dx=0 dy=0 dh=0 dv=0
PairPos2: "'kern' Horizontal Kerning lookup 15-1" uniFEE3 dx=-212 dy=0 dh=-212 dv=0 dx=0 dy=0 dh=0 dv=0
PairPos2: "'kern' Horizontal Kerning lookup 15-1" uni0645 dx=-212 dy=0 dh=-212 dv=0 dx=0 dy=0 dh=0 dv=0
PairPos2: "'kern' Horizontal Kerning lookup 15-1" uniFEFB dx=-212 dy=0 dh=-212 dv=0 dx=0 dy=0 dh=0 dv=0
PairPos2: "'kern' Horizontal Kerning lookup 15-1" uniFEDF dx=-212 dy=0 dh=-212 dv=0 dx=0 dy=0 dh=0 dv=0
PairPos2: "'kern' Horizontal Kerning lookup 15-1" uni0644 dx=-159 dy=0 dh=-159 dv=0 dx=0 dy=0 dh=0 dv=0
PairPos2: "'kern' Horizontal Kerning lookup 15-1" uniFEDB dx=-307 dy=0 dh=-307 dv=0 dx=0 dy=0 dh=0 dv=0
PairPos2: "'kern' Horizontal Kerning lookup 15-1" uni0643 dx=-212 dy=0 dh=-212 dv=0 dx=0 dy=0 dh=0 dv=0
PairPos2: "'kern' Horizontal Kerning lookup 15-1" uniFED7 dx=-212 dy=0 dh=-212 dv=0 dx=0 dy=0 dh=0 dv=0
PairPos2: "'kern' Horizontal Kerning lookup 15-1" uni0642 dx=-159 dy=0 dh=-159 dv=0 dx=0 dy=0 dh=0 dv=0
PairPos2: "'kern' Horizontal Kerning lookup 15-1" uniFED3 dx=-212 dy=0 dh=-212 dv=0 dx=0 dy=0 dh=0 dv=0
PairPos2: "'kern' Horizontal Kerning lookup 15-1" uni0641 dx=-212 dy=0 dh=-212 dv=0 dx=0 dy=0 dh=0 dv=0
PairPos2: "'kern' Horizontal Kerning lookup 15-1" uniFECF dx=-212 dy=0 dh=-212 dv=0 dx=0 dy=0 dh=0 dv=0
PairPos2: "'kern' Horizontal Kerning lookup 15-1" uniFECB dx=-212 dy=0 dh=-212 dv=0 dx=0 dy=0 dh=0 dv=0
PairPos2: "'kern' Horizontal Kerning lookup 15-1" uniFEC7 dx=-212 dy=0 dh=-212 dv=0 dx=0 dy=0 dh=0 dv=0
PairPos2: "'kern' Horizontal Kerning lookup 15-1" uni0638 dx=-212 dy=0 dh=-212 dv=0 dx=0 dy=0 dh=0 dv=0
PairPos2: "'kern' Horizontal Kerning lookup 15-1" uniFEC3 dx=-212 dy=0 dh=-212 dv=0 dx=0 dy=0 dh=0 dv=0
PairPos2: "'kern' Horizontal Kerning lookup 15-1" uni0637 dx=-212 dy=0 dh=-212 dv=0 dx=0 dy=0 dh=0 dv=0
PairPos2: "'kern' Horizontal Kerning lookup 15-1" uniFEBF dx=-212 dy=0 dh=-212 dv=0 dx=0 dy=0 dh=0 dv=0
PairPos2: "'kern' Horizontal Kerning lookup 15-1" uni0636 dx=-212 dy=0 dh=-212 dv=0 dx=0 dy=0 dh=0 dv=0
PairPos2: "'kern' Horizontal Kerning lookup 15-1" uniFEBB dx=-212 dy=0 dh=-212 dv=0 dx=0 dy=0 dh=0 dv=0
PairPos2: "'kern' Horizontal Kerning lookup 15-1" uni0635 dx=-212 dy=0 dh=-212 dv=0 dx=0 dy=0 dh=0 dv=0
PairPos2: "'kern' Horizontal Kerning lookup 15-1" uniFEB7 dx=-212 dy=0 dh=-212 dv=0 dx=0 dy=0 dh=0 dv=0
PairPos2: "'kern' Horizontal Kerning lookup 15-1" uni0634 dx=-212 dy=0 dh=-212 dv=0 dx=0 dy=0 dh=0 dv=0
PairPos2: "'kern' Horizontal Kerning lookup 15-1" uniFEB3 dx=-212 dy=0 dh=-212 dv=0 dx=0 dy=0 dh=0 dv=0
PairPos2: "'kern' Horizontal Kerning lookup 15-1" uni0633 dx=-212 dy=0 dh=-212 dv=0 dx=0 dy=0 dh=0 dv=0
PairPos2: "'kern' Horizontal Kerning lookup 15-1" uni0632 dx=-85 dy=0 dh=-85 dv=0 dx=0 dy=0 dh=0 dv=0
PairPos2: "'kern' Horizontal Kerning lookup 15-1" uni0631 dx=-85 dy=0 dh=-85 dv=0 dx=0 dy=0 dh=0 dv=0
PairPos2: "'kern' Horizontal Kerning lookup 15-1" uni0630 dx=-212 dy=0 dh=-212 dv=0 dx=0 dy=0 dh=0 dv=0
PairPos2: "'kern' Horizontal Kerning lookup 15-1" uni062F dx=-212 dy=0 dh=-212 dv=0 dx=0 dy=0 dh=0 dv=0
PairPos2: "'kern' Horizontal Kerning lookup 15-1" uniFEA7 dx=-212 dy=0 dh=-212 dv=0 dx=0 dy=0 dh=0 dv=0
PairPos2: "'kern' Horizontal Kerning lookup 15-1" uniFEA3 dx=-212 dy=0 dh=-212 dv=0 dx=0 dy=0 dh=0 dv=0
PairPos2: "'kern' Horizontal Kerning lookup 15-1" uniFE9F dx=-212 dy=0 dh=-212 dv=0 dx=0 dy=0 dh=0 dv=0
PairPos2: "'kern' Horizontal Kerning lookup 15-1" uniFE9B dx=-212 dy=0 dh=-212 dv=0 dx=0 dy=0 dh=0 dv=0
PairPos2: "'kern' Horizontal Kerning lookup 15-1" uni062B dx=-212 dy=0 dh=-212 dv=0 dx=0 dy=0 dh=0 dv=0
PairPos2: "'kern' Horizontal Kerning lookup 15-1" uniFE97 dx=-212 dy=0 dh=-212 dv=0 dx=0 dy=0 dh=0 dv=0
PairPos2: "'kern' Horizontal Kerning lookup 15-1" uni062A dx=-212 dy=0 dh=-212 dv=0 dx=0 dy=0 dh=0 dv=0
PairPos2: "'kern' Horizontal Kerning lookup 15-1" uni0629 dx=-212 dy=0 dh=-212 dv=0 dx=0 dy=0 dh=0 dv=0
PairPos2: "'kern' Horizontal Kerning lookup 15-1" uniFE91 dx=-212 dy=0 dh=-212 dv=0 dx=0 dy=0 dh=0 dv=0
PairPos2: "'kern' Horizontal Kerning lookup 15-1" uni0628 dx=-212 dy=0 dh=-212 dv=0 dx=0 dy=0 dh=0 dv=0
PairPos2: "'kern' Horizontal Kerning lookup 15-1" uni0627 dx=-212 dy=0 dh=-212 dv=0 dx=0 dy=0 dh=0 dv=0
PairPos2: "'kern' Horizontal Kerning lookup 15-1" uni0623 dx=-212 dy=0 dh=-212 dv=0 dx=0 dy=0 dh=0 dv=0
PairPos2: "'kern' Horizontal Kerning lookup 15-1" uni0622 dx=-212 dy=0 dh=-212 dv=0 dx=0 dy=0 dh=0 dv=0
PairPos2: "'kern' Horizontal Kerning lookup 15-1" uni0621 dx=-212 dy=0 dh=-212 dv=0 dx=0 dy=0 dh=0 dv=0
PairPos2: "'kern' Horizontal Kerning lookup 15-1" uniFB94 dx=-307 dy=0 dh=-307 dv=0 dx=0 dy=0 dh=0 dv=0
PairPos2: "'kern' Horizontal Kerning lookup 15-1" uniFB92 dx=-307 dy=0 dh=-307 dv=0 dx=0 dy=0 dh=0 dv=0
PairPos2: "'kern' Horizontal Kerning lookup 15-1" afii57509 dx=-307 dy=0 dh=-307 dv=0 dx=0 dy=0 dh=0 dv=0
PairPos2: "'kern' Horizontal Kerning lookup 15-1" afii57508 dx=-85 dy=0 dh=-85 dv=0 dx=0 dy=0 dh=0 dv=0
PairPos2: "'kern' Horizontal Kerning lookup 15-1" uniFB7C dx=-159 dy=0 dh=-159 dv=0 dx=0 dy=0 dh=0 dv=0
PairPos2: "'kern' Horizontal Kerning lookup 15-1" afii57506 dx=-212 dy=0 dh=-212 dv=0 dx=0 dy=0 dh=0 dv=0
PairPos2: "'kern' Horizontal Kerning lookup 15-1" afii57440 dx=-212 dy=0 dh=-212 dv=0 dx=0 dy=0 dh=0 dv=0
PairPos2: "'kern' Horizontal Kerning lookup 15-1" uniFE8B dx=-212 dy=0 dh=-212 dv=0 dx=0 dy=0 dh=0 dv=0
EndChar

StartChar: uniFEB2
Encoding: 65202 65202 188
Width: 2565
VWidth: 2311
GlyphClass: 2
Flags: W
AnchorPoint: "Anchor-10" 640.24 937.57 basechar 0
AnchorPoint: "Anchor-7" 465.34 -740.41 basechar 0
LayerCount: 2
Fore
SplineSet
2572.37597656 185.479492188 m 2,0,1
 2620 185 2620 185 2620.37597656 108 c 2,2,-1
 2620.37597656 74 l 2,3,4
 2620.37597656 -0 2620.37597656 -0 2571.62011719 0 c 2,5,-1
 2519.07128906 0.5302734375 l 2,6,7
 2311.19623268 2.62795334101 2311.19623268 2.62795334101 2239.78515625 138.01953125 c 1,8,9
 2166 2 2166 2 1999.52734375 2.646484375 c 0,10,11
 1783 3 1783 3 1710.54980469 148.805664062 c 1,12,13
 1624 2 1624 2 1479.54296875 0 c 0,14,15
 1371 -1 1371 -1 1297.91308594 67.3935546875 c 1,16,17
 1286 -512 1286 -512 697.784179688 -517.544921875 c 8,18,19
 268 -522 268 -522 135.6796875 -215.763671875 c 0,20,21
 69 -63 69 -63 100.9375 152.783203125 c 0,22,23
 122 296 122 296 183.46484375 433.759765625 c 1,24,-1
 342.200195312 379.267578125 l 1,25,26
 262 184 262 184 261.953125 35.2705078125 c 0,27,28
 262 2 262 2 266.059570312 -29.6796875 c 0,29,30
 307 -344 307 -344 700.129882812 -344.5 c 0,31,32
 1101 -345 1101 -345 1144.95214844 3.57421875 c 0,33,34
 1173 230 1173 230 1032.16015625 410.68359375 c 1,35,-1
 1178.78515625 550.28125 l 1,36,37
 1211 456 1211 456 1278.48828125 308.421875 c 0,38,39
 1337 183 1337 183 1471.54492188 182.322265625 c 0,40,41
 1614 181 1614 181 1633.12792969 373.454101562 c 2,42,-1
 1651.69335938 563.771484375 l 1,43,-1
 1769.70996094 563.771484375 l 1,44,-1
 1795.14941406 371.734375 l 2,45,46
 1820.28372674 182.000707004 1820.28372674 182.000707004 1994.00488281 182.43359375 c 0,47,48
 2148 182 2148 182 2161.12402344 383.801757812 c 2,49,-1
 2177.55175781 631.23046875 l 1,50,-1
 2300.4453125 631.23046875 l 1,51,-1
 2321.46875 382.610351562 l 2,52,53
 2338.17873823 185.000458729 2338.17873823 185.000458729 2525.20898438 185.48046875 c 6,54,-1
 2572.37597656 185.479492188 l 2,0,1
EndSplineSet
EndChar

StartChar: uniFEB3
Encoding: 65203 65203 189
Width: 1622
VWidth: 2311
GlyphClass: 2
Flags: W
AnchorPoint: "Anchor-10" 684.23 1013.89 basechar 0
AnchorPoint: "Anchor-7" 705.43 -198.22 basechar 0
LayerCount: 2
Fore
SplineSet
-3.6240234375 185.479492188 m 6,0,-1
 83.38671875 185.477539062 l 2,1,2
 301.745207121 185.00055657 301.745207121 185.00055657 319.513671875 375.888671875 c 2,3,-1
 336.953125 563.2421875 l 1,4,-1
 455.35546875 563.2421875 l 1,5,-1
 480.176757812 376.092773438 l 2,6,7
 506 182 506 182 682.7734375 181.791992188 c 0,8,9
 836.233703423 180.998792042 836.233703423 180.998792042 854.956054688 372.924804688 c 2,10,-1
 873.521484375 563.2421875 l 1,11,-1
 991.538085938 563.2421875 l 1,12,-1
 1017.47363281 371.538085938 l 2,13,14
 1044 176 1044 176 1200.66015625 177.944335938 c 0,15,16
 1302 179 1302 179 1338.04101562 248.939453125 c 0,17,18
 1372 314 1372 314 1355.71679688 451.670898438 c 0,19,20
 1349 508 1349 508 1316.02636719 689.536132812 c 1,21,-1
 1473.20117188 739.905273438 l 1,22,23
 1517 617 1517 617 1525.609375 486.11328125 c 0,24,25
 1557 3 1557 3 1202.52734375 0.5302734375 c 0,26,27
 996 -1 996 -1 932.377929688 148.275390625 c 1,28,29
 855 -0 855 -0 678.619140625 0.22265625 c 0,30,31
 474 1 474 1 389.09375 136.830078125 c 1,32,33
 288 0 288 0 80.779296875 0 c 2,34,-1
 -4 0 l 6,35,36
 -51.6240234375 0 -51.6240234375 0 -51.6240234375 74 c 6,37,-1
 -51.6240234375 108 l 6,38,39
 -52 185 -52 185 -3.6240234375 185.479492188 c 6,0,-1
EndSplineSet
EndChar

StartChar: uniFEB4
Encoding: 65204 65204 190
Width: 1786
VWidth: 2306
GlyphClass: 2
Flags: W
AnchorPoint: "Anchor-10" 705.43 1008.59 basechar 0
AnchorPoint: "Anchor-7" 804.01 -219.42 basechar 0
LayerCount: 2
Fore
SplineSet
-3.6240234375 185.479492188 m 6,0,-1
 83.38671875 185.477539062 l 2,1,2
 301.745207121 185.00055657 301.745207121 185.00055657 319.513671875 375.888671875 c 2,3,-1
 336.953125 563.2421875 l 1,4,-1
 455.35546875 563.2421875 l 1,5,-1
 480.176757812 376.092773438 l 2,6,7
 506 182 506 182 682.7734375 181.791992188 c 0,8,9
 836.233703423 180.998792042 836.233703423 180.998792042 854.956054688 372.924804688 c 2,10,-1
 873.521484375 563.2421875 l 1,11,-1
 991.538085938 563.2421875 l 1,12,-1
 1016.97753906 371.204101562 l 2,13,14
 1042 182 1042 182 1215.83300781 181.904296875 c 0,15,16
 1369.52276017 181.002799344 1369.52276017 181.002799344 1382.95214844 383.271484375 c 2,17,-1
 1399.37988281 630.700195312 l 1,18,-1
 1522.2734375 630.700195312 l 1,19,-1
 1543.296875 382.080078125 l 2,20,21
 1559.9756334 190.280207348 1559.9756334 190.280207348 1747.03710938 186.432617188 c 2,22,-1
 1793.37597656 185.479492188 l 2,23,24
 1841.37597656 183.988319878 1841.37597656 183.988319878 1841.37597656 108 c 2,25,-1
 1841.37597656 74 l 2,26,27
 1841 0 1841 0 1792.62011719 0 c 2,28,-1
 1740.89941406 0 l 2,29,30
 1532 0 1532 0 1461.61328125 137.489257812 c 1,31,32
 1387 2 1387 2 1221.35546875 2.1171875 c 0,33,34
 1005 2 1005 2 932.377929688 148.275390625 c 1,35,36
 846 1 846 1 681.798828125 1.2822265625 c 0,37,38
 473 2 473 2 389.09375 136.830078125 c 1,39,40
 288 0 288 0 80.779296875 0 c 2,41,-1
 -4 0 l 6,42,43
 -51.6240234375 0 -51.6240234375 0 -51.6240234375 74 c 6,44,-1
 -51.6240234375 108 l 6,45,46
 -52 185 -52 185 -3.6240234375 185.479492188 c 6,0,-1
EndSplineSet
EndChar

StartChar: uniFEBA
Encoding: 65210 65210 196
Width: 2629
VWidth: 2311
GlyphClass: 2
Flags: W
AnchorPoint: "Anchor-10" 668.86 1043.57 basechar 0
AnchorPoint: "Anchor-7" 443.08 -710.73 basechar 0
LayerCount: 2
Fore
SplineSet
2635.62011719 0 m 6,0,-1
 2580.21191406 -0.181640625 l 2,1,2
 2385 -1 2385 -1 2281.81054688 137.783203125 c 1,3,4
 2272 125 2272 125 2254.83691406 113.663085938 c 0,5,6
 2091.25173164 -1.8222863386 2091.25173164 -1.8222863386 1726.72167969 -0.7109375 c 2,7,-1
 1493.52929688 0 l 2,8,9
 1378 0 1378 0 1317.13867188 78.19921875 c 1,10,-1
 1303.38671875 78.408203125 l 1,11,12
 1296 -514 1296 -514 698.844726562 -517.544921875 c 8,13,14
 266 -520 266 -520 133.559570312 -215.763671875 c 0,15,16
 67 -63 67 -63 98.8173828125 152.783203125 c 0,17,18
 120 296 120 296 181.344726562 433.759765625 c 1,19,-1
 340.080078125 379.267578125 l 1,20,21
 260 184 260 184 259.833984375 35.2705078125 c 0,22,23
 260 2 260 2 263.940429688 -29.6796875 c 0,24,25
 305 -344 305 -344 700.129882812 -344.5 c 0,26,27
 1106 -346 1106 -346 1150.25195312 3.57421875 c 0,28,29
 1179 230 1179 230 1037.4609375 410.68359375 c 1,30,-1
 1184.08496094 550.28125 l 1,31,32
 1245 405 1245 405 1283.83496094 308.307617188 c 0,33,34
 1315 230 1315 230 1364.87695312 224.975585938 c 1,35,36
 1731 758 1731 758 2067.03613281 757.188476562 c 0,37,38
 2220 757 2220 757 2314.14648438 669.135742188 c 0,39,40
 2415 576 2415 576 2415.45800781 422.947265625 c 0,41,42
 2416 350 2416 350 2392.94238281 287.608398438 c 1,43,44
 2472.9431393 184.073587572 2472.9431393 184.073587572 2602.88671875 185.19140625 c 2,45,-1
 2636.37597656 185.479492188 l 6,46,47
 2684.37597656 186.004109244 2684.37597656 186.004109244 2684.37597656 108 c 6,48,-1
 2684.37597656 74 l 6,49,50
 2684 0 2684 0 2635.62011719 0 c 6,0,-1
1527.20605469 186.91796875 m 1,51,-1
 1709.99121094 186.91796875 l 2,52,53
 1981.17578125 186.909179688 1981.17578125 186.909179688 2099.81542969 232.807617188 c 0,54,55
 2249.35644531 291.848632812 2249.35644531 291.848632812 2237.85742188 428.157226562 c 0,56,57
 2233.45605469 480.529296875 2233.45605469 480.529296875 2206.1953125 513.896484375 c 0,58,59
 2157.13671875 578.048828125 2157.13671875 578.048828125 2061.78710938 577.580078125 c 0,60,61
 1935.59667969 578.048828125 1935.59667969 578.048828125 1798.890625 471.708984375 c 0,62,63
 1683.31640625 381.94921875 1683.31640625 381.94921875 1527.20605469 186.91796875 c 1,51,-1
EndSplineSet
EndChar

StartChar: uniFEBB
Encoding: 65211 65211 197
Width: 1720
VWidth: 2311
GlyphClass: 2
Flags: W
AnchorPoint: "Anchor-10" 584.378 1137.17 basechar 0
AnchorPoint: "Anchor-7" 710.518 -265 basechar 0
LayerCount: 2
Fore
SplineSet
-3.6240234375 185.479492188 m 2,0,-1
 48.509765625 185.478515625 l 2,1,2
 282.178338404 184.999634513 282.178338404 184.999634513 286.426757812 369.384765625 c 2,3,-1
 291.544921875 591.517578125 l 1,4,-1
 444.928710938 618.0234375 l 1,5,-1
 452.115234375 368.143554688 l 2,6,7
 456 247 456 247 574.0703125 225.686523438 c 1,8,9
 938 758 938 758 1276.22949219 757.900390625 c 0,10,11
 1429 758 1429 758 1523.33984375 669.846679688 c 0,12,13
 1623 578 1623 578 1624.65234375 423.658203125 c 0,14,15
 1626 231 1626 231 1464.03125 114.374023438 c 0,16,17
 1303.83123274 -1.12167222525 1303.83123274 -1.12167222525 935.915039062 0 c 2,18,-1
 702.72265625 0.7109375 l 2,19,20
 451 1 451 1 369.706054688 133.088867188 c 5,21,22
 270 0 270 0 67.830078125 0 c 2,23,-1
 -4 0 l 2,24,25
 -51.6240234375 0 -51.6240234375 0 -51.6240234375 74 c 2,26,-1
 -51.6240234375 108 l 2,27,28
 -52 185 -52 185 -3.6240234375 185.479492188 c 2,0,-1
736.399414062 187.62890625 m 1,29,-1
 919.184570312 187.62890625 l 2,30,31
 1190.37011719 187.620117188 1190.37011719 187.620117188 1309.00878906 233.518554688 c 0,32,33
 1458.54980469 292.559570312 1458.54980469 292.559570312 1447.05078125 428.868164062 c 0,34,35
 1442.64941406 481.240234375 1442.64941406 481.240234375 1415.38867188 514.607421875 c 0,36,37
 1366.33007812 578.759765625 1366.33007812 578.759765625 1270.98046875 578.291015625 c 0,38,39
 1144.79003906 578.759765625 1144.79003906 578.759765625 1008.08398438 472.420898438 c 0,40,41
 892.509765625 382.66015625 892.509765625 382.66015625 736.399414062 187.62890625 c 1,29,-1
EndSplineSet
EndChar

StartChar: uniFEBC
Encoding: 65212 65212 198
Width: 1839
VWidth: 2311
GlyphClass: 2
Flags: W
AnchorPoint: "Anchor-10" 618.51 1205.75 basechar 0
AnchorPoint: "Anchor-7" 709.67 -272.42 basechar 0
LayerCount: 2
Fore
SplineSet
-3.6240234375 185.479492188 m 2,0,-1
 48.509765625 185.478515625 l 2,1,2
 282.178338404 184.999634513 282.178338404 184.999634513 286.426757812 369.384765625 c 2,3,-1
 291.544921875 591.517578125 l 1,4,-1
 444.928710938 618.0234375 l 1,5,-1
 452.115234375 368.143554688 l 2,6,7
 456 247 456 247 574.0703125 225.686523438 c 1,8,9
 939 758 939 758 1276.22949219 757.900390625 c 0,10,11
 1429 758 1429 758 1523.33984375 669.846679688 c 0,12,13
 1624 577 1624 577 1624.65234375 423.658203125 c 0,14,15
 1625 351 1625 351 1602.13574219 288.3203125 c 1,16,17
 1681.97801915 187.027886147 1681.97801915 187.027886147 1801.48046875 185.90234375 c 2,18,-1
 1846.37597656 185.479492188 l 2,19,20
 1894.37597656 184.996214561 1894.37597656 184.996214561 1894.37597656 108 c 2,21,-1
 1894.37597656 74 l 2,22,23
 1893.99768142 -0.456344544809 1893.99768142 -0.456344544809 1845.62011719 0 c 2,24,-1
 1789.40527344 0.5302734375 l 2,25,26
 1594 2 1594 2 1491.00390625 138.494140625 c 1,27,28
 1481 126 1481 126 1464.03125 114.374023438 c 0,29,30
 1294.86180419 -1.09432697909 1294.86180419 -1.09432697909 935.915039062 0 c 2,31,-1
 702.72265625 0.7109375 l 2,32,33
 451 1 451 1 369.706054688 133.088867188 c 5,34,35
 270 0 270 0 67.830078125 0 c 2,36,-1
 -4 0 l 2,37,38
 -51.6240234375 0 -51.6240234375 0 -51.6240234375 74 c 2,39,-1
 -51.6240234375 108 l 2,40,41
 -52 185 -52 185 -3.6240234375 185.479492188 c 2,0,-1
736.399414062 187.62890625 m 1,42,-1
 919.184570312 187.62890625 l 2,43,44
 1190.37011719 187.620117188 1190.37011719 187.620117188 1309.00878906 233.518554688 c 0,45,46
 1458.54980469 292.559570312 1458.54980469 292.559570312 1447.05078125 428.868164062 c 0,47,48
 1442.64941406 481.240234375 1442.64941406 481.240234375 1415.38867188 514.607421875 c 0,49,50
 1366.33007812 578.759765625 1366.33007812 578.759765625 1270.98046875 578.291015625 c 0,51,52
 1144.79003906 578.759765625 1144.79003906 578.759765625 1008.08398438 472.420898438 c 0,53,54
 892.509765625 382.66015625 892.509765625 382.66015625 736.399414062 187.62890625 c 1,42,-1
EndSplineSet
EndChar

StartChar: uniFEC2
Encoding: 65218 65218 204
Width: 1665
VWidth: 2311
GlyphClass: 2
Flags: W
AnchorPoint: "Anchor-7" 702.918 -235.32 basechar 0
AnchorPoint: "Anchor-10" 326.13 1659.42 basechar 0
LayerCount: 2
Fore
SplineSet
1672.37597656 185.479492188 m 2,0,1
 1720.37597656 185.082259666 1720.37597656 185.082259666 1720.37597656 108 c 2,2,-1
 1720.37597656 74 l 2,3,4
 1719.99791173 -0.411014072831 1719.99791173 -0.411014072831 1671.62011719 0 c 2,5,-1
 1609.20507812 0.5302734375 l 2,6,7
 1414 2 1414 2 1310.80371094 138.494140625 c 1,8,9
 1191 0 1191 0 758.905273438 0 c 2,10,-1
 97.2548828125 0 l 1,11,-1
 97.2548828125 185.477539062 l 1,12,-1
 264.129882812 185.479492188 l 1,13,-1
 231.3046875 1467.67480469 l 5,14,-1
 406.149414062 1537.00488281 l 5,15,-1
 406.043945312 255.59375 l 1,16,17
 771 758 771 758 1099.21972656 757.900390625 c 0,18,19
 1250 758 1250 758 1346.33007812 669.846679688 c 0,20,21
 1447 577 1447 577 1447.64257812 423.658203125 c 0,22,23
 1448 351 1448 351 1421.93652344 288.3203125 c 1,24,25
 1502.08791684 186.888741258 1502.08791684 186.888741258 1621.28027344 185.90234375 c 2,26,-1
 1672.37597656 185.479492188 l 2,0,1
559.390625 187.62890625 m 1,27,-1
 742.174804688 187.62890625 l 2,28,29
 1013.36035156 187.620117188 1013.36035156 187.620117188 1131.99902344 233.518554688 c 0,30,31
 1281.54003906 292.559570312 1281.54003906 292.559570312 1270.04101562 428.868164062 c 0,32,33
 1265.63964844 481.240234375 1265.63964844 481.240234375 1238.37890625 514.607421875 c 0,34,35
 1189.3203125 578.759765625 1189.3203125 578.759765625 1093.97070312 578.291015625 c 0,36,37
 967.780273438 578.759765625 967.780273438 578.759765625 831.075195312 472.420898438 c 0,38,39
 715.5 382.66015625 715.5 382.66015625 559.390625 187.62890625 c 1,27,-1
EndSplineSet
EndChar

StartChar: uniFEC3
Encoding: 65219 65219 205
Width: 1472
VWidth: 2311
GlyphClass: 2
Flags: W
AnchorPoint: "Anchor-10" 226.384 1664.38 basechar 0
AnchorPoint: "Anchor-7" 576.185 -249.1 basechar 0
LayerCount: 2
Fore
SplineSet
-3.6240234375 185.479492188 m 2,0,-1
 189.9296875 185.479492188 l 1,1,-1
 157.104492188 1467.67480469 l 5,2,-1
 331.950195312 1537.00488281 l 5,3,-1
 331.84375 255.59375 l 1,4,5
 696 758 696 758 1025.01953125 757.900390625 c 0,6,7
 1176 758 1176 758 1272.13085938 669.846679688 c 0,8,9
 1372 578 1372 578 1373.44238281 423.658203125 c 0,10,11
 1375 229 1375 229 1212.82128906 114.374023438 c 0,12,13
 1050 0 1050 0 684.705078125 0 c 2,14,-1
 -4 0 l 2,15,16
 -51.6240234375 0 -51.6240234375 0 -51.6240234375 74 c 2,17,-1
 -51.6240234375 108 l 2,18,19
 -52 185 -52 185 -3.6240234375 185.479492188 c 2,0,-1
485.190429688 187.62890625 m 1,20,-1
 667.974609375 187.62890625 l 2,21,22
 939.16015625 187.620117188 939.16015625 187.620117188 1057.79882812 233.518554688 c 0,23,24
 1207.33984375 292.559570312 1207.33984375 292.559570312 1195.84179688 428.868164062 c 0,25,26
 1191.44042969 481.240234375 1191.44042969 481.240234375 1164.17871094 514.607421875 c 0,27,28
 1115.12011719 578.759765625 1115.12011719 578.759765625 1019.77050781 578.291015625 c 0,29,30
 893.580078125 578.759765625 893.580078125 578.759765625 756.875 472.420898438 c 0,31,32
 641.299804688 382.66015625 641.299804688 382.66015625 485.190429688 187.62890625 c 1,20,-1
EndSplineSet
EndChar

StartChar: uniFEC4
Encoding: 65220 65220 206
Width: 1600
VWidth: 2311
GlyphClass: 2
Flags: W
AnchorPoint: "Anchor-10" 247.267 1653.06 basechar 0
AnchorPoint: "Anchor-7" 627.233 -219.42 basechar 0
LayerCount: 2
Fore
SplineSet
-3.6240234375 185.479492188 m 2,0,-1
 189.9296875 185.479492188 l 1,1,-1
 157.104492188 1467.67480469 l 5,2,-1
 331.950195312 1537.00488281 l 5,3,-1
 331.84375 255.59375 l 1,4,5
 696 758 696 758 1025.01953125 757.900390625 c 0,6,7
 1176 758 1176 758 1272.13085938 669.846679688 c 0,8,9
 1373 577 1373 577 1373.44238281 423.658203125 c 0,10,11
 1374 351 1374 351 1347.73632812 288.3203125 c 1,12,13
 1428.20915188 186.735978511 1428.20915188 186.735978511 1547.08007812 185.90234375 c 2,14,-1
 1607.37597656 185.479492188 l 2,15,16
 1655.37597656 184.996214561 1655.37597656 184.996214561 1655.37597656 108 c 2,17,-1
 1655.37597656 74 l 2,18,19
 1654.99818 -0.358214308573 1654.99818 -0.358214308573 1606.62011719 0 c 2,20,-1
 1535.00488281 0.5302734375 l 2,21,22
 1340 2 1340 2 1236.60351562 138.494140625 c 1,23,24
 1117 0 1117 0 684.705078125 0 c 2,25,-1
 -4 0 l 2,26,27
 -51.6240234375 0 -51.6240234375 0 -51.6240234375 74 c 2,28,-1
 -51.6240234375 108 l 2,29,30
 -52 185 -52 185 -3.6240234375 185.479492188 c 2,0,-1
485.190429688 187.62890625 m 1,31,-1
 667.974609375 187.62890625 l 2,32,33
 939.16015625 187.620117188 939.16015625 187.620117188 1057.79882812 233.518554688 c 0,34,35
 1207.33984375 292.559570312 1207.33984375 292.559570312 1195.84179688 428.868164062 c 0,36,37
 1191.44042969 481.240234375 1191.44042969 481.240234375 1164.17871094 514.607421875 c 0,38,39
 1115.12011719 578.759765625 1115.12011719 578.759765625 1019.77050781 578.291015625 c 0,40,41
 893.580078125 578.759765625 893.580078125 578.759765625 756.875 472.420898438 c 0,42,43
 641.299804688 382.66015625 641.299804688 382.66015625 485.190429688 187.62890625 c 1,31,-1
EndSplineSet
EndChar

StartChar: uniFECA
Encoding: 65226 65226 212
Width: 1268
VWidth: 2311
GlyphClass: 2
Flags: W
AnchorPoint: "Anchor-10" 519.4 1204.21 basechar 0
AnchorPoint: "Anchor-7" 375.972 -808.398 basechar 0
LayerCount: 2
Fore
SplineSet
1275.37597656 185.479492188 m 6,0,1
 1323 185 1323 185 1323.37597656 108 c 6,2,-1
 1323.37597656 74 l 6,3,4
 1323.37597656 -0 1323.37597656 -0 1274.62011719 0 c 6,5,-1
 1220.72265625 0.5302734375 l 2,6,7
 856.888940642 4.10987350953 856.888940642 4.10987350953 599.360351562 258.888671875 c 1,8,-1
 587.723632812 256.919921875 l 1,9,10
 270 84 270 84 265.084960938 -140.095703125 c 24,11,12
 262 -293 262 -293 378.986328125 -387.198242188 c 0,13,14
 493 -479 493 -479 776.735351562 -479.671875 c 0,15,16
 953 -480 953 -480 1100.33105469 -438.1875 c 1,17,-1
 1154.33984375 -593.599609375 l 1,18,19
 973 -649 973 -649 778.907226562 -648.865234375 c 0,20,21
 367 -649 367 -649 206.868164062 -461.09765625 c 0,22,23
 96 -332 96 -332 96.4599609375 -143.330078125 c 0,24,25
 97 138 97 138 467.459960938 358.280273438 c 1,26,27
 399 388 399 388 269.10546875 497.270507812 c 0,28,29
 170 581 170 581 176.87890625 682.350585938 c 0,30,31
 193 907 193 907 622.219726562 908.586914062 c 0,32,33
 1020 910 1020 910 1051.51953125 682.955078125 c 0,34,35
 1077 505 1077 505 747.583007812 343.015625 c 1,36,37
 946 188 946 188 1222.70996094 185.90234375 c 2,38,-1
 1275.37597656 185.479492188 l 6,0,1
889.19921875 648.767578125 m 0,39,40
 889.33984375 745.1796875 889.33984375 745.1796875 621.862304688 745.178710938 c 0,41,42
 477 745.1796875 477 745.1796875 392.419921875 711.017578125 c 0,43,44
 329.66015625 685.8203125 329.66015625 685.8203125 346.412109375 647.711914062 c 0,45,46
 360.400390625 613.740234375 360.400390625 613.740234375 451.538085938 555.55859375 c 0,47,48
 601.01953125 460.040039062 601.01953125 460.040039062 621.885742188 450.309570312 c 1,49,50
 737.759765625 502.440429688 737.759765625 502.440429688 813.651367188 561.602539062 c 0,51,52
 889.33984375 620.099609375 889.33984375 620.099609375 889.19921875 648.767578125 c 0,39,40
EndSplineSet
EndChar

StartChar: uniFECB
Encoding: 65227 65227 213
Width: 1084
VWidth: 2311
GlyphClass: 2
Flags: W
AnchorPoint: "Anchor-10" 398.841 1292.38 basechar 0
AnchorPoint: "Anchor-7" 531.696 -257.05 basechar 0
LayerCount: 2
Fore
SplineSet
-3.6240234375 185.479492188 m 6,0,-1
 259.887695312 185.51953125 l 1,1,2
 128.148056898 320.820904048 128.148056898 320.820904048 127.4453125 469.674804688 c 0,3,4
 127 561 127 561 159.5703125 640.203125 c 0,5,6
 262 888 262 888 560.723632812 888.280273438 c 0,7,8
 762 888 762 888 913.3203125 747.583007812 c 1,9,-1
 852.372070312 609.575195312 l 1,10,11
 706 702 706 702 568.587890625 701.682617188 c 0,12,13
 366.571593735 702.002260114 366.571593735 702.002260114 312.700195312 561.247070312 c 0,14,15
 295 515 295 515 295.377929688 457.994140625 c 0,16,17
 297 339 297 339 447.374023438 216.703125 c 0,18,19
 478.919358129 191.065539418 478.919358129 191.065539418 673.258789062 224.151367188 c 2,20,-1
 987.919921875 277.721679688 l 1,21,-1
 987.919921875 110.21484375 l 1,22,23
 559.8964462 -0.0266712654913 559.8964462 -0.0266712654913 346.998046875 -0.0166015625 c 2,24,-1
 -4 0 l 6,25,26
 -51.6240234375 0 -51.6240234375 0 -51.6240234375 74 c 6,27,-1
 -51.6240234375 108 l 6,28,29
 -52 185 -52 185 -3.6240234375 185.479492188 c 6,0,-1
EndSplineSet
EndChar

StartChar: uniFECC
Encoding: 65228 65228 214
Width: 1079
VWidth: 2311
GlyphClass: 2
Flags: W
AnchorPoint: "Anchor-10" 488.215 1135.79 basechar 0
AnchorPoint: "Anchor-7" 526.375 -209.35 basechar 0
LayerCount: 2
Fore
SplineSet
-3.6240234375 185.479492188 m 6,0,-1
 83.4794921875 185.479492188 l 2,1,2
 278 185 278 185 407.421875 268.689453125 c 1,3,4
 93 407 93 407 92.099609375 589.436523438 c 0,5,6
 92 608 92 608 96.5380859375 628.217773438 c 0,7,8
 131 780 131 780 359.90625 814.041992188 c 0,9,10
 447 827 447 827 536.774414062 826.592773438 c 0,11,12
 624 827 624 827 702.055664062 817.2421875 c 0,13,14
 903 793 903 793 959.560546875 681.916015625 c 0,15,16
 980 642 980 642 980.208984375 601.081054688 c 0,17,18
 981 428 981 428 688.493164062 267.9453125 c 1,19,20
 851.061301641 185.476191887 851.061301641 185.476191887 1021.67480469 185.478515625 c 2,21,-1
 1093.37597656 185.479492188 l 2,22,23
 1141.37597656 184.996214561 1141.37597656 184.996214561 1141.37597656 108 c 2,24,-1
 1141.37597656 74 l 2,25,26
 1140.99828266 -0.338008490321 1140.99828266 -0.338008490321 1092.62011719 0 c 2,27,-1
 1016.72363281 0.5302734375 l 2,28,29
 775 2 775 2 549.111328125 172.913085938 c 1,30,31
 324 0 324 0 77.232421875 0 c 2,32,-1
 -4 0 l 6,33,34
 -51.6240234375 0 -51.6240234375 0 -51.6240234375 74 c 6,35,-1
 -51.6240234375 108 l 6,36,37
 -52 185 -52 185 -3.6240234375 185.479492188 c 6,0,-1
819.673828125 564.745117188 m 0,38,39
 819.389648438 661.430664062 819.389648438 661.430664062 535.291992188 660.907226562 c 128,-1,40
 251.1953125 660.3828125 251.1953125 660.3828125 250.529296875 577.09765625 c 0,41,42
 250.05078125 528.360351562 250.05078125 528.360351562 451.499023438 417.603515625 c 0,43,44
 502.236328125 389.70703125 502.236328125 389.70703125 552.395507812 366.267578125 c 1,45,46
 638.650390625 403.135742188 638.650390625 403.135742188 748.177734375 480.391601562 c 0,47,48
 819.393554688 531.639648438 819.393554688 531.639648438 819.673828125 564.745117188 c 0,38,39
EndSplineSet
EndChar

StartChar: uniFEDA
Encoding: 65242 65242 228
Width: 1956
VWidth: 2311
GlyphClass: 2
Flags: W
AnchorPoint: "Anchor-10" 574.52 1452.73 basechar 0
AnchorPoint: "Anchor-7" 607.38 -239.03 basechar 0
LayerCount: 2
Fore
SplineSet
732.576171875 784.887695312 m 2,0,1
 800.572265625 775.920898438 800.572265625 775.920898438 859.859375 776.087890625 c 0,2,3
 926.440429688 775.919921875 926.440429688 775.919921875 966.28125 791.7421875 c 0,4,5
 1044.09960938 822.559570312 1044.09960938 822.559570312 1043.51757812 869.092773438 c 0,6,7
 1043.04003906 892.51953125 1043.04003906 892.51953125 1023.1484375 907.950195312 c 0,8,9
 1002.75976562 923.259765625 1002.75976562 923.259765625 955.814453125 931.329101562 c 0,10,11
 886.16015625 942.33984375 886.16015625 942.33984375 850.266601562 981.633789062 c 0,12,13
 814.080078125 1021.83984375 814.080078125 1021.83984375 815.541015625 1076.2421875 c 0,14,15
 818.3203125 1178.71972656 818.3203125 1178.71972656 907.43359375 1224.10742188 c 0,16,17
 990.977539062 1266.63769531 990.977539062 1266.63769531 1112.80957031 1274.359375 c 2,18,-1
 1129.71582031 1275.43066406 l 1,19,-1
 1129.71582031 1182.32324219 l 1,20,-1
 1114.98535156 1181.23632812 l 2,21,22
 1039.86035156 1175.54003906 1039.86035156 1175.54003906 1002.64746094 1161.69726562 c 0,23,24
 911.599609375 1127.83984375 911.599609375 1127.83984375 911.950195312 1079.66308594 c 0,25,26
 911.599609375 1037.74023438 911.599609375 1037.74023438 954.403320312 1023.06542969 c 0,27,28
 978.379882812 1014.41992188 978.379882812 1014.41992188 1024.33691406 1007.75097656 c 0,29,30
 1139.5 990.040039062 1139.5 990.040039062 1139.55273438 876.780273438 c 0,31,32
 1139.5 779.099609375 1139.5 779.099609375 1027.10253906 715.190429688 c 0,33,34
 919.334960938 653.141601562 919.334960938 653.141601562 727.874023438 685.163085938 c 2,35,-1
 714.59765625 687.383789062 l 1,36,-1
 714.59765625 787.258789062 l 1,37,-1
 732.576171875 784.887695312 l 2,0,1
1712.28710938 267.416992188 m 1,38,39
 1772.0716231 185.90234375 1772.0716231 185.90234375 1936.58789062 185.90234375 c 2,40,-1
 1988.79296875 185.90234375 l 1,41,-1
 1988.79296875 0.5302734375 l 1,42,-1
 1924.03710938 0.5302734375 l 2,43,44
 1738 1 1738 1 1610.71875 128.477539062 c 1,45,46
 1490 55 1490 55 1322.71875 27.490234375 c 0,47,48
 1161 1 1161 1 913.143554688 1.041015625 c 0,49,50
 555 1 555 1 405.7421875 64.771484375 c 0,51,52
 258 127 258 127 181.387695312 226.663085938 c 0,53,54
 107 324 107 324 95.4228515625 465.737304688 c 0,55,56
 84 606 84 606 124.734375 751.975585938 c 1,57,-1
 266.969726562 714.446289062 l 1,58,59
 244 567 244 567 246.486328125 507.09375 c 0,60,61
 260 248 260 248 587.475585938 200.705078125 c 0,62,63
 668 189 668 189 879.3515625 188.149414062 c 0,64,65
 1091 188 1091 188 1202.02734375 193.40234375 c 0,66,67
 1606.11957683 211.005208947 1606.11957683 211.005208947 1597.87011719 466.272460938 c 2,68,-1
 1565.99121094 1452.71777344 l 5,69,-1
 1738.71777344 1537.50097656 l 5,70,-1
 1738.71777344 434.368164062 l 1,71,72
 1736 338 1736 338 1712.28710938 267.416992188 c 1,38,39
EndSplineSet
EndChar

StartChar: uniFEDB
Encoding: 65243 65243 229
Width: 956
VWidth: 2311
GlyphClass: 2
Flags: W
AnchorPoint: "Anchor-10" 222.07 1465.98 basechar 0
AnchorPoint: "Anchor-7" 326.48 -240.62 basechar 0
LayerCount: 2
Fore
SplineSet
-3.6240234375 185.479492188 m 2,0,-1
 255.329101562 185.637695312 l 2,1,2
 481 186 481 186 510.853515625 329.215820312 c 0,3,4
 527.908020357 410.561281517 527.908020357 410.561281517 446.944335938 500.44921875 c 2,5,-1
 170.327148438 807.556640625 l 2,6,7
 74 914 74 914 71.419921875 987.796875 c 0,8,9
 66.9972612324 1115.07882035 66.9972612324 1115.07882035 193.926757812 1178.30566406 c 2,10,-1
 913.985351562 1536.98535156 l 5,11,-1
 913.985351562 1352.93359375 l 5,12,-1
 216.974609375 1005.1015625 l 1,13,-1
 565.220703125 620.109375 l 2,14,15
 698 473 698 473 659.227539062 286.499023438 c 0,16,17
 599 0 599 0 220.52734375 0 c 2,18,-1
 -4 0 l 2,19,20
 -51.6240234375 0 -51.6240234375 0 -51.6240234375 74 c 2,21,-1
 -51.6240234375 108 l 2,22,23
 -52 185 -52 185 -3.6240234375 185.479492188 c 2,0,-1
EndSplineSet
EndChar

StartChar: uniFEDC
Encoding: 65244 65244 230
Width: 1090
VWidth: 2311
GlyphClass: 2
Flags: W
AnchorPoint: "Anchor-10" 222.07 1465.98 basechar 0
AnchorPoint: "Anchor-7" 349.2 -230.02 basechar 0
LayerCount: 2
Fore
SplineSet
-3.6240234375 185.479492188 m 2,0,-1
 255.329101562 185.637695312 l 2,1,2
 481 186 481 186 510.853515625 329.215820312 c 0,3,4
 527.908020357 410.561281517 527.908020357 410.561281517 446.944335938 500.44921875 c 2,5,-1
 170.327148438 807.556640625 l 2,6,7
 74 914 74 914 71.419921875 987.796875 c 0,8,9
 66.9972219975 1115.07994951 66.9972219975 1115.07994951 193.926757812 1178.30664062 c 2,10,-1
 913.985351562 1536.98535156 l 5,11,-1
 913.985351562 1352.93261719 l 5,12,-1
 216.967773438 1005.09765625 l 1,13,-1
 866.834960938 283.708984375 l 2,14,15
 954.430391263 186.522483987 954.430391263 186.522483987 1052.27148438 185.80859375 c 2,16,-1
 1097.37597656 185.479492188 l 2,17,18
 1145.37597656 184.996214561 1145.37597656 184.996214561 1145.37597656 108 c 2,19,-1
 1145.37597656 74 l 2,20,21
 1145.0023827 -0.524696827931 1145.0023827 -0.524696827931 1096.62011719 0 c 2,22,-1
 1047.72363281 0.5302734375 l 2,23,24
 858 3 858 3 653.04296875 272.512695312 c 1,25,26
 619 0 619 0 222.927734375 0 c 2,27,-1
 -4 0 l 2,28,29
 -51.6240234375 0 -51.6240234375 0 -51.6240234375 74 c 2,30,-1
 -51.6240234375 108 l 2,31,32
 -52 185 -52 185 -3.6240234375 185.479492188 c 2,0,-1
EndSplineSet
EndChar

StartChar: uniFEDE
Encoding: 65246 65246 232
Width: 1500
VWidth: 2311
GlyphClass: 2
Flags: W
AnchorPoint: "Anchor-10" 470.11 936.51 basechar 0
AnchorPoint: "Anchor-7" 417.612 -817.916 basechar 0
LayerCount: 2
Fore
SplineSet
1507.37597656 185.479492188 m 6,0,1
 1555 185 1555 185 1555.37597656 108 c 6,2,-1
 1555.37597656 74 l 6,3,4
 1555.37597656 -1.00777134091 1555.37597656 -1.00777134091 1506.62011719 0 c 6,5,-1
 1469.03515625 0.5302734375 l 2,6,7
 1290.95638056 3.04272634884 1290.95638056 3.04272634884 1225.27441406 67.3798828125 c 1,8,9
 1220 -487 1220 -487 688.490234375 -486.970703125 c 0,10,11
 282 -487 282 -487 151.826171875 -185.189453125 c 0,12,13
 86 -32 86 -32 117.083007812 183.357421875 c 0,14,15
 138 326 138 326 199.611328125 464.333984375 c 1,16,-1
 358.346679688 409.842773438 l 1,17,18
 279 217 279 217 278.099609375 65.845703125 c 0,19,20
 278 33 278 33 282.206054688 0.89453125 c 0,21,22
 323 -313 323 -313 690.8359375 -313.924804688 c 0,23,24
 1091 -315 1091 -315 1082.83203125 142.38671875 c 2,25,-1
 1058.77539062 1494.60839844 l 1,26,-1
 1231.49707031 1566.171875 l 1,27,-1
 1231.49707031 415.399414062 l 2,28,29
 1231.49707031 187.995346891 1231.49707031 187.995346891 1455.08300781 185.90234375 c 2,30,-1
 1507.37597656 185.479492188 l 6,0,1
EndSplineSet
EndChar

StartChar: uniFEDF
Encoding: 65247 65247 233
Width: 561
VWidth: 2311
GlyphClass: 2
Flags: W
AnchorPoint: "Anchor-10" 318.773 1655.4 basechar 0
AnchorPoint: "Anchor-7" 247.754 -202.99 basechar 0
LayerCount: 2
Fore
SplineSet
-3.6240234375 185.479492188 m 2,0,-1
 38.0009765625 185.479492188 l 2,1,2
 288.02008593 184.999961476 288.02008593 184.999961476 279.08984375 479.5546875 c 2,3,-1
 249.323242188 1461.375 l 1,4,-1
 423.120117188 1537.33203125 l 1,5,-1
 423.120117188 466.072265625 l 2,6,7
 423 220 423 220 323.564453125 109.7265625 c 0,8,9
 224 0 224 0 47.3818359375 0 c 2,10,-1
 -4 0 l 2,11,12
 -51.6240234375 0 -51.6240234375 0 -51.6240234375 74 c 2,13,-1
 -51.6240234375 108 l 2,14,15
 -52 185 -52 185 -3.6240234375 185.479492188 c 2,0,-1
EndSplineSet
EndChar

StartChar: uniFEE0
Encoding: 65248 65248 234
Width: 688
VWidth: 2311
GlyphClass: 2
Flags: W
AnchorPoint: "Anchor-10" 327.574 1651.16 basechar 0
AnchorPoint: "Anchor-7" 291.534 -255.99 basechar 0
LayerCount: 2
Fore
SplineSet
-3.6240234375 185.479492188 m 2,0,-1
 88.7109375 185.479492188 l 6,1,2
 288.747967008 185.000603367 288.747967008 185.000603367 281.529296875 427.384765625 c 6,3,-1
 250.705078125 1462.38183594 l 5,4,-1
 423.440429688 1536.15332031 l 5,5,-1
 423.440429688 427.50390625 l 6,6,7
 423.000870842 185.479492188 423.000870842 185.479492188 642.266601562 185.479492188 c 6,8,-1
 695.375976562 185.479492188 l 6,9,10
 743.375976562 184.996214561 743.375976562 184.996214561 743.375976562 108 c 6,11,-1
 743.375976562 74 l 6,12,13
 743 0 743 0 694.620117188 0 c 6,14,-1
 632.885742188 0 l 6,15,16
 466 0 466 0 358.165039062 114.334960938 c 5,17,18
 255 0 255 0 86.921875 0 c 6,19,-1
 -4 0 l 2,20,21
 -51.6240234375 0 -51.6240234375 0 -51.6240234375 74 c 2,22,-1
 -51.6240234375 108 l 2,23,24
 -52 185 -52 185 -3.6240234375 185.479492188 c 2,0,-1
EndSplineSet
EndChar

StartChar: uniFEE2
Encoding: 65250 65250 236
Width: 1187
VWidth: 2311
GlyphClass: 2
Flags: W
AnchorPoint: "Anchor-10" 579.29 1053.64 basechar 0
AnchorPoint: "Anchor-7" 195.239 -800.747 basechar 0
LayerCount: 2
Fore
SplineSet
1194.37597656 185.479492188 m 6,0,1
 1242 186 1242 186 1242.37597656 108 c 6,2,-1
 1242.37597656 74 l 6,3,4
 1242.37597656 -1.00777134091 1242.37597656 -1.00777134091 1193.62011719 0 c 6,5,-1
 1154.86425781 0.7529296875 l 2,6,7
 1019.66590533 3.37949648079 1019.66590533 3.37949648079 952.270507812 79.93359375 c 1,8,9
 903 -80 903 -80 725.040039062 -79.93359375 c 0,10,11
 650 -80 650 -80 585.522460938 -54.3603515625 c 0,12,13
 360 36 360 36 345.77734375 359.295898438 c 1,14,15
 225 314 225 314 238.97265625 23.623046875 c 2,16,-1
 267.727539062 -591.416015625 l 1,17,-1
 96.369140625 -677.1875 l 1,18,-1
 96.369140625 86.40234375 l 2,19,20
 96.369140625 368.265993068 96.369140625 368.265993068 283.20703125 502.896484375 c 0,21,22
 473 640 473 640 694.948242188 643.083007812 c 0,23,24
 935 647 935 647 982.913085938 412.659179688 c 0,25,26
 995 354 995 354 1005.01855469 261.342773438 c 1,27,28
 1056 184 1056 184 1169.76660156 185.1953125 c 2,29,-1
 1194.37597656 185.479492188 l 6,0,1
485.21484375 416.708984375 m 1,30,31
 494.13671875 195.979492188 494.13671875 195.979492188 613.393554688 115.482421875 c 0,32,33
 663.559570312 81.6201171875 663.559570312 81.6201171875 728.219726562 80.6875 c 0,34,35
 850.12109375 81.3798828125 850.12109375 81.3798828125 850.005859375 249.099609375 c 0,36,37
 850.120117188 301.040039062 850.120117188 301.040039062 839.326171875 368.967773438 c 0,38,39
 820.440429688 485.48046875 820.440429688 485.48046875 711.435546875 488.12109375 c 0,40,41
 581.940429688 490.780273438 581.940429688 490.780273438 485.21484375 416.708984375 c 1,30,31
EndSplineSet
EndChar

StartChar: uniFEE3
Encoding: 65251 65251 237
Width: 968
VWidth: 2311
GlyphClass: 2
Flags: W
AnchorPoint: "Anchor-10" 406.711 1031.91 basechar 0
AnchorPoint: "Anchor-7" 368.552 -218.89 basechar 0
LayerCount: 2
Fore
SplineSet
-3.6240234375 185.479492188 m 6,0,-1
 57.1962890625 185.477539062 l 2,1,2
 131.757603304 185.007826701 131.757603304 185.007826701 164.03125 250.689453125 c 0,3,4
 260 446 260 446 312.495117188 534.240234375 c 0,5,6
 408.696515146 693.150538726 408.696515146 693.150538726 549.080078125 694.403320312 c 0,7,8
 729 696 729 696 828.071289062 457.501953125 c 0,9,10
 871 353 871 353 870.259765625 249.099609375 c 0,11,12
 870 167 870 167 844.8203125 107.920898438 c 8,13,14
 814 35 814 35 751.540039062 -5.896484375 c 0,15,16
 687 -49 687 -49 587.240234375 -47.552734375 c 0,17,18
 418 -46 418 -46 268.999023438 93.8359375 c 1,19,20
 210 0 210 0 41.3193359375 0 c 2,21,-1
 -4 0 l 6,22,23
 -51.6240234375 0 -51.6240234375 0 -51.6240234375 74 c 6,24,-1
 -51.6240234375 108 l 6,25,26
 -52 185 -52 185 -3.6240234375 185.479492188 c 6,0,-1
330.936523438 245.408203125 m 1,27,28
 478.059570312 114.48046875 478.059570312 114.48046875 585.120117188 114.466796875 c 0,29,30
 656.701171875 114.513671875 656.701171875 114.513671875 691.120117188 171.610351562 c 0,31,32
 742 255.459960938 742 255.459960938 667.834960938 411.1484375 c 0,33,34
 624.33984375 502.440429688 624.33984375 502.440429688 553.466796875 511.474609375 c 0,35,36
 486.0078125 520.002929688 486.0078125 520.002929688 429.299804688 428.240234375 c 0,37,38
 373.120117188 339.200195312 373.120117188 339.200195312 330.936523438 245.408203125 c 1,27,28
EndSplineSet
EndChar

StartChar: uniFEE4
Encoding: 65252 65252 238
Width: 1087
VWidth: 2311
GlyphClass: 2
Flags: W
AnchorPoint: "Anchor-10" 461.938 995.87 basechar 0
AnchorPoint: "Anchor-7" 423.777 -228.43 basechar 0
LayerCount: 2
Fore
SplineSet
-3.6240234375 185.479492188 m 6,0,-1
 57.1962890625 185.477539062 l 2,1,2
 133 185 133 185 164.03125 250.689453125 c 0,3,4
 236 403 236 403 312.495117188 534.240234375 c 0,5,6
 404 692 404 692 549.080078125 694.403320312 c 0,7,8
 729 697 729 697 828.071289062 457.501953125 c 0,9,10
 844 419 844 419 862.350585938 347.6796875 c 24,11,12
 904.927786484 186.273754258 904.927786484 186.273754258 1066.65722656 185.595703125 c 2,13,-1
 1094.37597656 185.479492188 l 2,14,15
 1142.37597656 184.996214561 1142.37597656 184.996214561 1142.37597656 108 c 2,16,-1
 1142.37597656 74 l 2,17,18
 1141.99817447 -0.359301510188 1141.99817447 -0.359301510188 1093.62011719 0 c 2,19,-1
 1063.640625 0.22265625 l 2,20,21
 915 1 915 1 845.879882812 107.920898438 c 1,22,23
 815 36 815 36 751.540039062 -5.896484375 c 0,24,25
 687 -49 687 -49 587.240234375 -47.552734375 c 0,26,27
 418 -46 418 -46 268.999023438 93.8359375 c 1,28,29
 210 0 210 0 41.3193359375 0 c 2,30,-1
 -4 0 l 6,31,32
 -51.6240234375 0 -51.6240234375 0 -51.6240234375 74 c 6,33,-1
 -51.6240234375 108 l 6,34,35
 -52 185 -52 185 -3.6240234375 185.479492188 c 6,0,-1
330.936523438 245.408203125 m 1,36,37
 478.059570312 114.48046875 478.059570312 114.48046875 585.120117188 114.466796875 c 0,38,39
 656.701171875 114.513671875 656.701171875 114.513671875 691.120117188 171.610351562 c 0,40,41
 742 255.459960938 742 255.459960938 667.834960938 411.1484375 c 0,42,43
 624.33984375 502.440429688 624.33984375 502.440429688 553.466796875 511.474609375 c 0,44,45
 486.0078125 520.002929688 486.0078125 520.002929688 429.299804688 428.240234375 c 0,46,47
 373.120117188 339.200195312 373.120117188 339.200195312 330.936523438 245.408203125 c 1,36,37
EndSplineSet
EndChar

StartChar: uniFEEA
Encoding: 65258 65258 244
Width: 1144
VWidth: 2311
GlyphClass: 2
Flags: W
AnchorPoint: "Anchor-10" 634.887 1260.14 basechar 0
AnchorPoint: "Anchor-7" 421.753 -193.98 basechar 0
LayerCount: 2
Fore
SplineSet
1151.37597656 185.479492188 m 6,0,1
 1199 185 1199 185 1199.37597656 108 c 6,2,-1
 1199.37597656 74 l 6,3,4
 1199.37597656 0 1199.37597656 0 1150.62011719 0 c 6,5,-1
 1102.75976562 0 l 2,6,7
 811 0 811 0 757.40625 255.259765625 c 1,8,9
 227 171 227 171 118.719726562 376.299804688 c 0,10,11
 99 414 99 414 97.103515625 465.278320312 c 0,12,13
 87 740 87 740 683.373046875 855.395507812 c 1,14,15
 683 872 683 872 668.592773438 976.579101562 c 1,16,-1
 826.462890625 1015.23144531 l 1,17,-1
 894.16015625 417.705078125 l 2,18,19
 920.411509953 185.998880435 920.411509953 185.998880435 1103.78125 185.5 c 2,20,-1
 1151.37597656 185.479492188 l 6,0,1
738.801757812 411.670898438 m 1,21,22
 722.919921875 577.700195312 722.919921875 577.700195312 704.403320312 697.138671875 c 1,23,24
 277.719726562 617.98046875 277.719726562 617.98046875 262.879882812 500.3203125 c 0,25,26
 252.280273438 415.51953125 252.280273438 415.51953125 343.440429688 397.5 c 0,27,28
 474.879882812 371 474.879882812 371 738.801757812 411.670898438 c 1,21,22
EndSplineSet
EndChar

StartChar: uniFEEB
Encoding: 65259 65259 245
Width: 1220
VWidth: 2311
GlyphClass: 2
Flags: W
AnchorPoint: "Anchor-10" 592.329 1289.2 basechar 0
AnchorPoint: "Anchor-7" 405.494 -241.623 basechar 0
LayerCount: 2
Fore
SplineSet
-3.6240234375 185.479492188 m 6,0,-1
 180.254882812 186.399414062 l 1,1,2
 105 274 105 274 110.8515625 413.240234375 c 0,3,4
 116 524 116 524 180.200195312 614.4609375 c 0,5,6
 281 757 281 757 433.67578125 774.2109375 c 1,7,-1
 366.044921875 810.290039062 l 1,8,-1
 422.010742188 940.225585938 l 1,9,-1
 776.895507812 714.850585938 l 1,10,11
 1106.12440875 497.239712094 1106.12440875 497.239712094 1128.95410156 291.530273438 c 0,12,13
 1140 192 1140 192 1092.86035156 105.961914062 c 0,14,15
 1025 -16 1025 -16 858.5 -25.8798828125 c 0,16,17
 646 -38 646 -38 396.65625 64.8369140625 c 1,18,19
 254 0 254 0 30.34765625 0 c 2,20,-1
 -4 0 l 6,21,22
 -51.6240234375 0 -51.6240234375 0 -51.6240234375 74 c 6,23,-1
 -51.6240234375 108 l 6,24,25
 -52 185 -52 185 -3.6240234375 185.479492188 c 6,0,-1
753.462890625 536.1015625 m 1,26,27
 754.719726562 321.1796875 754.719726562 321.1796875 569.404296875 173.2578125 c 1,28,29
 945.666015625 64.310546875 945.666015625 64.310546875 977.3359375 238.237304688 c 0,30,31
 999.580078125 360.400390625 999.580078125 360.400390625 753.462890625 536.1015625 c 1,26,27
604.015625 417.7265625 m 0,32,33
 668 560 668 560 592.408203125 609.486328125 c 128,-1,34
 517 659 517 659 449.440429688 639.1796875 c 0,35,36
 383 619 383 619 333.985351562 556.994140625 c 0,37,38
 279 488 279 488 268.78515625 414.291015625 c 0,39,40
 247 255 247 255 408.545898438 224.122070312 c 1,41,42
 548 294 548 294 604.015625 417.7265625 c 0,32,33
EndSplineSet
EndChar

StartChar: uniFEEC
Encoding: 65260 65260 246
Width: 1014
VWidth: 2311
GlyphClass: 2
Flags: W
AnchorPoint: "Anchor-7" 293.493 -731.658 basechar 0
AnchorPoint: "Anchor-10" 441.766 1150.88 basechar 0
LayerCount: 2
Fore
SplineSet
-3.6240234375 185.479492188 m 6,0,-1
 182.202148438 185.5390625 l 1,1,2
 172 505 172 505 230.22265625 636.58203125 c 0,3,4
 312 821 312 821 472.328125 820.495117188 c 0,5,6
 718 820 718 820 718.126953125 504.486328125 c 0,7,8
 718 230 718 230 547.703125 76.484375 c 0,9,10
 464 1 464 1 342.616210938 0.013671875 c 1,11,12
 348 -201 348 -201 442.522460938 -360.747070312 c 1,13,14
 488 -64 488 -64 701.240234375 100.061523438 c 0,15,16
 817.188525054 189.144844204 817.188525054 189.144844204 956.474609375 186.64453125 c 2,17,-1
 1021.37597656 185.479492188 l 2,18,19
 1069.37597656 184.996214561 1069.37597656 184.996214561 1069.37597656 108 c 2,20,-1
 1069.37597656 74 l 2,21,22
 1069 0 1069 0 1020.62011719 0 c 2,23,-1
 943.786132812 0 l 2,24,25
 662 0 662 0 532.508789062 -523.639648438 c 1,26,-1
 442.01953125 -559.6796875 l 1,27,28
 210 -376 210 -376 184.440429688 0 c 1,29,-1
 -4 0 l 6,30,31
 -51.6240234375 0 -51.6240234375 0 -51.6240234375 74 c 6,32,-1
 -51.6240234375 108 l 6,33,34
 -52 185 -52 185 -3.6240234375 185.479492188 c 6,0,-1
331.638671875 185.5390625 m 1,35,-1
 370.146484375 187.616210938 l 2,36,37
 458.98046875 192.919921875 458.98046875 192.919921875 494.966796875 247.674804688 c 0,38,39
 563.919921875 351.919921875 563.919921875 351.919921875 563.58984375 512.293945312 c 0,40,41
 563.919921875 594.66015625 563.919921875 594.66015625 541.639648438 629.309570312 c 0,42,43
 519.400390625 663.559570312 519.400390625 663.559570312 475.252929688 663.559570312 c 0,44,45
 373.120117188 663.559570312 373.120117188 663.559570312 346.7265625 494.702148438 c 0,46,47
 321.1796875 329.66015625 321.1796875 329.66015625 331.638671875 185.5390625 c 1,35,-1
EndSplineSet
EndChar

StartChar: uniFEEE
Encoding: 65262 65262 248
Width: 905
VWidth: 2311
GlyphClass: 2
Flags: W
AnchorPoint: "Anchor-10" 344.5 1125.72 basechar 0
AnchorPoint: "Anchor-7" 532.666 -647.912 basechar 0
LayerCount: 2
Fore
SplineSet
912.375976562 185.479492188 m 6,0,1
 960 185 960 185 960.375976562 108 c 6,2,-1
 960.375976562 74 l 6,3,4
 960.375976562 0 960.375976562 0 911.620117188 0 c 6,5,-1
 776.215820312 0 l 1,6,7
 747 -192 747 -192 619.330078125 -340.215820312 c 0,8,9
 451 -536 451 -536 99.9267578125 -536.506835938 c 2,10,-1
 97.98828125 -536.5078125 l 1,11,-1
 25.962890625 -396.889648438 l 1,12,13
 550 -365 550 -365 621.619140625 1.4716796875 c 1,14,15
 589 1 589 1 446.08203125 1.3134765625 c 0,16,17
 246 1 246 1 164.5625 104.953125 c 0,18,19
 100 189 100 189 114.090820312 322.94140625 c 0,20,21
 135 520 135 520 259.704101562 640.501953125 c 0,22,23
 340 719 340 719 445.200195312 717.748046875 c 0,24,25
 634 716 634 716 724.875976562 528.258789062 c 0,26,27
 779 417 779 417 785.681640625 185.5 c 1,28,-1
 912.375976562 185.479492188 l 6,0,1
436.081054688 545.701171875 m 0,29,30
 355.099609375 544.83984375 355.099609375 544.83984375 301.396484375 445.200195312 c 0,31,32
 273.48046875 393.259765625 273.48046875 393.259765625 267.919921875 331.09765625 c 0,33,34
 260.759765625 254.400390625 260.759765625 254.400390625 300.784179688 217.904296875 c 0,35,36
 338.139648438 184.440429688 338.139648438 184.440429688 414.173828125 178.711914062 c 0,37,38
 486.540039062 172.780273438 486.540039062 172.780273438 631.02734375 180.256835938 c 1,39,40
 630.700195312 546.959960938 630.700195312 546.959960938 436.081054688 545.701171875 c 0,29,30
EndSplineSet
EndChar

StartChar: uniFEF0
Encoding: 65264 65264 250
Width: 1481
VWidth: 2311
GlyphClass: 2
Flags: W
AnchorPoint: "Anchor-10" 582.849 494.691 basechar 0
AnchorPoint: "Anchor-7" 341.391 -776.455 basechar 0
LayerCount: 2
Fore
SplineSet
1488.37597656 185.479492188 m 2,0,1
 1536.37597656 185.395882196 1536.37597656 185.395882196 1536.37597656 108 c 2,2,-1
 1536.37597656 74 l 2,3,4
 1535.9988622 -0.223942340328 1535.9988622 -0.223942340328 1487.62011719 0 c 2,5,-1
 1362.9375 0.5771484375 l 1,6,-1
 1140.91015625 0 l 2,7,8
 1066 -0 1066 -0 1066.03320312 -42.580078125 c 0,9,10
 1066 -64 1066 -64 1161.45605469 -78.810546875 c 0,11,12
 1195 -84 1195 -84 1223 -90.19921875 c 0,13,14
 1342 -116 1342 -116 1374.07226562 -207 c 0,15,16
 1404 -291 1404 -291 1360.51074219 -395 c 4,17,18
 1297 -546 1297 -546 1092 -624.728515625 c 0,19,20
 937 -684 937 -684 717.80859375 -683.716796875 c 0,21,22
 513 -684 513 -684 383.521484375 -627.900390625 c 0,23,24
 98 -504 98 -504 97.111328125 -148 c 0,25,26
 96 73 96 73 212.884765625 322.415039062 c 1,27,-1
 360 262 l 1,28,29
 267 51 267 51 262.9765625 -126 c 0,30,31
 254 -512 254 -512 726.275390625 -507.954101562 c 0,32,33
 953 -506 953 -506 1101 -436.356445312 c 0,34,35
 1244 -369 1244 -369 1240.08007812 -283 c 0,36,37
 1239 -264 1239 -264 1188 -253.186523438 c 16,38,39
 1124 -239 1124 -239 1060 -227.833984375 c 0,40,41
 894 -198 894 -198 893.28515625 -54.1669921875 c 0,42,43
 893 23 893 23 923.458984375 79.2509765625 c 0,44,45
 981.195634163 186.362936866 981.195634163 186.362936866 1148.62890625 186.071289062 c 2,46,-1
 1488.37597656 185.479492188 l 2,0,1
EndSplineSet
EndChar

StartChar: uniFEFB
Encoding: 65275 65275 261
Width: 1193
VWidth: 2311
GlyphClass: 3
Flags: W
AnchorPoint: "Anchor-9" 919.751 1653.28 baselig 0
AnchorPoint: "Anchor-6" 891.132 -229.49 baselig 0
AnchorPoint: "Anchor-6" 293.09 -277.622 baselig 1
AnchorPoint: "Anchor-9" 126.739 1579.23 baselig 1
LayerCount: 2
Fore
SplineSet
237.204101562 1417.92382812 m 1,0,1
 470 975 470 975 599.513671875 186.98828125 c 1,2,3
 765 204 765 204 848.541992188 331.591796875 c 0,4,5
 916.085992604 435.131820387 916.085992604 435.131820387 903.430664062 806.012695312 c 2,6,-1
 881.068359375 1461.36914062 l 5,7,-1
 1054.87988281 1537.33203125 l 5,8,-1
 1054.87988281 548.75 l 2,9,10
 1055 261 1055 261 898.915039062 124.333007812 c 0,11,12
 752 -4 752 -4 439.900390625 -2.96875 c 0,13,14
 251 -2 251 -2 166.091796875 24.4423828125 c 1,15,-1
 166.091796875 198.75 l 1,16,17
 283 164 283 164 449.025390625 174.616210938 c 1,18,19
 346 877 346 877 97.29296875 1304.34960938 c 1,20,-1
 237.204101562 1417.92382812 l 1,0,1
EndSplineSet
LCarets2: 1 0
Ligature2: "'rlig' Required Ligatures in Arabic lookup 16 subtable" uniFEDF uniFE8E
EndChar

StartChar: uniFEFC
Encoding: 65276 65276 262
Width: 1314
VWidth: 2311
GlyphClass: 3
Flags: W
AnchorPoint: "Anchor-9" 968.512 1636.32 baselig 0
AnchorPoint: "Anchor-6" 920.812 -222.07 baselig 0
AnchorPoint: "Anchor-6" 246.98 -278.78 baselig 1
AnchorPoint: "Anchor-9" 125.61 1560.85 baselig 1
LayerCount: 2
Fore
SplineSet
1321.37597656 185.479492188 m 2,0,1
 1369.37597656 185.053895791 1369.37597656 185.053895791 1369.37597656 108 c 2,2,-1
 1369.37597656 74 l 2,3,4
 1369.00231387 -0.538428315435 1369.00231387 -0.538428315435 1320.62011719 0 c 2,5,-1
 1272.97070312 0.5302734375 l 2,6,7
 973 4 973 4 942.958007812 339.099609375 c 1,8,9
 800 2 800 2 360.40234375 0.5302734375 c 0,10,11
 254 0 254 0 161.205078125 17.62109375 c 1,12,-1
 161.205078125 195.67578125 l 1,13,14
 373 151 373 151 444.002929688 177.713867188 c 1,15,16
 350 886 350 886 96.4599609375 1306.98046875 c 1,17,-1
 237.356445312 1422.61523438 l 1,18,19
 467 982 467 982 589.791015625 213.4453125 c 1,20,21
 903.849426896 320.94845837 903.849426896 320.94845837 889.764648438 870.080078125 c 2,22,-1
 874.651367188 1459.31054688 l 5,23,-1
 1047.41796875 1536.3984375 l 5,24,-1
 1047.41796875 641.828125 l 2,25,26
 1047 452 1047 452 1072.68261719 364.5078125 c 0,27,28
 1123.93346835 187.230134269 1123.93346835 187.230134269 1273.68554688 185.90234375 c 2,29,-1
 1321.37597656 185.479492188 l 2,0,1
EndSplineSet
LCarets2: 1 0
Ligature2: "'rlig' Required Ligatures in Arabic lookup 16 subtable" uniFEE0 uniFE8E
EndChar

StartChar: arabic_dot
Encoding: 65536 -1 263
Width: 165
VWidth: 2170
GlyphClass: 2
Flags: W
LayerCount: 2
Fore
SplineSet
113.283203125 200.033203125 m 2,0,-1
 196.493164062 116.823242188 l 2,1,2
 222.6875 90.6298828125 222.6875 90.6298828125 197.0234375 64.966796875 c 2,3,-1
 110.103515625 -21.953125 l 2,4,5
 82.150390625 -49.908203125 82.150390625 -49.908203125 54.7265625 -22.4833984375 c 2,6,-1
 -32.193359375 64.4365234375 l 2,7,8
 -58.3876953125 90.6298828125 -58.3876953125 90.6298828125 -29.013671875 120.00390625 c 2,9,-1
 52.076171875 201.09375 l 2,10,11
 82.150390625 231.16796875 82.150390625 231.16796875 113.283203125 200.033203125 c 2,0,-1
EndSplineSet
EndChar

StartChar: arabic_2dots
Encoding: 65537 -1 264
Width: 485
VWidth: 2170
GlyphClass: 2
Flags: W
LayerCount: 2
Fore
SplineSet
423.86328125 200.033203125 m 2,0,-1
 507.073242188 116.823242188 l 2,1,2
 533.267578125 90.6298828125 533.267578125 90.6298828125 507.603515625 64.966796875 c 2,3,-1
 420.68359375 -21.953125 l 2,4,5
 392.73046875 -49.9072265625 392.73046875 -49.9072265625 365.306640625 -22.4833984375 c 2,6,-1
 278.38671875 64.4365234375 l 2,7,8
 252.192382812 90.6298828125 252.192382812 90.6298828125 281.56640625 120.00390625 c 2,9,-1
 362.65625 201.09375 l 2,10,11
 392.73046875 231.16796875 392.73046875 231.16796875 423.86328125 200.033203125 c 2,0,-1
123.883789062 200.033203125 m 2,12,-1
 207.09375 116.823242188 l 2,13,14
 233.288085938 90.6298828125 233.288085938 90.6298828125 207.623046875 64.966796875 c 2,15,-1
 120.703125 -21.953125 l 2,16,17
 92.75 -49.9072265625 92.75 -49.9072265625 65.326171875 -22.4833984375 c 2,18,-1
 -21.59375 64.4365234375 l 2,19,20
 -47.787109375 90.6298828125 -47.787109375 90.6298828125 -18.4130859375 120.00390625 c 2,21,-1
 62.6767578125 201.09375 l 2,22,23
 92.75 231.16796875 92.75 231.16796875 123.883789062 200.033203125 c 2,12,-1
EndSplineSet
EndChar

StartChar: arabic_3dots
Encoding: 65538 -1 265
Width: 488
VWidth: 2170
GlyphClass: 2
Flags: W
LayerCount: 2
Fore
SplineSet
424.681640625 187.313476562 m 6,0,-1
 507.891601562 104.103515625 l 6,1,2
 534.0859375 77.91015625 534.0859375 77.91015625 508.420898438 52.24609375 c 6,3,-1
 421.500976562 -34.673828125 l 6,4,5
 393.547851562 -62.626953125 393.547851562 -62.626953125 366.124023438 -35.203125 c 6,6,-1
 279.204101562 51.716796875 l 6,7,8
 253.009765625 77.91015625 253.009765625 77.91015625 282.384765625 107.283203125 c 6,9,-1
 363.474609375 188.374023438 l 6,10,11
 393.547851562 218.448242188 393.547851562 218.448242188 424.681640625 187.313476562 c 6,0,-1
124.701171875 187.313476562 m 6,12,-1
 207.911132812 104.103515625 l 6,13,14
 234.10546875 77.91015625 234.10546875 77.91015625 208.44140625 52.24609375 c 6,15,-1
 121.521484375 -34.673828125 l 6,16,17
 93.5673828125 -62.626953125 93.5673828125 -62.626953125 66.14453125 -35.203125 c 6,18,-1
 -20.775390625 51.716796875 l 6,19,20
 -46.96875 77.91015625 -46.96875 77.91015625 -17.595703125 107.283203125 c 6,21,-1
 63.494140625 188.374023438 l 6,22,23
 93.5673828125 218.448242188 93.5673828125 218.448242188 124.701171875 187.313476562 c 6,12,-1
274.65234375 425.188476562 m 2,24,-1
 357.862304688 341.978515625 l 2,25,26
 384.060546875 315.788085938 384.060546875 315.788085938 358.392578125 290.120117188 c 2,27,-1
 271.47265625 203.200195312 l 2,28,29
 243.518554688 175.247070312 243.518554688 175.247070312 216.095703125 202.669921875 c 2,30,-1
 129.17578125 289.58984375 l 2,31,32
 103.134765625 315.939453125 103.134765625 315.939453125 132.35546875 345.158203125 c 2,33,-1
 213.4453125 426.248046875 l 2,34,35
 243.518554688 456.321289062 243.518554688 456.321289062 274.65234375 425.188476562 c 2,24,-1
EndSplineSet
EndChar

StartChar: arabic_3dots_a
Encoding: 65539 -1 266
Width: 487
VWidth: 2170
GlyphClass: 2
Flags: W
LayerCount: 2
Fore
SplineSet
424.181640625 208.513671875 m 6,0,-1
 507.391601562 125.303710938 l 6,1,2
 533.5859375 99.1103515625 533.5859375 99.1103515625 507.920898438 73.4462890625 c 6,3,-1
 421.000976562 -13.4736328125 l 6,4,5
 393.047851562 -41.4267578125 393.047851562 -41.4267578125 365.624023438 -14.00390625 c 6,6,-1
 278.704101562 72.916015625 l 6,7,8
 252.509765625 99.1103515625 252.509765625 99.1103515625 281.884765625 128.483398438 c 6,9,-1
 362.974609375 209.573242188 l 6,10,11
 393.047851562 239.6484375 393.047851562 239.6484375 424.181640625 208.513671875 c 6,0,-1
124.201171875 208.513671875 m 6,12,-1
 207.411132812 125.303710938 l 6,13,14
 233.60546875 99.1103515625 233.60546875 99.1103515625 207.94140625 73.4462890625 c 6,15,-1
 121.021484375 -13.4736328125 l 6,16,17
 93.0673828125 -41.4267578125 93.0673828125 -41.4267578125 65.64453125 -14.00390625 c 6,18,-1
 -21.275390625 72.916015625 l 6,19,20
 -47.46875 99.1103515625 -47.46875 99.1103515625 -18.095703125 128.483398438 c 6,21,-1
 62.994140625 209.573242188 l 6,22,23
 93.0673828125 239.6484375 93.0673828125 239.6484375 124.201171875 208.513671875 c 6,12,-1
274.19140625 -12.1123046875 m 2,24,-1
 357.401367188 -95.322265625 l 2,25,26
 383.595703125 -121.515625 383.595703125 -121.515625 357.931640625 -147.180664062 c 2,27,-1
 271.010742188 -234.100585938 l 2,28,29
 243.057617188 -262.053710938 243.057617188 -262.053710938 215.634765625 -234.630859375 c 2,30,-1
 128.71484375 -147.7109375 l 2,31,32
 102.520507812 -121.515625 102.520507812 -121.515625 131.89453125 -92.142578125 c 2,33,-1
 213.381835938 -10.6552734375 l 2,34,35
 243.485351562 18.59375 243.485351562 18.59375 274.19140625 -12.1123046875 c 2,24,-1
EndSplineSet
EndChar

StartChar: uni066E.fina
Encoding: 65540 -1 267
Width: 2132
VWidth: 2311
GlyphClass: 2
Flags: W
AnchorPoint: "Anchor-10" 743.06 1127.31 basechar 0
AnchorPoint: "Anchor-7" 743.06 -186.56 basechar 0
LayerCount: 2
Fore
SplineSet
2139.37597656 185.479492188 m 2,0,1
 2187.37597656 184.979672551 2187.37597656 184.979672551 2187.37597656 108 c 2,2,-1
 2187.37597656 74 l 2,3,4
 2186.99793442 -0.406548862577 2186.99793442 -0.406548862577 2138.62011719 0 c 2,5,-1
 2075.51953125 0.5302734375 l 6,6,7
 1831 3 1831 3 1748.09179688 219.603515625 c 1,8,9
 1696 159 1696 159 1558.49316406 94.513671875 c 0,10,11
 1358 0 1358 0 907.125976562 0 c 0,12,13
 567 0 567 0 398.397460938 70.6044921875 c 0,14,15
 125 184 125 184 99.65234375 467.181640625 c 0,16,17
 88 600 88 600 131.100585938 751.973632812 c 1,18,-1
 273.30859375 714.452148438 l 1,19,20
 252 573 252 573 254.96875 507.0546875 c 0,21,22
 267 248 267 248 593.8359375 200.705078125 c 0,23,24
 674 189 674 189 904.290039062 187.637695312 c 0,25,26
 1332 186 1332 186 1502.77734375 266.155273438 c 0,27,28
 1701 360 1701 360 1728.50097656 576.422851562 c 1,29,-1
 1849.67285156 576.422851562 l 1,30,31
 1864 397 1864 397 1891.31542969 322.538085938 c 0,32,33
 1939.70750069 187.558621879 1939.70750069 187.558621879 2098.76757812 185.90234375 c 2,34,-1
 2139.37597656 185.479492188 l 2,0,1
EndSplineSet
EndChar

StartChar: uni06A1.fina
Encoding: 65543 -1 270
Width: 1992
VWidth: 2311
GlyphClass: 2
Flags: W
AnchorPoint: "Anchor-10" 561.8 1240.73 basechar 0
AnchorPoint: "Anchor-7" 675.22 -233.73 basechar 0
LayerCount: 2
Fore
SplineSet
1999.37597656 185.479492188 m 6,0,1
 2047 185 2047 185 2047.37597656 108 c 6,2,-1
 2047.37597656 74 l 6,3,4
 2047.37597656 -0 2047.37597656 -0 1998.62011719 0 c 6,5,-1
 1906.12011719 0.5302734375 l 2,6,7
 1670.13945464 1.88307643337 1670.13945464 1.88307643337 1533.8203125 116.177734375 c 1,8,9
 1260 0 1260 0 859.036132812 0 c 0,10,11
 563 0 563 0 394.157226562 70.6044921875 c 0,12,13
 121 184 121 184 96.4716796875 467.185546875 c 0,14,15
 85 602 85 602 126.8515625 751.975585938 c 1,16,-1
 269.08984375 714.446289062 l 1,17,18
 246 567 246 567 248.607421875 507.069335938 c 0,19,20
 260 252 260 252 589.6171875 200.702148438 c 0,21,22
 639 193 639 193 774.228515625 189.477539062 c 0,23,24
 985 183 985 183 1122.33984375 190.956054688 c 0,25,26
 1181 194 1181 194 1338.88671875 214.4609375 c 1,27,28
 1242 278 1242 278 1198.3125 377.192382812 c 0,29,30
 1152 483 1152 483 1185.09863281 605.30078125 c 0,31,32
 1227 762 1227 762 1374.31152344 823.790039062 c 0,33,34
 1442 852 1442 852 1528.06738281 852.219726562 c 0,35,36
 1616 852 1616 852 1687.05371094 818.354492188 c 0,37,38
 1824 754 1824 754 1858.86035156 603.635742188 c 0,39,40
 1885 492 1885 492 1846.41894531 393.736328125 c 0,41,42
 1805 287 1805 287 1687.84277344 211.6328125 c 1,43,44
 1715 187 1715 187 1914.24316406 185.90234375 c 2,45,-1
 1999.37597656 185.479492188 l 6,0,1
1334.13867188 506.393554688 m 0,46,47
 1333.48046875 428.240234375 1333.48046875 428.240234375 1388.43457031 372.966796875 c 0,48,49
 1474.45996094 285.139648438 1474.45996094 285.139648438 1520.07324219 285.389648438 c 0,50,51
 1566.6796875 286.200195312 1566.6796875 286.200195312 1651.70800781 372.966796875 c 0,52,53
 1705.54003906 427.1796875 1705.54003906 427.1796875 1706.00390625 506.393554688 c 0,54,55
 1706.59960938 585.120117188 1706.59960938 585.120117188 1651.60546875 639.91796875 c 0,56,57
 1596.36035156 695.360351562 1596.36035156 695.360351562 1520.07324219 695.359375 c 128,-1,58
 1443.71972656 695.360351562 1443.71972656 695.360351562 1388.5390625 639.920898438 c 0,59,60
 1334.54003906 586.1796875 1334.54003906 586.1796875 1334.13867188 506.393554688 c 0,46,47
EndSplineSet
EndChar

StartChar: uni06A1.init
Encoding: 65544 -1 271
Width: 870
VWidth: 2311
GlyphClass: 2
Flags: W
AnchorPoint: "Anchor-10" 433.042 1301.15 basechar 0
AnchorPoint: "Anchor-7" 406.542 -177.02 basechar 0
LayerCount: 2
Fore
SplineSet
-3.6240234375 185.479492188 m 6,0,-1
 259.700195312 185.479492188 l 2,1,2
 465 185 465 185 527.325195312 230.01953125 c 0,3,4
 610 288 610 288 614.493164062 418.2890625 c 1,5,6
 541 366 541 366 396.440429688 366.759765625 c 0,7,8
 238 368 238 368 162.391601562 468.603515625 c 0,9,10
 95.9774355586 556.703409615 95.9774355586 556.703409615 113.208984375 712.817382812 c 0,11,12
 131 874 131 874 225.345703125 973.43359375 c 0,13,14
 342 1097 342 1097 505.2421875 1063.76171875 c 0,15,16
 616 1041 616 1041 684.634765625 925.232421875 c 0,17,18
 776 773 776 773 776.55078125 537.419921875 c 0,19,20
 778 178 778 178 597.702148438 64.0966796875 c 0,21,22
 497 0 497 0 253.583984375 0 c 2,23,-1
 -4 0 l 6,24,25
 -51.6240234375 0 -51.6240234375 0 -51.6240234375 74 c 6,26,-1
 -51.6240234375 108 l 6,27,28
 -52 185 -52 185 -3.6240234375 185.479492188 c 6,0,-1
435.862304688 899.022460938 m 0,29,30
 311.639648438 895.700195312 311.639648438 895.700195312 269.705078125 727.03515625 c 0,31,32
 221.0390625 530.092773438 221.0390625 530.092773438 414.459960938 528.744140625 c 0,33,34
 538.48046875 527.879882812 538.48046875 527.879882812 616.709960938 586.138671875 c 1,35,36
 623.280273438 611.620117188 623.280273438 611.620117188 605.49609375 709.212890625 c 0,37,38
 569.219726562 903.120117188 569.219726562 903.120117188 435.862304688 899.022460938 c 0,29,30
EndSplineSet
EndChar

StartChar: uni06A1.medi
Encoding: 65545 -1 272
Width: 1070
VWidth: 2311
GlyphClass: 2
Flags: W
AnchorPoint: "Anchor-10" 544.056 1070.6 basechar 0
AnchorPoint: "Anchor-7" 544.056 -177.02 basechar 0
LayerCount: 2
Fore
SplineSet
-3.6240234375 185.479492188 m 6,0,-1
 120.299804688 185.479492188 l 2,1,2
 294 185 294 185 363.686523438 214.4609375 c 1,3,4
 265 279 265 279 223.112304688 377.192382812 c 0,5,6
 177 483 177 483 209.8984375 605.30078125 c 0,7,8
 251 761 251 761 399.111328125 823.790039062 c 0,9,10
 464 851 464 851 552.8671875 852.219726562 c 0,11,12
 638 853 638 853 711.854492188 818.354492188 c 0,13,14
 850 754 850 754 883.66015625 603.635742188 c 0,15,16
 909 490 909 490 871.21875 393.736328125 c 0,17,18
 828 286 828 286 712.642578125 211.6328125 c 1,19,20
 791.559217291 185.477517756 791.559217291 185.477517756 936.009765625 185.478515625 c 2,21,-1
 1077.37597656 185.479492188 l 2,22,23
 1125.37597656 184.996214561 1125.37597656 184.996214561 1125.37597656 108 c 2,24,-1
 1125.37597656 74 l 2,25,26
 1125 0 1125 0 1076.62011719 0 c 2,27,-1
 939.923828125 0 l 2,28,29
 694 0 694 0 544.090820312 113.47265625 c 1,30,31
 412 0 412 0 138.637695312 0 c 2,32,-1
 -4 0 l 6,33,34
 -51.6240234375 0 -51.6240234375 0 -51.6240234375 74 c 6,35,-1
 -51.6240234375 108 l 6,36,37
 -52 185 -52 185 -3.6240234375 185.479492188 c 6,0,-1
358.938476562 506.393554688 m 0,38,39
 358.280273438 428.240234375 358.280273438 428.240234375 413.234375 372.966796875 c 0,40,41
 499.259765625 285.139648438 499.259765625 285.139648438 544.873046875 285.389648438 c 0,42,43
 591.48046875 286.200195312 591.48046875 286.200195312 676.5078125 372.966796875 c 0,44,45
 730.33984375 427.1796875 730.33984375 427.1796875 730.803710938 506.393554688 c 0,46,47
 731.400390625 585.120117188 731.400390625 585.120117188 676.405273438 639.91796875 c 0,48,49
 621.16015625 695.360351562 621.16015625 695.360351562 544.873046875 695.359375 c 128,-1,50
 468.51953125 695.360351562 468.51953125 695.360351562 413.338867188 639.920898438 c 0,51,52
 359.33984375 586.1796875 359.33984375 586.1796875 358.938476562 506.393554688 c 0,38,39
EndSplineSet
EndChar

StartChar: uni066F.fina
Encoding: 65546 -1 273
Width: 1456
VWidth: 2311
GlyphClass: 2
Flags: W
AnchorPoint: "Anchor-10" 243.8 957.18 basechar 0
AnchorPoint: "Anchor-7" 332.464 -758.77 basechar 0
LayerCount: 2
Fore
SplineSet
1462.62011719 0 m 6,0,-1
 1322.67675781 1.779296875 l 1,1,2
 1314 -144 1314 -144 1270.94042969 -243.536132812 c 0,3,4
 1127 -572 1127 -572 698.844726562 -570.544921875 c 0,5,6
 266 -569 266 -569 134.620117188 -268.763671875 c 0,7,8
 68 -116 68 -116 99.876953125 99.783203125 c 0,9,10
 121 243 121 243 182.405273438 380.759765625 c 1,11,-1
 341.139648438 326.267578125 l 1,12,13
 261 131 261 131 260.893554688 -17.7294921875 c 0,14,15
 261 -51 261 -51 265 -82.6796875 c 0,16,17
 306 -398 306 -398 701.190429688 -397.5 c 0,18,19
 1129 -396 1129 -396 1175.46582031 2.59765625 c 1,20,21
 1142 2 1142 2 991.448242188 2.4384765625 c 0,22,23
 791 2 791 2 709.928710938 106.079101562 c 0,24,25
 646 189 646 189 659.45703125 324.067382812 c 0,26,27
 679 518 679 518 805.0703125 641.626953125 c 0,28,29
 885 720 885 720 990.565429688 718.874023438 c 0,30,31
 1180 717 1180 717 1270.2421875 529.383789062 c 0,32,33
 1324 418 1324 418 1331.04785156 185.565429688 c 1,34,-1
 1463.37597656 185.479492188 l 6,35,36
 1511.37597656 184.996214561 1511.37597656 184.996214561 1511.37597656 108 c 6,37,-1
 1511.37597656 74 l 6,38,39
 1511 -1 1511 -1 1462.62011719 0 c 6,0,-1
981.447265625 546.826171875 m 0,40,41
 900.465820312 545.96484375 900.465820312 545.96484375 846.76171875 446.325195312 c 0,42,43
 818.845703125 394.384765625 818.845703125 394.384765625 813.286132812 332.22265625 c 0,44,45
 806.125976562 255.525390625 806.125976562 255.525390625 846.150390625 219.029296875 c 0,46,47
 883.505859375 185.565429688 883.505859375 185.565429688 959.540039062 179.836914062 c 0,48,49
 1031.90625 173.905273438 1031.90625 173.905273438 1176.39257812 181.381835938 c 1,50,51
 1176.06542969 548.084960938 1176.06542969 548.084960938 981.447265625 546.826171875 c 0,40,41
EndSplineSet
EndChar

StartChar: arabic_ring
Encoding: 65549 -1 276
Width: 470
VWidth: 2170
GlyphClass: 2
Flags: W
LayerCount: 2
Fore
SplineSet
266.931640625 141.330078125 m 0,0,1
 334.959960938 162.575195312 334.959960938 162.575195312 334.959960938 235.849609375 c 0,2,3
 334.959960938 277.462890625 334.959960938 277.462890625 306.1953125 306.741210938 c 128,-1,4
 277.4296875 336.01953125 277.4296875 336.01953125 235.3203125 336.01953125 c 128,-1,5
 193.176757812 336.01953125 193.176757812 336.01953125 164.428710938 307.271484375 c 128,-1,6
 135.6796875 278.5234375 135.6796875 278.5234375 135.6796875 250.220703125 c 128,-1,7
 135.6796875 221.918945312 135.6796875 221.918945312 138.875976562 209.123046875 c 0,8,9
 156.9453125 136.740234375 156.9453125 136.740234375 235.3203125 136.740234375 c 0,10,11
 252.234375 136.740234375 252.234375 136.740234375 266.931640625 141.330078125 c 0,0,1
470.639648438 236.379882812 m 128,-1,13
 470.639648438 137.557617188 470.639648438 137.557617188 402.928710938 68.771484375 c 0,14,15
 334.15625 0 334.15625 0 235.3203125 0 c 128,-1,16
 136.467773438 0 136.467773438 0 68.2333984375 68.771484375 c 128,-1,17
 0 137.54296875 0 137.54296875 0 236.379882812 c 128,-1,18
 0 335.216796875 0 335.216796875 68.2412109375 403.458007812 c 128,-1,19
 136.483398438 471.700195312 136.483398438 471.700195312 235.3203125 471.700195312 c 128,-1,20
 334.142578125 471.700195312 334.142578125 471.700195312 402.928710938 403.98828125 c 0,21,12
 470.639648438 335.202148438 470.639648438 335.202148438 470.639648438 236.379882812 c 128,-1,13
EndSplineSet
EndChar

StartChar: arabic_gaf_bar
Encoding: 65550 -1 277
Width: 720
VWidth: 2170
GlyphClass: 2
Flags: W
LayerCount: 2
Fore
SplineSet
712.3203125 1744.64355469 m 5,0,-1
 0 1398.16308594 l 1,1,-1
 0 1520.89648438 l 1,2,-1
 712.3203125 1867.37695312 l 5,3,-1
 712.3203125 1744.64355469 l 5,0,-1
EndSplineSet
EndChar

StartChar: uni066E.init.math
Encoding: 65560 -1 287
Width: 935
VWidth: 2311
GlyphClass: 2
Flags: W
LayerCount: 2
Fore
SplineSet
613.616210938 100.798828125 m 0,0,1
 536.137695312 9.009765625 536.137695312 9.009765625 366.124023438 9.009765625 c 2,2,-1
 -3.6044921875 9.009765625 l 1,3,-1
 -3.6044921875 185.90234375 l 1,4,-1
 303.743164062 185.90234375 l 2,5,6
 537.409179688 185.90234375 537.409179688 185.90234375 537.409179688 427.5078125 c 2,7,-1
 537.409179688 657.73046875 l 1,8,-1
 714.302734375 657.73046875 l 1,9,-1
 714.302734375 427.5078125 l 2,10,11
 714.302734375 221.793945312 714.302734375 221.793945312 613.616210938 100.798828125 c 0,0,1
EndSplineSet
EndChar

StartChar: guillemotleft
Encoding: 171 171 288
Width: 966
VWidth: 2170
Flags: W
LayerCount: 2
Fore
SplineSet
287.524414062 5.48828125 m 1,0,1
 121.9375 266.318359375 121.9375 266.318359375 121.9375 498.900390625 c 128,-1,2
 121.9375 731.481445312 121.9375 731.481445312 287.490234375 993.323242188 c 1,3,-1
 436.717773438 993.323242188 l 1,4,-1
 406.991210938 941.052734375 l 2,5,6
 280.9375 719.416992188 280.9375 719.416992188 280.9375 499.9140625 c 0,7,8
 280.9375 278.533203125 280.9375 278.533203125 406.942382812 57.8125 c 2,9,-1
 436.819335938 5.48828125 l 1,10,-1
 287.524414062 5.48828125 l 1,0,1
686.084960938 5.48828125 m 1,11,12
 520.498046875 266.318359375 520.498046875 266.318359375 520.498046875 498.900390625 c 128,-1,13
 520.498046875 731.481445312 520.498046875 731.481445312 686.05078125 993.323242188 c 1,14,-1
 835.27734375 993.323242188 l 1,15,-1
 805.55078125 941.052734375 l 2,16,17
 679.498046875 719.416992188 679.498046875 719.416992188 679.498046875 499.9140625 c 0,18,19
 679.498046875 278.967773438 679.498046875 278.967773438 805.224609375 58.2998046875 c 2,20,-1
 835.37890625 5.48828125 l 1,21,-1
 686.084960938 5.48828125 l 1,11,12
EndSplineSet
EndChar

StartChar: guillemotright
Encoding: 187 187 289
Width: 966
VWidth: 2170
Flags: W
LayerCount: 2
Fore
SplineSet
678.569335938 993.323242188 m 1,0,1
 844.122070312 731.481445312 844.122070312 731.481445312 844.122070312 498.908203125 c 128,-1,2
 844.122070312 266.334960938 844.122070312 266.334960938 678.53515625 5.48828125 c 1,3,-1
 529.241210938 5.48828125 l 1,4,-1
 559.1171875 57.8125 l 2,5,6
 685.122070312 278.495117188 685.122070312 278.495117188 685.122070312 499.9140625 c 0,7,8
 685.122070312 719.37109375 685.122070312 719.37109375 559.069335938 941.052734375 c 2,9,-1
 529.342773438 993.323242188 l 1,10,-1
 678.569335938 993.323242188 l 1,0,1
280.009765625 993.323242188 m 1,11,12
 445.5625 731.481445312 445.5625 731.481445312 445.5625 498.903320312 c 128,-1,13
 445.5625 266.325195312 445.5625 266.325195312 279.975585938 5.48828125 c 1,14,-1
 130.680664062 5.48828125 l 1,15,-1
 160.557617188 57.8125 l 2,16,17
 286.5625 278.495117188 286.5625 278.495117188 286.5625 499.9140625 c 0,18,19
 286.5625 719.37109375 286.5625 719.37109375 160.508789062 941.052734375 c 2,20,-1
 130.782226562 993.323242188 l 1,21,-1
 280.009765625 993.323242188 l 1,11,12
EndSplineSet
EndChar

StartChar: NameMe.337
Encoding: 65562 -1 296
Width: 658
VWidth: 2311
Flags: W
LayerCount: 2
Fore
SplineSet
-3.6240234375 185.479492188 m 6,0,-1
 69.310546875 185.479492188 l 2,1,2
 261.531056406 185.001166928 261.531056406 185.001166928 251.529296875 427.384765625 c 2,3,-1
 220.705078125 1174.38183594 l 1,4,-1
 393.440429688 1248.15332031 l 1,5,-1
 393.440429688 427.50390625 l 2,6,7
 393.000870842 185.479492189 393.000870842 185.479492189 594.247070312 185.479492188 c 2,8,-1
 665.375976562 185.479492188 l 2,9,10
 713.375976562 184.996214561 713.375976562 184.996214561 713.375976562 108 c 2,11,-1
 713.375976562 74 l 2,12,13
 713 0 713 0 664.620117188 0 c 2,14,-1
 584.865234375 0 l 2,15,16
 436 0 436 0 328.165039062 114.334960938 c 1,17,18
 225 0 225 0 67.5224609375 0 c 2,19,-1
 -4 0 l 6,20,21
 -51.6240234375 0 -51.6240234375 0 -51.6240234375 74 c 6,22,-1
 -51.6240234375 108 l 6,23,24
 -52 185 -52 185 -3.6240234375 185.479492188 c 6,0,-1
EndSplineSet
EndChar

StartChar: NameMe.338
Encoding: 65563 -1 297
Width: 561
VWidth: 2311
Flags: W
LayerCount: 2
Fore
SplineSet
-3.6240234375 185.479492188 m 2,0,-1
 59.2001953125 185.479492188 l 2,1,2
 289.298616983 184.999376916 289.298616983 184.999376916 279.08984375 479.5546875 c 2,3,-1
 249.323242188 1338.41503906 l 5,4,-1
 423.120117188 1414.37207031 l 5,5,-1
 423.120117188 466.072265625 l 2,6,7
 423 220 423 220 323.564453125 109.725585938 c 0,8,9
 224 0 224 0 68.58203125 0 c 2,10,-1
 -4 0 l 2,11,12
 -51.6240234375 0 -51.6240234375 0 -51.6240234375 74 c 2,13,-1
 -51.6240234375 108 l 2,14,15
 -52 185 -52 185 -3.6240234375 185.479492188 c 2,0,-1
EndSplineSet
EndChar

